<svg width="32" height="32" viewBox="0 0 32 32" fill="none" xmlns="http://www.w3.org/2000/svg">
<path d="M16 20.7917C16.3452 20.7917 16.625 20.5119 16.625 20.1667V15.1667C16.625 14.8216 16.3452 14.5417 16 14.5417C15.6548 14.5417 15.375 14.8216 15.375 15.1667V20.1667C15.375 20.5119 15.6548 20.7917 16 20.7917Z" fill="#AF52DE"/>
<path d="M16 11.8334C16.4603 11.8334 16.8334 12.2065 16.8334 12.6667C16.8334 13.127 16.4603 13.5001 16 13.5001C15.5398 13.5001 15.1667 13.127 15.1667 12.6667C15.1667 12.2065 15.5398 11.8334 16 11.8334Z" fill="#AF52DE"/>
<path fill-rule="evenodd" clip-rule="evenodd" d="M7.04169 16.0001C7.04169 11.0525 11.0525 7.04175 16 7.04175C20.9476 7.04175 24.9584 11.0525 24.9584 16.0001C24.9584 20.9476 20.9476 24.9584 16 24.9584C11.0525 24.9584 7.04169 20.9476 7.04169 16.0001ZM16 8.29175C11.7428 8.29175 8.29169 11.7429 8.29169 16.0001C8.29169 20.2573 11.7428 23.7084 16 23.7084C20.2572 23.7084 23.7084 20.2573 23.7084 16.0001C23.7084 11.7429 20.2572 8.29175 16 8.29175Z" fill="#AF52DE"/>
</svg>
