<svg width="167" height="86" viewBox="0 0 167 86" fill="none" xmlns="http://www.w3.org/2000/svg">
<g clip-path="url(#clip0_169_1874)">
<path d="M75.9751 46.6531C75.9751 48.8415 77.6444 51.0978 81.4244 51.0978C83.2794 51.0978 84.693 50.5167 85.7134 49.7252C86.0849 50.144 86.4082 50.4926 86.7338 50.8413H90.8371C89.8626 49.7931 88.9581 48.7691 88.0775 47.7692C89.4693 46.2102 90.2581 44.1862 90.6754 41.8115H87.5226C87.315 43.2083 86.8277 44.6511 86.2007 45.6291C85.4359 44.8375 84.4855 43.6973 83.5809 42.6974L83.6049 42.6053C85.7615 41.5111 86.6901 40.1625 86.6901 38.5794C86.6901 36.323 84.8591 34.9021 82.4469 34.9021C79.3159 34.9021 77.7624 37.0664 77.7624 39.0442C77.7624 40.1603 78.2715 41.3247 78.9444 42.0702V42.1623C77.1593 43.0921 75.9773 44.5831 75.9773 46.6531H75.9751ZM82.3289 37.1124C83.2575 37.1124 83.6967 37.9259 83.6967 38.6715C83.6967 39.5793 83.1177 40.1845 81.9815 40.976C81.2867 40.2086 80.9153 39.5091 80.9153 38.7197C80.9153 37.9303 81.4265 37.1146 82.3289 37.1146V37.1124ZM80.5438 43.9078C81.8198 45.3506 83.0937 46.7693 84.0681 47.7473C83.6049 48.1902 82.8402 48.5389 81.9116 48.5389C80.3122 48.5389 79.3137 47.3986 79.3137 46.072C79.3137 45.048 79.8927 44.3726 80.5416 43.9078H80.5438Z" fill="#065C73"/>
<path d="M77.3559 64.5219C76.3203 63.7896 74.8891 64.0395 74.1593 65.0789C66.9883 75.295 55.2858 81.3952 42.8556 81.3952C35.9009 81.3952 29.0839 79.5007 23.143 75.9133C23.1364 75.9089 23.1299 75.9089 23.1255 75.9045C23.0425 75.8563 22.9551 75.819 22.8677 75.7817C22.8152 75.7598 22.765 75.7291 22.7125 75.7116C22.671 75.6962 22.6251 75.6918 22.5836 75.6787C22.3367 75.6085 22.0833 75.5734 21.832 75.5866C21.8058 75.5866 21.7796 75.5954 21.7512 75.5976C21.6288 75.6085 21.5064 75.6261 21.3863 75.6568C21.3797 75.6568 21.3732 75.6568 21.3666 75.659L5.57599 79.9041L9.8716 63.8181C9.88034 63.7874 9.88034 63.7567 9.88689 63.726C9.91311 63.6097 9.93496 63.4935 9.9437 63.3729C9.94807 63.3028 9.93933 63.2348 9.93933 63.1646C9.93933 63.0835 9.93933 63.0045 9.93059 62.9234C9.91967 62.8445 9.89782 62.7721 9.88034 62.6954C9.86286 62.6252 9.85412 62.555 9.83008 62.4849C9.79076 62.3708 9.7405 62.2634 9.68369 62.1581C9.6684 62.1296 9.66184 62.1011 9.64655 62.0748C6.34072 56.3035 4.59276 49.7077 4.59276 42.9978C4.58839 21.8289 21.7555 4.60479 42.8556 4.60479C58.0781 4.60479 71.8498 13.6521 77.9393 27.6551C78.4353 28.7953 79.7397 29.326 80.8846 28.8699C82.4993 28.5826 84.1883 28.5673 85.8029 28.8392C91.1757 29.7448 95.6308 33.7224 97.1494 38.9829C97.5274 40.2722 97.7175 41.623 97.7175 43C97.7175 44.3771 97.5274 45.73 97.1472 47.0237C96.3999 49.609 94.9404 51.9289 92.9259 53.7292C91.9798 54.5756 91.8968 56.0294 92.738 56.9788C93.1902 57.4898 93.8195 57.7507 94.451 57.7507C94.9928 57.7507 95.5391 57.5577 95.9761 57.1674C98.6373 54.7905 100.564 51.725 101.552 48.3131C102.052 46.6027 102.306 44.8156 102.306 42.9978C102.306 41.18 102.052 39.3929 101.554 37.6913C99.5484 30.7491 93.6644 25.4908 86.5633 24.2958C84.8634 24.0085 83.1002 23.9625 81.3762 24.1489C74.214 9.42009 59.2929 0 42.8556 0C19.2254 0 0 19.2897 0 43C0 50.1813 1.80914 57.242 5.20455 63.5023L0.115802 82.5661C-0.0961378 83.3599 0.131097 84.2085 0.710108 84.7896C1.14491 85.2281 1.73266 85.465 2.33134 85.465C2.53017 85.465 2.729 85.4387 2.92565 85.386L21.6594 80.3493C28.105 84.0353 35.4049 85.9978 42.8556 85.9978C56.7759 85.9978 69.8812 79.1674 77.9109 67.7299C78.6407 66.6906 78.3916 65.2543 77.3559 64.5219Z" fill="#065C73"/>
<path d="M166.921 82.5661L161.756 63.226C165.057 57.0402 166.816 50.0738 166.816 42.9978C166.816 19.2897 147.591 0 123.961 0C110.032 0 96.9264 6.83044 88.9033 18.2701C88.1735 19.3094 88.4226 20.7457 89.4582 21.4781C90.4939 22.2083 91.925 21.9605 92.6548 20.9211C99.8193 10.705 111.522 4.60479 123.959 4.60479C145.059 4.60479 162.226 21.8289 162.226 43C162.226 49.609 160.526 56.1193 157.312 61.8226C157.29 61.8621 157.277 61.9038 157.257 61.9454C157.211 62.0375 157.165 62.1296 157.133 62.2283C157.109 62.2985 157.098 62.3686 157.082 62.4388C157.065 62.5134 157.043 62.5879 157.034 62.6647C157.023 62.7458 157.026 62.8291 157.026 62.9102C157.026 62.9782 157.017 63.044 157.021 63.112C157.028 63.2216 157.052 63.3291 157.074 63.4365C157.082 63.476 157.082 63.5133 157.093 63.5527L157.098 63.5703C157.098 63.5703 157.098 63.5725 157.098 63.5747L161.459 79.9063L145.513 75.6173C145.513 75.6173 145.498 75.6173 145.491 75.6129C145.395 75.5888 145.295 75.5756 145.194 75.5647C145.144 75.5581 145.091 75.5449 145.041 75.5427C144.96 75.5383 144.879 75.5471 144.799 75.5515C144.731 75.5559 144.661 75.5515 144.595 75.5603C144.541 75.569 144.486 75.5866 144.432 75.5997C144.34 75.6195 144.248 75.637 144.161 75.6677C144.115 75.6831 144.073 75.7094 144.03 75.7291C143.933 75.7686 143.839 75.8102 143.75 75.8629C143.743 75.8673 143.737 75.8695 143.728 75.8738C137.783 79.4875 130.946 81.3974 123.956 81.3974C108.786 81.3974 95.0364 72.3939 88.9229 58.4611C88.5122 57.527 87.5595 57.0117 86.5981 57.1082C86.4015 57.0929 86.2027 57.0929 85.9995 57.1301C84.3018 57.4415 82.5101 57.4415 80.8102 57.1301C74.5984 55.9899 69.809 50.7843 69.1688 44.4933C69.1207 43.9604 69.0967 43.4736 69.0967 43.0044C69.0967 42.5351 69.1207 42.0483 69.1666 41.5374C69.5162 38.1233 71.0806 34.9372 73.5737 32.569C74.4935 31.6963 74.535 30.2381 73.6632 29.315C72.7914 28.3918 71.3406 28.3502 70.4208 29.2251C67.1281 32.352 65.0611 36.5577 64.6001 41.0923C64.5389 41.7677 64.5083 42.3926 64.5083 43.0044C64.5083 43.6162 64.5389 44.2433 64.6023 44.9384C65.4522 53.2775 71.7776 60.1518 79.9865 61.6582C81.1074 61.8643 82.2588 61.9674 83.4059 61.9674C84.0854 61.9674 84.7606 61.9191 85.4357 61.8468C92.5958 76.5755 107.534 86 123.959 86C131.446 86 138.768 84.0199 145.222 80.3054L164.109 85.386C164.306 85.4387 164.505 85.465 164.703 85.465C165.304 85.465 165.89 85.2281 166.325 84.7918C166.904 84.2107 167.131 83.3621 166.919 82.5683L166.921 82.5661Z" fill="#065C73"/>
<path d="M39.2199 27.4841C28.6403 27.4841 23.6958 35.3824 23.7373 43.2808C23.781 51.1352 28.5114 58.948 39.2199 58.948C42.6175 58.948 45.4994 58.1718 47.7783 56.7026L51.4337 60.3273L55.4344 56.3123L51.8642 52.7732C53.8 49.9687 54.7024 46.3857 54.6587 42.9343C54.5298 35.1654 49.7994 27.4841 39.2199 27.4841ZM39.2199 53.6832C32.6825 53.6832 29.4138 48.3745 29.3286 43.4101C29.2434 38.3186 32.1232 32.6218 39.2199 32.6218C46.3166 32.6218 48.8533 37.8866 49.0674 42.7633C49.2837 47.9426 46.0151 53.6832 39.2199 53.6832Z" fill="#065C73"/>
<path d="M135.102 53.317L137.639 59.0138H143.831L130.328 28.802H124.136L110.633 59.0138H116.783L119.364 53.317H135.104H135.102ZM127.232 35.1457L132.821 48.0062H121.641L127.232 35.1457Z" fill="#065C73"/>
</g>
<defs>
<clipPath id="clip0_169_1874">
<rect width="167" height="86" fill="white"/>
</clipPath>
</defs>
</svg>
