<svg width="121" height="40" viewBox="0 0 121 40" fill="none" xmlns="http://www.w3.org/2000/svg">
<path d="M110.803 7.92969e-06H10.2026C9.83595 7.92969e-06 9.47365 7.92975e-06 9.10792 0.00200793C8.80177 0.00400793 8.49806 0.00981793 8.18897 0.0147079C7.51748 0.0226097 6.84758 0.0816842 6.18507 0.191418C5.52349 0.303541 4.88264 0.514924 4.28419 0.818418C3.68647 1.12448 3.14031 1.52218 2.66554 1.99708C2.18827 2.47064 1.79043 3.01802 1.48732 3.61817C1.18337 4.21712 0.972609 4.85895 0.862319 5.52149C0.75098 6.18319 0.691067 6.85253 0.683119 7.52349C0.673839 7.83009 0.672859 8.13771 0.667969 8.44435V31.5586C0.672859 31.8691 0.673839 32.1699 0.683119 32.4805C0.69107 33.1514 0.750982 33.8207 0.862319 34.4824C0.972305 35.1453 1.18308 35.7875 1.48732 36.3867C1.79029 36.9849 2.18819 37.5301 2.66554 38.001C3.13851 38.478 3.68502 38.876 4.28419 39.1797C4.88264 39.484 5.52342 39.6967 6.18507 39.8105C6.84769 39.9194 7.51753 39.9785 8.18897 39.9873C8.49806 39.9941 8.80177 39.998 9.10792 39.998C9.47364 40 9.83597 40 10.2026 40H110.803C111.162 40 111.527 40 111.887 39.998C112.191 39.998 112.504 39.9941 112.809 39.9873C113.479 39.9789 114.147 39.9198 114.809 39.8105C115.472 39.6959 116.116 39.4833 116.717 39.1797C117.315 38.8758 117.861 38.4779 118.334 38.001C118.81 37.5282 119.209 36.9835 119.516 36.3867C119.818 35.7871 120.026 35.145 120.135 34.4824C120.246 33.8206 120.308 33.1515 120.32 32.4805C120.324 32.1699 120.324 31.8691 120.324 31.5586C120.332 31.1953 120.332 30.834 120.332 30.4648V9.53614C120.332 9.16993 120.332 8.80665 120.324 8.44435C120.324 8.13771 120.324 7.83009 120.32 7.52345C120.308 6.85243 120.246 6.18324 120.135 5.52145C120.026 4.85929 119.817 4.21751 119.516 3.61813C118.898 2.4152 117.92 1.43603 116.717 0.818328C116.115 0.515575 115.472 0.304248 114.809 0.191328C114.148 0.0811107 113.479 0.0220157 112.809 0.0145679C112.504 0.00968793 112.191 0.00382793 111.887 0.00187793C111.527 -0.00012207 111.162 -0.00012207 110.803 -0.00012207V7.92969e-06Z" fill="#A6A6A6"/>
<path d="M9.11284 39.125C8.80816 39.125 8.51084 39.1211 8.20855 39.1143C7.58233 39.1061 6.95757 39.0516 6.33941 38.9512C5.763 38.8519 5.20461 38.6673 4.68267 38.4033C4.16551 38.1415 3.69382 37.7983 3.28567 37.3867C2.87161 36.98 2.52688 36.5082 2.26516 35.9902C2.00054 35.4688 1.81742 34.9099 1.72216 34.333C1.61928 33.7131 1.56362 33.0863 1.55566 32.458C1.54932 32.2471 1.54102 31.5449 1.54102 31.5449V8.44434C1.54102 8.44434 1.54986 7.75293 1.55571 7.5498C1.56333 6.92248 1.61867 6.29665 1.72124 5.67773C1.81667 5.09925 1.99994 4.53875 2.2647 4.01563C2.52546 3.49794 2.86827 3.02586 3.27984 2.61768C3.69094 2.20562 4.16414 1.8606 4.68218 1.59521C5.20292 1.33209 5.76025 1.14873 6.3355 1.05127C6.95569 0.949836 7.58262 0.894996 8.21101 0.88721L9.11333 0.875H111.882L112.795 0.8877C113.418 0.895099 114.039 0.94945 114.653 1.05029C115.234 1.14898 115.798 1.33362 116.324 1.59814C117.362 2.13299 118.207 2.97916 118.739 4.01807C119 4.53758 119.18 5.09351 119.274 5.66699C119.378 6.29099 119.436 6.92174 119.448 7.5542C119.451 7.8374 119.451 8.1416 119.451 8.44434C119.459 8.81934 119.459 9.17627 119.459 9.53613V30.4648C119.459 30.8281 119.459 31.1826 119.451 31.54C119.451 31.8652 119.451 32.1631 119.447 32.4697C119.436 33.0909 119.378 33.7104 119.276 34.3232C119.183 34.9043 119.001 35.4675 118.736 35.9932C118.473 36.5056 118.13 36.9733 117.721 37.3789C117.312 37.7927 116.84 38.1379 116.321 38.4014C115.796 38.6674 115.234 38.8527 114.653 38.9512C114.035 39.0522 113.41 39.1067 112.784 39.1143C112.491 39.1211 112.185 39.125 111.887 39.125L110.803 39.127L9.11284 39.125Z" fill="black"/>
<path d="M25.4368 20.3007C25.4476 19.466 25.6693 18.6477 26.0813 17.9217C26.4933 17.1957 27.0823 16.5858 27.7934 16.1486C27.3417 15.5035 26.7457 14.9725 26.0529 14.598C25.3601 14.2234 24.5894 14.0156 23.8022 13.991C22.123 13.8147 20.495 14.9958 19.6393 14.9958C18.7671 14.9958 17.4496 14.0085 16.0308 14.0376C15.1132 14.0673 14.2188 14.3341 13.4349 14.8122C12.6511 15.2903 12.0044 15.9632 11.5579 16.7655C9.62392 20.1139 11.0665 25.035 12.9191 27.7416C13.846 29.0669 14.9293 30.5474 16.3467 30.4949C17.7338 30.4374 18.2518 29.6104 19.9261 29.6104C21.5849 29.6104 22.0709 30.4949 23.5171 30.4615C25.0055 30.4374 25.9433 29.1303 26.8377 27.7924C27.5036 26.848 28.0161 25.8043 28.3561 24.6999C27.4914 24.3341 26.7535 23.722 26.2343 22.9397C25.7152 22.1574 25.4378 21.2396 25.4368 20.3007Z" fill="white"/>
<path d="M22.7052 12.2109C23.5167 11.2367 23.9165 9.98451 23.8197 8.72028C22.5799 8.8505 21.4346 9.44306 20.6121 10.3799C20.21 10.8376 19.902 11.37 19.7057 11.9468C19.5095 12.5235 19.4288 13.1333 19.4684 13.7413C20.0885 13.7477 20.702 13.6132 21.2627 13.3482C21.8234 13.0831 22.3166 12.6942 22.7052 12.2109Z" fill="white"/>
<path d="M42.9702 27.1396H38.2368L37.1001 30.4961H35.0952L39.5786 18.0781H41.6616L46.145 30.4961H44.1059L42.9702 27.1396ZM38.727 25.5908H42.479L40.6294 20.1435H40.5777L38.727 25.5908Z" fill="white"/>
<path d="M55.8277 25.9697C55.8277 28.7832 54.3218 30.5908 52.0493 30.5908C51.4737 30.6209 50.9012 30.4883 50.3974 30.2082C49.8936 29.928 49.4789 29.5117 49.2007 29.0068H49.1577V33.4912H47.2993V21.4423H49.0982V22.9482H49.1324C49.4233 22.4457 49.845 22.0316 50.3527 21.7497C50.8603 21.4679 51.4348 21.3289 52.0152 21.3476C54.313 21.3476 55.8277 23.164 55.8277 25.9697ZM53.9175 25.9697C53.9175 24.1367 52.9702 22.9316 51.5249 22.9316C50.105 22.9316 49.1499 24.1621 49.1499 25.9697C49.1499 27.7939 50.105 29.0156 51.5249 29.0156C52.9702 29.0156 53.9175 27.8193 53.9175 25.9697Z" fill="white"/>
<path d="M65.7925 25.9697C65.7925 28.7832 64.2867 30.5908 62.0142 30.5908C61.4385 30.621 60.866 30.4883 60.3622 30.2082C59.8584 29.9281 59.4437 29.5117 59.1656 29.0068H59.1226V33.4912H57.2642V21.4424H59.063V22.9483H59.0972C59.3881 22.4458 59.8098 22.0316 60.3175 21.7498C60.8251 21.4679 61.3997 21.329 61.98 21.3477C64.2779 21.3477 65.7925 23.1641 65.7925 25.9697ZM63.8824 25.9697C63.8824 24.1367 62.9351 22.9317 61.4898 22.9317C60.0698 22.9317 59.1148 24.1621 59.1148 25.9697C59.1148 27.794 60.0698 29.0156 61.4898 29.0156C62.9351 29.0156 63.8824 27.8194 63.8824 25.9697H63.8824Z" fill="white"/>
<path d="M72.3784 27.0361C72.5161 28.2676 73.7124 29.0761 75.3472 29.0761C76.9136 29.0761 78.0406 28.2675 78.0406 27.1572C78.0406 26.1933 77.3609 25.6162 75.7515 25.2207L74.1421 24.833C71.8619 24.2822 70.8033 23.2158 70.8033 21.4853C70.8033 19.3427 72.6704 17.871 75.3218 17.871C77.9458 17.871 79.7447 19.3427 79.8052 21.4853H77.9292C77.8169 20.246 76.7925 19.498 75.2954 19.498C73.7983 19.498 72.7739 20.2548 72.7739 21.3564C72.7739 22.2343 73.4282 22.7509 75.0288 23.1464L76.397 23.4823C78.9448 24.0849 80.0034 25.1083 80.0034 26.9247C80.0034 29.248 78.1528 30.703 75.2095 30.703C72.4556 30.703 70.5962 29.2821 70.4761 27.036L72.3784 27.0361Z" fill="white"/>
<path d="M84.0142 19.2998V21.4424H85.7358V22.9141H84.0142V27.9053C84.0142 28.6807 84.3589 29.042 85.1157 29.042C85.3201 29.0384 85.5242 29.0241 85.727 28.999V30.4619C85.3868 30.5255 85.0409 30.5543 84.6948 30.5478C82.8618 30.5478 82.147 29.8593 82.147 28.1035V22.9141H80.8306V21.4424H82.1469V19.2998H84.0142Z" fill="white"/>
<path d="M86.7329 25.9697C86.7329 23.1211 88.4106 21.3311 91.0269 21.3311C93.6519 21.3311 95.3218 23.1211 95.3218 25.9697C95.3218 28.8262 93.6606 30.6084 91.0269 30.6084C88.394 30.6084 86.7329 28.8262 86.7329 25.9697ZM93.4282 25.9697C93.4282 24.0156 92.5327 22.8623 91.0268 22.8623C89.521 22.8623 88.6265 24.0244 88.6265 25.9697C88.6265 27.9316 89.521 29.0762 91.0268 29.0762C92.5327 29.0762 93.4282 27.9316 93.4282 25.9697H93.4282Z" fill="white"/>
<path d="M96.854 21.4424H98.6265V22.9834H98.6695C98.7894 22.5021 99.0713 22.0768 99.4679 21.7789C99.8645 21.481 100.352 21.3287 100.847 21.3476C101.061 21.3469 101.275 21.3702 101.484 21.417V23.1553C101.214 23.0726 100.932 23.0347 100.649 23.043C100.379 23.032 100.11 23.0796 99.86 23.1825C99.6101 23.2854 99.3855 23.4411 99.2015 23.639C99.0175 23.8369 98.8786 24.0723 98.7941 24.3289C98.7097 24.5856 98.6818 24.8575 98.7124 25.126V30.4961H96.854L96.854 21.4424Z" fill="white"/>
<path d="M110.052 27.8369C109.802 29.4805 108.202 30.6084 106.154 30.6084C103.52 30.6084 101.885 28.8437 101.885 26.0127C101.885 23.1729 103.529 21.3311 106.076 21.3311C108.581 21.3311 110.156 23.0518 110.156 25.7969V26.4336H103.761V26.5459C103.732 26.8791 103.773 27.2148 103.884 27.5306C103.994 27.8464 104.17 28.1352 104.4 28.3778C104.631 28.6203 104.91 28.8111 105.22 28.9374C105.529 29.0637 105.863 29.1226 106.197 29.1103C106.636 29.1515 107.077 29.0498 107.453 28.8203C107.83 28.5909 108.123 28.246 108.288 27.8369L110.052 27.8369ZM103.77 25.1348H108.296C108.313 24.8352 108.268 24.5354 108.163 24.2541C108.058 23.9729 107.897 23.7164 107.688 23.5006C107.48 23.2849 107.229 23.1145 106.951 23.0003C106.674 22.8861 106.376 22.8305 106.076 22.8369C105.773 22.8351 105.473 22.8933 105.193 23.008C104.913 23.1227 104.658 23.2918 104.444 23.5054C104.23 23.7191 104.06 23.973 103.944 24.2527C103.828 24.5323 103.769 24.8321 103.77 25.1348V25.1348Z" fill="white"/>
</svg>
