<svg width="32" height="32" viewBox="0 0 32 32" fill="none" xmlns="http://www.w3.org/2000/svg">
<path d="M0 12.8C0 8.31958 0 6.07937 0.871948 4.36808C1.63893 2.86278 2.86278 1.63893 4.36808 0.871948C6.07937 0 8.31958 0 12.8 0H19.2C23.6804 0 25.9206 0 27.6319 0.871948C29.1372 1.63893 30.3611 2.86278 31.1281 4.36808C32 6.07937 32 8.31958 32 12.8V19.2C32 23.6804 32 25.9206 31.1281 27.6319C30.3611 29.1372 29.1372 30.3611 27.6319 31.1281C25.9206 32 23.6804 32 19.2 32H12.8C8.31958 32 6.07937 32 4.36808 31.1281C2.86278 30.3611 1.63893 29.1372 0.871948 27.6319C0 25.9206 0 23.6804 0 19.2V12.8Z" fill="#0096FF"/>
<path d="M18.9635 18.1231L18.5839 18.5227C18.5839 18.5227 17.6818 19.4725 15.2193 16.8799C12.7568 14.2874 13.6589 13.3376 13.6589 13.3376L13.8979 13.0859C14.4867 12.466 14.5422 11.4708 14.0285 10.7443L12.9777 9.25801C12.3419 8.35875 11.1133 8.23996 10.3845 9.0072L9.07654 10.3843C8.71519 10.7647 8.47304 11.2579 8.50241 11.8049C8.57753 13.2045 9.1756 16.2159 12.5128 19.7293C16.0518 23.4552 19.3724 23.6033 20.7302 23.4692C21.1597 23.4269 21.5333 23.1952 21.8343 22.8783L23.0181 21.632C23.8171 20.7908 23.5918 19.3485 22.5694 18.76L20.9774 17.8436C20.306 17.4572 19.4881 17.5707 18.9635 18.1231Z" fill="white"/>
<path d="M17.0495 7.56685C17.1047 7.22611 17.4268 6.99496 17.7676 7.05013C17.7886 7.05417 17.8565 7.06685 17.8921 7.07477C17.9632 7.09061 18.0624 7.11499 18.186 7.15101C18.4333 7.22304 18.7789 7.34171 19.1935 7.53183C20.0238 7.91246 21.1286 8.57829 22.2751 9.72479C23.4216 10.8713 24.0874 11.9761 24.4681 12.8064C24.6582 13.221 24.7769 13.5666 24.8489 13.8139C24.8849 13.9375 24.9093 14.0367 24.9251 14.1078C24.9331 14.1434 24.9388 14.1719 24.9429 14.193L24.9477 14.219C25.0028 14.5598 24.7738 14.8952 24.4331 14.9504C24.0933 15.0054 23.7732 14.7753 23.7167 14.4362C23.7149 14.4271 23.7102 14.4026 23.705 14.3796C23.6947 14.3334 23.677 14.2602 23.6488 14.1634C23.5924 13.9698 23.4944 13.682 23.3318 13.3273C23.0069 12.6187 22.4228 11.6402 21.3912 10.6087C20.3597 9.57713 19.3812 8.99296 18.6726 8.6681C18.3179 8.50547 18.0301 8.40753 17.8365 8.35114C17.7397 8.32294 17.618 8.29502 17.5719 8.28474C17.2327 8.22822 16.9945 7.90662 17.0495 7.56685Z" fill="white"/>
<path fill-rule="evenodd" clip-rule="evenodd" d="M17.2381 10.4414C17.3329 10.1095 17.6788 9.91733 18.0107 10.0122L17.839 10.6131C18.0107 10.0122 18.0107 10.0122 18.0107 10.0122L18.0119 10.0125L18.0132 10.0129L18.016 10.0137L18.0224 10.0156L18.0389 10.0207C18.0515 10.0248 18.0672 10.03 18.0859 10.0366C18.1233 10.0499 18.1728 10.0688 18.2335 10.0948C18.3549 10.1468 18.5208 10.2272 18.7245 10.3478C19.1324 10.5892 19.6892 10.9902 20.3434 11.6443C20.9975 12.2984 21.3985 12.8553 21.6399 13.2632C21.7605 13.4669 21.8408 13.6328 21.8929 13.7542C21.9189 13.8149 21.9378 13.8643 21.951 13.9018C21.9577 13.9205 21.9629 13.9362 21.9669 13.9487L21.9721 13.9652L21.974 13.9717L21.9748 13.9745L21.9752 13.9757C21.9752 13.9757 21.9755 13.9769 21.3746 14.1486L21.9755 13.9769C22.0703 14.3088 21.8782 14.6548 21.5463 14.7496C21.2172 14.8436 20.8743 14.6555 20.7761 14.3288L20.773 14.3198C20.7686 14.3073 20.7594 14.2826 20.7439 14.2466C20.7131 14.1747 20.6572 14.057 20.5642 13.8998C20.3784 13.5859 20.0428 13.1115 19.4595 12.5282C18.8762 11.9449 18.4018 11.6093 18.0879 11.4235C17.9307 11.3305 17.813 11.2746 17.7411 11.2437C17.7051 11.2283 17.6804 11.2191 17.6679 11.2147L17.6589 11.2116C17.3322 11.1134 17.1441 10.7705 17.2381 10.4414Z" fill="white"/>
</svg>
