<svg width="24" height="24" viewBox="0 0 24 24" fill="none" xmlns="http://www.w3.org/2000/svg">
<path d="M22.5129 9.16055C22.4967 9.14194 22.483 9.12381 22.4639 9.10569L21.6229 8.29407C22.3204 8.13586 23.0713 7.5515 23.0713 6.95197C23.0713 6.25349 22.1019 6.00565 21.2746 6.00565C20.4096 6.00565 20.3092 6.59832 20.2989 7.01712L18.1289 4.92511C17.6881 4.48869 16.852 4.14532 16.227 4.14532H12.0007H11.9998H7.77256C7.14803 4.14532 6.31239 4.48869 5.87105 4.92511L3.70161 7.01712C3.69035 6.59832 3.58993 6.00565 2.72588 6.00565C1.89759 6.00565 0.92871 6.25349 0.92871 6.95197C0.92871 7.5515 1.6801 8.13586 2.37761 8.29407L1.53658 9.10569C1.51748 9.12381 1.50426 9.14194 1.4876 9.16055C0.587791 9.92956 0 11.3559 0 12.3909V15.4664C0 16.2129 0.294385 16.8903 0.770006 17.3953V18.588C0.770006 19.2855 1.35388 19.8542 2.07196 19.8542H3.64626C4.36435 19.8542 4.94773 19.2865 4.94773 18.588V18.2829H11.9998H12.0007H19.0523V18.588C19.0523 19.2865 19.6352 19.8542 20.3542 19.8542H21.928C22.6466 19.8542 23.2295 19.2855 23.2295 18.588V17.3953C23.7056 16.8903 23.9995 16.2129 23.9995 15.4664V12.3909C24.0005 11.3559 23.4127 9.92956 22.5129 9.16055ZM6.668 5.85478C6.97316 5.60057 7.50658 5.40758 7.77256 5.40758H11.9998H12.0007H16.2279C16.4939 5.40758 17.0273 5.60057 17.3325 5.85478L20.1779 8.61245H12.0007H11.9998H3.82309L6.668 5.85478ZM0.976223 11.9256C0.976223 11.1683 1.56891 10.5536 2.30071 10.5536C3.03202 10.5536 5.42188 11.9564 5.42188 12.7137C5.42188 13.4709 3.03202 13.2956 2.30071 13.2956C1.56891 13.2956 0.976223 12.6833 0.976223 11.9256ZM4.94822 16.9344H4.69596H4.4437L2.94728 16.9369C2.53191 16.8076 2.23899 16.6567 2.0318 16.4946C1.92697 16.4128 1.84664 16.3275 1.78395 16.2428C1.72076 16.1571 1.67471 16.0728 1.64484 15.9886C1.4587 15.4625 1.84321 14.9791 1.84321 14.9791H4.39717L6.0998 16.9334L4.94822 16.9344ZM15.6725 16.9354H12.0007H11.9998H8.32802C7.56242 16.9354 6.94083 16.3138 6.94083 15.5487H11.9998H12.0007H17.0597C17.0597 16.3148 16.4381 16.9354 15.6725 16.9354ZM15.9948 14.6024H12.0007H11.9998H8.00571C7.17301 14.6024 6.49705 13.5758 6.49705 12.3096H11.9998H12.0007H17.5034C17.5034 13.5762 16.8275 14.6024 15.9948 14.6024ZM22.3561 15.9896C22.3258 16.0738 22.2797 16.1581 22.2165 16.2433C22.1543 16.328 22.074 16.4133 21.9687 16.4951C21.762 16.6572 21.4686 16.809 21.0532 16.9374L19.5568 16.9349H19.3045H19.0523H17.8997L19.6033 14.9805H22.1568C22.1568 14.9805 22.5418 15.4625 22.3561 15.9896ZM21.6998 13.2956C20.969 13.2956 18.5791 13.47 18.5791 12.7137C18.5791 11.9574 20.969 10.5536 21.6998 10.5536C22.4316 10.5536 23.0243 11.1683 23.0243 11.9256C23.0243 12.6823 22.4316 13.2956 21.6998 13.2956Z" fill="#065C73"/>
</svg>
