<svg width="28" height="29" viewBox="0 0 28 29" fill="none" xmlns="http://www.w3.org/2000/svg">
<path fill-rule="evenodd" clip-rule="evenodd" d="M9.49203 2.36956C9.74815 2.77936 9.62357 3.31919 9.21377 3.57531L4.54708 6.49197C4.13729 6.7481 3.59745 6.62352 3.34133 6.21372C3.08521 5.80393 3.20979 5.2641 3.61959 5.00798L8.28628 2.09131C8.69607 1.83519 9.23591 1.95977 9.49203 2.36956ZM18.508 2.36956C18.7641 1.95976 19.304 1.83519 19.7137 2.09131L24.3804 5.00798C24.7902 5.2641 24.9148 5.80393 24.6587 6.21372C24.4025 6.62352 23.8627 6.7481 23.4529 6.49197L18.7863 3.57531C18.3765 3.31919 18.2519 2.77935 18.508 2.36956ZM14 6.04164C8.68426 6.04164 4.375 10.3509 4.375 15.6666C4.375 20.9824 8.68426 25.2916 14 25.2916C19.3157 25.2916 23.625 20.9824 23.625 15.6666C23.625 10.3509 19.3157 6.04164 14 6.04164ZM2.625 15.6666C2.625 9.3844 7.71776 4.29164 14 4.29164C20.2822 4.29164 25.375 9.3844 25.375 15.6666C25.375 21.9489 20.2822 27.0416 14 27.0416C7.71776 27.0416 2.625 21.9489 2.625 15.6666ZM14 10.125C14.4832 10.125 14.875 10.5167 14.875 11V15.3042L17.5354 17.9646C17.8771 18.3063 17.8771 18.8603 17.5354 19.202C17.1937 19.5437 16.6397 19.5437 16.2979 19.202L13.3813 16.2854C13.2172 16.1213 13.125 15.8987 13.125 15.6666V11C13.125 10.5167 13.5168 10.125 14 10.125Z" fill="#065C73"/>
</svg>
