<svg width="32" height="32" viewBox="0 0 32 32" fill="none" xmlns="http://www.w3.org/2000/svg">
<path fill-rule="evenodd" clip-rule="evenodd" d="M14.591 7.87502H17.4089C17.5892 7.8749 17.7463 7.8748 17.8947 7.89849C18.4808 7.99208 18.9879 8.35762 19.262 8.88403C19.3314 9.01727 19.381 9.16634 19.4379 9.33745L19.5309 9.61654C19.5467 9.66378 19.5512 9.67715 19.555 9.68768C19.7009 10.0911 20.0793 10.3638 20.5082 10.3747C20.5195 10.375 20.5333 10.375 20.5833 10.375H23.0833C23.4285 10.375 23.7083 10.6549 23.7083 11C23.7083 11.3452 23.4285 11.625 23.0833 11.625H8.91656C8.57139 11.625 8.29156 11.3452 8.29156 11C8.29156 10.6549 8.57139 10.375 8.91656 10.375H11.4166C11.4667 10.375 11.4805 10.375 11.4918 10.3747C11.9206 10.3638 12.299 10.0911 12.4449 9.6877C12.4488 9.67709 12.4532 9.66401 12.469 9.61654L12.562 9.33747C12.6189 9.16637 12.6685 9.01728 12.7379 8.88403C13.012 8.35762 13.5192 7.99208 14.1053 7.89849C14.2536 7.8748 14.4107 7.8749 14.591 7.87502ZM13.5067 10.375C13.5496 10.2908 13.5877 10.2034 13.6204 10.1129C13.6303 10.0854 13.6401 10.0562 13.6526 10.0186L13.7358 9.7691C13.8117 9.54118 13.8292 9.49469 13.8466 9.46137C13.9379 9.2859 14.107 9.16405 14.3024 9.13285C14.3395 9.12693 14.3891 9.12503 14.6294 9.12503H17.3706C17.6108 9.12503 17.6605 9.12693 17.6976 9.13285C17.8929 9.16405 18.062 9.2859 18.1534 9.46137C18.1707 9.49469 18.1882 9.54117 18.2642 9.7691L18.3473 10.0185L18.3796 10.1129C18.4123 10.2034 18.4503 10.2909 18.4932 10.375H13.5067Z" fill="#FF3B30"/>
<path d="M10.9291 13.0418C10.9062 12.6974 10.6084 12.4368 10.2639 12.4597C9.91954 12.4827 9.65895 12.7805 9.68191 13.1249L10.0681 18.9181C10.1394 19.987 10.1969 20.8505 10.3319 21.528C10.4722 22.2324 10.7109 22.8208 11.2039 23.2821C11.6969 23.7433 12.2999 23.9423 13.0121 24.0355C13.6971 24.1251 14.5624 24.125 15.6337 24.125H16.3661C17.4374 24.125 18.3029 24.1251 18.9879 24.0355C19.7001 23.9423 20.303 23.7433 20.796 23.2821C21.289 22.8208 21.5277 22.2324 21.668 21.528C21.803 20.8505 21.8606 19.987 21.9318 18.9181L22.318 13.1249C22.341 12.7805 22.0804 12.4827 21.736 12.4597C21.3916 12.4368 21.0938 12.6974 21.0708 13.0418L20.6875 18.7911C20.6126 19.9143 20.5593 20.6958 20.4421 21.2838C20.3285 21.8542 20.1699 22.1561 19.9421 22.3692C19.7142 22.5824 19.4024 22.7206 18.8257 22.796C18.2312 22.8738 17.4479 22.875 16.3222 22.875H15.6777C14.552 22.875 13.7687 22.8738 13.1742 22.796C12.5975 22.7206 12.2857 22.5824 12.0579 22.3692C11.83 22.1561 11.6714 21.8542 11.5578 21.2838C11.4407 20.6958 11.3873 19.9143 11.3124 18.7911L10.9291 13.0418Z" fill="#FF3B30"/>
<path d="M13.8545 14.5448C14.1979 14.5105 14.5042 14.761 14.5385 15.1045L14.9552 19.2712C14.9896 19.6146 14.739 19.9209 14.3955 19.9553C14.052 19.9896 13.7458 19.739 13.7114 19.3956L13.2947 15.2289C13.2604 14.8854 13.511 14.5791 13.8545 14.5448Z" fill="#FF3B30"/>
<path d="M18.1455 14.5448C18.489 14.5791 18.7396 14.8854 18.7052 15.2289L18.2885 19.3956C18.2542 19.739 17.9479 19.9896 17.6045 19.9553C17.261 19.9209 17.0104 19.6146 17.0447 19.2712L17.4614 15.1045C17.4958 14.761 17.802 14.5105 18.1455 14.5448Z" fill="#FF3B30"/>
</svg>
