<svg width="110" height="105" viewBox="0 0 110 105" fill="none" xmlns="http://www.w3.org/2000/svg">
<g clip-path="url(#clip0_161_3212)">
<path d="M95.4183 92.0533C83.0954 104.523 27.1493 104.156 16.5145 94.4244C2.40524 81.5145 -6.83588 36.4016 6.39195 23.6156C26.1483 4.51867 96.7885 5.86322 106.57 26.9898C112.658 40.0959 108.258 79.0474 95.4205 92.0554L95.4183 92.0533Z" fill="#065C73"/>
<path d="M85.5048 27.1968H24.9253L30.2245 80.6203C30.5468 84.035 32.9563 87.4071 37.5129 90.0236C47.2811 95.6558 63.1319 95.6558 72.9002 90.0236C77.4354 87.4114 79.8662 84.0457 80.1885 80.6203L85.5048 27.1968Z" fill="#4A57C8"/>
<path d="M55.2037 33.1129C71.9615 33.1129 85.5436 30.3812 85.5436 27.0048C85.5436 23.6285 71.9786 20.8967 55.2037 20.8967C38.4288 20.8967 24.8638 23.6285 24.8638 27.0048C24.8638 30.3812 38.4629 33.1129 55.2037 33.1129Z" fill="#5F71E0"/>
<path d="M55.2036 32.082C47.5268 32.082 40.3538 31.4865 34.9884 30.4109C30.0711 29.4164 27.3394 28.1486 27.3394 26.8425C27.3394 25.5364 30.0711 24.2687 34.9884 23.2741C40.3474 22.1814 47.5226 21.603 55.2036 21.603C62.8846 21.603 70.0534 22.1985 75.4188 23.2741C80.336 24.2687 83.0678 25.5364 83.0678 26.8425C83.0678 28.1486 80.336 29.4164 75.4188 30.4109C70.0598 31.4865 62.8846 32.082 55.2036 32.082Z" fill="#343C7E"/>
<path d="M82.1028 8.91523C81.7485 12.7675 81.1531 20.5637 80.1308 29.1411C78.9121 29.5936 77.3328 30.0204 75.4206 30.4088C72.994 30.8954 70.1982 31.2839 67.1441 31.5613C66.6746 31.604 66.1944 31.6488 65.7014 31.6872C64.4934 31.7811 63.2535 31.8622 61.9815 31.922C61.4415 31.9497 60.8952 31.9711 60.336 31.9882C58.6649 32.0479 56.949 32.0821 55.2054 32.0821C52.6977 32.0821 50.2455 32.0159 47.8893 31.8964C46.7902 31.8409 45.7209 31.7705 44.6709 31.683C44.6773 31.6766 44.6773 31.6723 44.6773 31.6659C44.8075 30.9616 44.9227 30.3213 45.0166 29.7707C45.0444 29.6171 45.0721 29.4655 45.0977 29.2948C45.3218 27.8585 45.5459 25.8737 45.7636 23.6669C45.8298 23.0394 45.8895 22.3949 45.9493 21.7376C46.1136 19.9448 46.2716 18.0817 46.4081 16.2911C46.4402 15.892 46.4743 15.4929 46.5063 15.1044C46.6536 13.2135 46.7795 11.4549 46.8883 10.0229C46.9588 9.04969 47.0249 8.23015 47.074 7.61977C47.0847 7.50452 47.1124 7.39568 47.1508 7.2911C47.3301 6.79383 47.8061 6.45449 48.3588 6.47156L63.9791 6.99018L80.9055 7.55361C81.6269 7.58135 82.1839 8.19387 82.1028 8.9131V8.91523Z" fill="url(#paint0_linear_161_3212)"/>
<path opacity="0.2" d="M63.552 27.1178C68.1469 27.2714 71.9992 23.6689 72.1507 19.0739C72.3044 14.479 68.7018 10.6289 64.1069 10.4752C59.5119 10.3215 55.6618 13.9241 55.5082 18.519C55.3545 23.114 58.957 26.9641 63.552 27.1178Z" fill="#4751AB"/>
<g opacity="0.8">
<path d="M66.5957 24.5226L60.7075 24.3263C59.7791 24.2943 59.0428 23.5089 59.0727 22.5805L59.1068 21.5774C59.1538 20.1667 60.3254 19.0697 61.7361 19.1167L65.9149 19.2554C67.3278 19.3024 68.4226 20.474 68.3757 21.8848L68.3415 22.8878C68.3095 23.8162 67.5241 24.5525 66.5957 24.5226Z" fill="url(#paint1_linear_161_3212)"/>
<path d="M63.8469 18.312C65.2726 18.359 66.4677 17.2428 66.5147 15.8171C66.5616 14.3915 65.4433 13.1963 64.0198 13.1494C62.5941 13.1024 61.399 14.2186 61.352 15.6443C61.3051 17.0699 62.4234 18.2651 63.849 18.312H63.8469Z" fill="url(#paint2_linear_161_3212)"/>
</g>
<path d="M65.7013 31.6871C64.4933 31.781 63.2533 31.8621 61.9813 31.9219C61.4414 31.9496 60.895 31.971 60.3359 31.9881C58.6648 32.0478 56.9489 32.082 55.2052 32.082C52.6975 32.082 50.2453 32.0158 47.8892 31.8963C48.0428 31.4374 48.4846 31.1152 48.9883 31.1322L65.7013 31.6893V31.6871Z" fill="#ACD6E8"/>
<path d="M67.1441 31.5634C66.6746 31.6061 66.1944 31.6509 65.7014 31.6893C64.4934 31.7832 63.2534 31.8643 61.9815 31.9241C61.4415 31.9518 60.8951 31.9732 60.336 31.9903C58.6649 32.05 56.949 32.0842 55.2053 32.0842C52.6977 32.0842 50.2454 32.018 47.8893 31.8985C46.7902 31.843 45.7209 31.7726 44.6709 31.6851C44.6538 31.6851 44.6431 31.6851 44.6282 31.6787C42.1632 31.4866 39.8412 31.2262 37.7219 30.8911C36.7658 30.7439 35.8523 30.586 34.9901 30.4109C33.9294 30.1975 32.9733 29.9692 32.1217 29.7344C31.5434 24.162 29.4454 12.5562 28.8159 8.84263C28.7113 8.18103 29.1274 7.55784 29.7826 7.41698L61.6101 0.529887C62.3208 0.376224 63.008 0.835079 63.1062 1.55644C63.3196 2.92234 63.6248 4.77483 63.9812 6.99227C64.1498 8.07858 64.3355 9.24813 64.5276 10.4945C64.6706 11.4122 64.8178 12.3747 64.9651 13.3629C65.1721 14.7501 65.3855 16.2035 65.5925 17.7017C65.663 18.2161 65.7355 18.7283 65.806 19.2533C66.0365 20.9692 66.2648 22.7278 66.4782 24.5141C66.5209 24.9132 66.5721 25.3059 66.6148 25.705L66.713 26.6057C66.8923 28.3109 67.0289 29.9713 67.1441 31.5613V31.5634Z" fill="url(#paint3_linear_161_3212)"/>
<path opacity="0.2" d="M49.5519 23.7308C54.0465 22.7598 56.9021 18.327 55.931 13.8324C54.96 9.33773 50.5272 6.48215 46.0326 7.45322C41.5379 8.42428 38.6823 12.857 39.6534 17.3517C40.6245 21.8463 45.0572 24.7019 49.5519 23.7308Z" fill="#4751AB"/>
<g opacity="0.8">
<path d="M51.8697 20.4721L46.1116 21.7163C45.2024 21.9127 44.2975 21.33 44.1011 20.4209L43.8899 19.4391C43.5911 18.0583 44.4597 16.7116 45.8405 16.4128L49.9275 15.5293C51.3084 15.2305 52.6551 16.0991 52.9538 17.4799L53.1651 18.4617C53.3615 19.3708 52.7767 20.2757 51.8697 20.4721Z" fill="url(#paint4_linear_161_3212)"/>
<path d="M47.6886 15.1216C49.0822 14.8206 49.97 13.4441 49.667 12.0504C49.3661 10.6568 47.9895 9.76897 46.5959 10.072C45.2022 10.3751 44.3144 11.7495 44.6174 13.1432C44.9184 14.5368 46.2949 15.4246 47.6886 15.1216Z" fill="url(#paint5_linear_161_3212)"/>
</g>
<path d="M53.2609 29.8133L44.6771 31.6658L44.628 31.6765C42.163 31.4844 39.8409 31.224 37.7217 30.889L45.0975 29.2926L52.7892 27.6321C53.391 27.502 53.9865 27.884 54.1124 28.4837C54.2426 29.0855 53.8606 29.681 53.2609 29.8112V29.8133Z" fill="#ACD6E8"/>
<path d="M61.9814 31.924C61.4415 31.9518 60.8951 31.9731 60.3359 31.9902L61.2046 31.8045C61.4777 31.7448 61.7509 31.7938 61.9814 31.924Z" fill="#ACD6E8"/>
<g opacity="0.5">
<g opacity="0.5">
<path d="M40.949 83.3073C39.6215 82.7482 38.3431 82.0823 37.1245 81.314C36.6656 81.0237 36.2345 80.7399 35.8184 80.4283C35.1141 79.9097 34.5016 78.373 34.4034 77.0626L31.4048 39.4728C31.3066 38.1496 31.7164 37.8828 32.6768 38.2435C33.4473 38.5337 37.3102 39.396 38.9983 40.0896C39.6087 40.382 40.1316 40.828 40.5158 41.3851C40.8999 41.9421 41.1304 42.5909 41.1838 43.2653L42.9424 81.7067C42.985 83.0448 42.0908 83.7875 40.949 83.3073Z" fill="#4751AB"/>
</g>
</g>
<g opacity="0.5">
<g opacity="0.5">
<path d="M67.518 81.7067L69.2766 43.2653C69.3342 42.5909 69.5647 41.9442 69.9488 41.3872C70.3309 40.8302 70.8537 40.3841 71.462 40.0896C73.1565 39.396 77.0131 38.5316 77.7835 38.2435C78.7503 37.8828 79.1558 38.1496 79.0619 39.4728L76.0569 77.0626C75.963 78.373 75.3462 79.9097 74.6419 80.4283C74.2258 80.7399 73.7947 81.0237 73.3422 81.314C72.115 82.0844 70.8238 82.7503 69.4857 83.3073C68.3546 83.7875 67.4582 83.0448 67.518 81.7067Z" fill="#4751AB"/>
</g>
</g>
<g opacity="0.5">
<g opacity="0.5">
<path d="M59.8857 43.0582L59.2839 83.1941C59.2839 84.5878 58.2616 85.8277 57.0494 85.8875C55.8371 85.9472 54.6014 85.9472 53.3785 85.8875C52.1556 85.8277 51.1931 84.5878 51.144 83.1941L50.5977 43.0582C50.5977 41.6645 51.5431 40.6423 52.7553 40.7148C54.4158 40.8194 56.0826 40.8194 57.743 40.7148C58.9403 40.6444 59.9007 41.6645 59.8857 43.0582Z" fill="#4751AB"/>
</g>
</g>
<path d="M101.8 11.7324C99.2813 11.7324 97.2282 13.7855 97.2282 16.3038C97.2282 13.7855 95.1751 11.7324 92.6567 11.7324C95.1751 11.7324 97.2282 9.67926 97.2282 7.16089C97.2282 9.67926 99.2835 11.7324 101.8 11.7324Z" fill="#FEA13A"/>
<path d="M16.1732 44.6674C13.0188 44.6674 10.477 47.2114 10.477 50.3636C10.477 47.2092 7.93512 44.6674 4.78076 44.6674C7.93512 44.6674 10.477 42.1234 10.477 38.9712C10.477 42.0999 13.0209 44.6674 16.1732 44.6674Z" fill="#FEA13A"/>
<path d="M64.8051 97.7261C61.0638 97.7261 58.0333 100.759 58.0333 104.498C58.0333 100.757 55.0005 97.7261 51.2593 97.7261C55.0005 97.7261 58.0333 94.6934 58.0333 90.9521C58.0333 94.6934 61.066 97.7261 64.8051 97.7261Z" fill="#FEA13A"/>
<path d="M86.3244 93.6945C96.7351 93.6945 105.174 85.2559 105.174 74.8452C105.174 64.4345 96.7351 55.9958 86.3244 55.9958C75.9138 55.9958 67.4751 64.4345 67.4751 74.8452C67.4751 85.2559 75.9138 93.6945 86.3244 93.6945Z" fill="url(#paint6_linear_161_3212)"/>
<path d="M78.1716 66.6967C76.9786 67.8961 76.9786 69.8425 78.1716 71.0419L82.0025 74.8942L78.2719 78.6461C77.0789 79.8455 77.0789 81.7919 78.2719 82.9914C79.465 84.1908 81.4007 84.1908 82.5937 82.9914L86.3243 79.2394L90.0549 82.9914C91.2479 84.1908 93.1836 84.1908 94.3767 82.9914C95.5697 81.7919 95.5697 79.8455 94.3767 78.6461L90.6461 74.8942L94.477 71.0419C95.67 69.8425 95.67 67.8961 94.477 66.6967C93.284 65.4973 91.3482 65.4973 90.1552 66.6967L86.3243 70.5489L82.4934 66.6967C81.3004 65.4973 79.3646 65.4973 78.1716 66.6967Z" fill="white"/>
</g>
<defs>
<linearGradient id="paint0_linear_161_3212" x1="65.187" y1="21.5476" x2="87.3764" y2="41.1909" gradientUnits="userSpaceOnUse">
<stop stop-color="#C9E9FE"/>
<stop offset="1" stop-color="white"/>
</linearGradient>
<linearGradient id="paint1_linear_161_3212" x1="65.3024" y1="20.1198" x2="59.508" y2="27.3718" gradientUnits="userSpaceOnUse">
<stop stop-color="#4A57CD"/>
<stop offset="0.84" stop-color="#4751AB"/>
</linearGradient>
<linearGradient id="paint2_linear_161_3212" x1="64.31" y1="15.0424" x2="61.8258" y2="19.5819" gradientUnits="userSpaceOnUse">
<stop stop-color="#4A57CD"/>
<stop offset="0.84" stop-color="#4751AB"/>
</linearGradient>
<linearGradient id="paint3_linear_161_3212" x1="44.1373" y1="9.16703" x2="65.4197" y2="48.3042" gradientUnits="userSpaceOnUse">
<stop stop-color="#C9E9FE"/>
<stop offset="1" stop-color="white"/>
</linearGradient>
<linearGradient id="paint4_linear_161_3212" x1="49.5412" y1="16.5174" x2="45.689" y2="24.9646" gradientUnits="userSpaceOnUse">
<stop stop-color="#4A57CD"/>
<stop offset="0.84" stop-color="#4751AB"/>
</linearGradient>
<linearGradient id="paint5_linear_161_3212" x1="47.3407" y1="11.837" x2="46.0367" y2="16.8439" gradientUnits="userSpaceOnUse">
<stop stop-color="#4A57CD"/>
<stop offset="0.84" stop-color="#4751AB"/>
</linearGradient>
<linearGradient id="paint6_linear_161_3212" x1="83.55" y1="98.648" x2="89.9419" y2="43.8245" gradientUnits="userSpaceOnUse">
<stop stop-color="#FF0017"/>
<stop offset="0.41" stop-color="#FF5060"/>
<stop offset="0.84" stop-color="#FF7783"/>
</linearGradient>
<clipPath id="clip0_161_3212">
<rect width="109.271" height="104" fill="white" transform="translate(0 0.5)"/>
</clipPath>
</defs>
</svg>
