<svg width="20" height="20" viewBox="0 0 20 20" fill="none" xmlns="http://www.w3.org/2000/svg">
<path fill-rule="evenodd" clip-rule="evenodd" d="M9.12102 1.04169H10.8791C12.0188 1.04167 12.9374 1.04166 13.6599 1.13879C14.41 1.23964 15.0415 1.45538 15.5431 1.95698C15.7918 2.2057 15.9703 2.48638 16.0993 2.79762C16.876 2.89492 17.5281 3.10863 18.0431 3.62369C18.5447 4.12529 18.7605 4.75685 18.8613 5.50694C18.9584 6.22941 18.9584 7.14801 18.9584 8.28767V11.7125C18.9584 12.8521 18.9584 13.7707 18.8613 14.4932C18.7605 15.2433 18.5447 15.8748 18.0431 16.3764C17.5281 16.8915 16.876 17.1052 16.0992 17.2025C15.9703 17.5137 15.7918 17.7944 15.5431 18.0431C15.0415 18.5447 14.41 18.7604 13.6599 18.8613C12.9374 18.9584 12.0188 18.9584 10.8791 18.9584H9.12102C7.98136 18.9584 7.06276 18.9584 6.34029 18.8613C5.5902 18.7604 4.95864 18.5447 4.45704 18.0431C4.20834 17.7944 4.02991 17.5137 3.90092 17.2025C3.1242 17.1052 2.4721 16.8915 1.95704 16.3764C1.45544 15.8748 1.2397 15.2433 1.13885 14.4932C1.04172 13.7707 1.04173 12.8521 1.04175 11.7125V8.28767C1.04173 7.14801 1.04172 6.22941 1.13885 5.50694C1.2397 4.75685 1.45544 4.12529 1.95704 3.62369C2.4721 3.10863 3.12418 2.89492 3.90088 2.79762C4.02988 2.48638 4.20832 2.2057 4.45704 1.95698C4.95864 1.45538 5.5902 1.23964 6.34029 1.13879C7.06276 1.04166 7.98136 1.04167 9.12102 1.04169ZM3.60711 4.11708C3.24243 4.20496 3.01509 4.33341 2.84092 4.50757C2.61029 4.73821 2.45992 5.06202 2.3777 5.6735C2.29308 6.30296 2.29175 7.13722 2.29175 8.3334V11.6667C2.29175 12.8629 2.29308 13.6972 2.3777 14.3266C2.45992 14.9381 2.61029 15.2619 2.84092 15.4926C3.01509 15.6667 3.24244 15.7952 3.60712 15.8831C3.54172 15.207 3.54173 14.378 3.54175 13.3791V6.62096C3.54173 5.62212 3.54172 4.79309 3.60711 4.11708ZM16.393 15.8831C16.7577 15.7952 16.9851 15.6667 17.1592 15.4926C17.3899 15.2619 17.5402 14.9381 17.6225 14.3266C17.7071 13.6972 17.7084 12.8629 17.7084 11.6667V8.3334C17.7084 7.13722 17.7071 6.30296 17.6225 5.6735C17.5402 5.06202 17.3899 4.73821 17.1592 4.50757C16.9851 4.33341 16.7577 4.20497 16.3931 4.11708C16.4584 4.7931 16.4584 5.62213 16.4584 6.62096V13.3791C16.4584 14.378 16.4584 15.207 16.393 15.8831ZM6.50685 2.37764C5.89537 2.45986 5.57156 2.61023 5.34092 2.84086C5.11029 3.0715 4.95992 3.39531 4.8777 4.00679C4.79308 4.63625 4.79175 5.47051 4.79175 6.66669V13.3334C4.79175 14.5295 4.79308 15.3638 4.8777 15.9933C4.95992 16.6047 5.11029 16.9285 5.34092 17.1592C5.57156 17.3898 5.89537 17.5402 6.50685 17.6224C7.13631 17.707 7.97057 17.7084 9.16675 17.7084H10.8334C12.0296 17.7084 12.8639 17.707 13.4933 17.6224C14.1048 17.5402 14.4286 17.3898 14.6592 17.1592C14.8899 16.9285 15.0402 16.6047 15.1225 15.9933C15.2071 15.3638 15.2084 14.5295 15.2084 13.3334V6.66669C15.2084 5.47051 15.2071 4.63625 15.1225 4.00679C15.0402 3.39531 14.8899 3.0715 14.6592 2.84086C14.4286 2.61023 14.1048 2.45986 13.4933 2.37764C12.8639 2.29302 12.0296 2.29169 10.8334 2.29169H9.16675C7.97057 2.29169 7.13631 2.29302 6.50685 2.37764ZM6.87508 7.50002C6.87508 7.15484 7.1549 6.87502 7.50008 6.87502H12.5001C12.8453 6.87502 13.1251 7.15484 13.1251 7.50002C13.1251 7.8452 12.8453 8.12502 12.5001 8.12502H7.50008C7.1549 8.12502 6.87508 7.8452 6.87508 7.50002ZM6.87508 10.8334C6.87508 10.4882 7.1549 10.2084 7.50008 10.2084H12.5001C12.8453 10.2084 13.1251 10.4882 13.1251 10.8334C13.1251 11.1785 12.8453 11.4584 12.5001 11.4584H7.50008C7.1549 11.4584 6.87508 11.1785 6.87508 10.8334ZM6.87508 14.1667C6.87508 13.8215 7.1549 13.5417 7.50008 13.5417H10.0001C10.3453 13.5417 10.6251 13.8215 10.6251 14.1667C10.6251 14.5119 10.3453 14.7917 10.0001 14.7917H7.50008C7.1549 14.7917 6.87508 14.5119 6.87508 14.1667Z" fill="#065C73"/>
</svg>
