<svg width="80" height="80" viewBox="0 0 80 80" fill="none" xmlns="http://www.w3.org/2000/svg">
<g clip-path="url(#clip0_237_9324)">
<path d="M74.0563 31.8017L74.1164 19.3375L80 20.1411L73.2403 18.7818C73.1716 18.9186 73.1029 19.0554 73.0342 19.1921L73.5152 19.2605L74.0563 31.8102V31.8017Z" fill="#065C73"/>
<path d="M11.3979 21.4063V22.1757L24.883 21.791L11.3979 21.4063Z" fill="#065C73"/>
<path d="M72.6391 35.6145L43.4529 34.657L43.4271 35.6828L72.6391 35.6145Z" fill="#065C73"/>
<path d="M10.9083 22.3381V23.116L24.883 22.7314L10.9083 22.3381Z" fill="#065C73"/>
<path d="M16.6889 30.2287C20.1074 30.2543 23.4744 30.2971 24.1787 30.3484C25.7076 30.4595 26.1284 29.5362 26.1284 29.5362C26.1284 29.5362 26.5837 26.9887 26.8929 25.1336C27.2021 23.2785 25.364 23.3127 25.364 23.3127C25.364 23.3127 21.7479 23.3298 18.2092 23.3725L16.6803 30.2372L16.6889 30.2287Z" fill="#065C73"/>
<path d="M12.2827 36.6745L7.43835 36.4693L7.46412 37.0079L12.2397 36.9053C12.2569 36.8284 12.2655 36.7514 12.2827 36.6745Z" fill="#065C73"/>
<path d="M69.9334 25.031L69.8733 25.0224L69.9334 25.031Z" fill="#065C73"/>
<path d="M65.3983 32.2804C65.3382 32.3659 65.2866 32.4514 65.2351 32.5283L72.639 32.5882L65.3983 32.2804Z" fill="#065C73"/>
<path d="M17.6508 23.3725C14.7305 23.4067 11.9991 23.458 11.5525 23.5264C11.1316 23.5862 10.7021 23.8 10.3414 24.0222L8.6665 30.1859C8.6665 30.1859 12.3599 30.203 16.1649 30.2287L17.6508 23.3811V23.3725Z" fill="#065C73"/>
<path d="M12.1537 37.4354L7.4812 37.2302L7.50697 37.7688L12.1108 37.6747C12.128 37.5978 12.1366 37.5123 12.1537 37.4354Z" fill="#065C73"/>
<path d="M11.7071 40.4702L7.64441 40.2907L7.67018 40.8036L11.6813 40.7181C11.6899 40.6326 11.6985 40.5471 11.7157 40.4616L11.7071 40.4702Z" fill="#065C73"/>
<path d="M11.8102 39.7093L7.60144 39.5298L7.62721 40.0513L11.7672 39.9658C11.7758 39.8803 11.793 39.7948 11.8016 39.7179L11.8102 39.7093Z" fill="#065C73"/>
<path d="M12.025 38.1962L7.51562 37.9996L7.54139 38.5296L11.982 38.4356C11.9906 38.3501 12.0078 38.2731 12.0164 38.1962H12.025Z" fill="#065C73"/>
<path d="M11.9133 38.9485L7.55859 38.7604L7.58436 39.2819L11.8704 39.1964C11.879 39.1109 11.8961 39.034 11.9047 38.9485H11.9133Z" fill="#065C73"/>
<path d="M10.8826 34.0842C13.6311 34.1868 15.7269 34.4775 15.7269 34.4775L17.0926 33.8876L10.0237 33.6311L18.3724 33.3319L18.9565 33.0754L11.6556 32.819L20.2534 32.5112L20.7688 32.289L12.609 32.0068L22.2032 31.6734L22.6241 31.4854L14.1465 31.1862L21.9799 30.9126C18.5098 30.7929 11.0544 30.5535 9.00154 30.6989C6.29594 30.8955 3.96826 34.1697 3.96826 34.1697C3.96826 34.1697 8.5635 34.0073 10.8912 34.0928L10.8826 34.0842Z" fill="#065C73"/>
<path d="M11.3034 45.2062C11.3292 44.6762 11.3636 44.1633 11.3979 43.6504C10.2641 43.6247 8.95857 43.5905 7.80762 43.5649L7.88492 45.1037C8.88986 45.1379 10.204 45.1806 11.2948 45.2062H11.3034Z" fill="#065C73"/>
<path d="M11.6212 41.231L7.68738 41.0601L7.71315 41.573L11.5955 41.4961C11.6041 41.4106 11.6127 41.3251 11.6212 41.2396V41.231Z" fill="#065C73"/>
<path d="M64.402 33.785C64.3333 33.8876 64.2731 33.9816 64.213 34.0757L72.639 34.1013L64.402 33.7936V33.785Z" fill="#065C73"/>
<path d="M56.0876 22.9707C55.9931 22.7997 55.8987 22.6202 55.7956 22.4492L43.6762 21.3721L43.5731 22.3894L56.079 22.9707H56.0876Z" fill="#065C73"/>
<path d="M56.9809 24.5522C56.8779 24.3813 56.7834 24.2017 56.6803 24.0308L43.6505 23.0477L43.5646 24.065L56.9809 24.5608V24.5522Z" fill="#065C73"/>
<path d="M55.2287 21.3977C55.1342 21.2268 55.0397 21.0472 54.9538 20.8763L43.7105 19.7222L43.5989 20.7395L55.2201 21.3977H55.2287Z" fill="#065C73"/>
<path d="M42.3535 42.0517C42.1474 42.5561 42.0186 43.3084 42.0186 44.1376C42.0186 44.9669 42.1388 45.6508 42.3192 46.1466C42.6456 45.9842 42.8947 45.1207 42.8947 44.0863C42.8947 43.0519 42.6627 42.2398 42.3535 42.0432V42.0517Z" fill="#065C73"/>
<path d="M43.6419 17.414L53.6397 18.2774C53.5624 18.115 53.4851 17.944 53.3992 17.7816L43.7621 16.4052L43.6333 17.414H43.6419Z" fill="#065C73"/>
<path d="M67.1935 29.4678L72.4673 29.5619L67.3051 29.2883C67.2708 29.3481 67.2278 29.408 67.1935 29.4678Z" fill="#065C73"/>
<path d="M54.4041 19.8076C54.3182 19.6367 54.2237 19.4571 54.1378 19.2862L43.7449 18.0551L43.6246 19.0724L54.4041 19.8162V19.8076Z" fill="#065C73"/>
<path d="M60.8547 30.9211C60.7688 30.7844 60.6743 30.639 60.5799 30.4937L43.5388 29.673L43.4873 30.6903L60.8547 30.9126V30.9211Z" fill="#065C73"/>
<path d="M62.9161 34.0757C62.8473 33.9645 62.77 33.8534 62.6842 33.7252L43.4872 32.9985L43.4529 34.0158L62.9161 34.0671V34.0757Z" fill="#065C73"/>
<path d="M59.8497 29.331C59.7552 29.1772 59.6607 29.0233 59.5662 28.8694L43.5645 28.0145L43.5044 29.0318L59.8497 29.331Z" fill="#065C73"/>
<path d="M72.6391 31.075L66.369 30.7758C66.326 30.8527 66.2745 30.9211 66.2316 30.9895L72.6391 31.075Z" fill="#065C73"/>
<path d="M61.8767 32.5027C61.7909 32.3744 61.7136 32.2462 61.6277 32.118L43.5216 31.34L43.4786 32.3573L61.8853 32.5027H61.8767Z" fill="#065C73"/>
<path d="M58.8705 27.741C58.776 27.5785 58.6729 27.4161 58.5699 27.2537L43.5989 26.3646L43.5302 27.3819L58.8705 27.741Z" fill="#065C73"/>
<path d="M68.1211 27.9547L72.1151 28.0487L68.207 27.8179C68.1812 27.8606 68.1469 27.9119 68.1211 27.9547Z" fill="#065C73"/>
<path d="M69.0144 26.4757L71.1961 26.5441L69.0574 26.3988C69.0574 26.3988 69.023 26.4501 69.0144 26.4757Z" fill="#065C73"/>
<path d="M57.9085 26.1423C57.8055 25.9714 57.711 25.8004 57.6079 25.6294L43.6247 24.6976L43.5474 25.7149L57.9171 26.1423H57.9085Z" fill="#065C73"/>
<path d="M2.37067 40.5642C2.50809 40.5642 2.64552 40.5129 2.75718 40.4104C2.55963 40.4531 2.35349 40.3591 2.21606 40.1368C1.99274 39.7777 2.0271 39.2221 2.29336 38.8972C2.31913 38.8716 2.33631 38.8459 2.36208 38.8203C2.07004 38.8801 1.82955 39.2221 1.80378 39.6495C1.77801 40.1368 2.03569 40.5471 2.37926 40.5642H2.37067Z" fill="#065C73"/>
<path d="M2.40499 41.7782C3.00623 42.0004 3.49582 42.1714 3.86515 42.2996C3.84798 42.0688 3.8308 41.8209 3.82221 41.573C3.70196 39.5726 3.63325 37.1105 3.60748 36.2898C3.60748 36.2898 3.60748 36.2898 3.59889 36.2984C3.59889 36.2984 3.59889 36.2727 3.59889 36.2385C3.59889 36.2642 3.59889 36.2898 3.59889 36.3069C3.53017 36.3667 3.47005 36.4266 3.40993 36.4779C3.17802 36.6745 2.98905 36.8797 2.83445 37.0592C2.551 37.4097 2.41358 37.6918 2.41358 37.6918C2.70561 38.2646 3.15225 39.1622 3.35839 39.7264C3.1952 39.829 3.06636 40.0427 3.05777 40.3078C3.032 40.6754 3.22955 40.9831 3.48723 41.0002C3.48723 41.1626 3.48723 41.2994 3.47864 41.3764L1.65772 40.795C1.65772 40.795 0.953408 41.2225 2.41358 41.7525L2.40499 41.7782ZM3.35839 40.6925C3.20378 40.4445 3.21237 40.0684 3.37557 39.8119C3.4271 39.9573 3.46146 40.0769 3.47005 40.1539C3.47864 40.3591 3.48723 40.5984 3.48723 40.8207C3.44428 40.7865 3.40134 40.7437 3.36698 40.6925H3.35839Z" fill="#065C73"/>
<path d="M18.2779 40.6754C17.9172 40.2821 17.9172 39.6409 18.2779 39.2477C18.3123 39.2135 18.338 39.1879 18.3724 39.1537C17.9515 39.2391 17.6251 39.6495 17.6251 40.1453C17.6251 40.701 18.0374 41.1541 18.5442 41.1541C18.7503 41.1541 18.9393 41.0771 19.0939 40.9489C18.8018 41.0088 18.5012 40.9147 18.2779 40.6668V40.6754Z" fill="#065C73"/>
<path d="M5.85787 44.9241C6.06401 44.984 6.30451 45.0267 6.58795 45.0438C6.69102 45.0438 6.79409 45.0609 6.91434 45.0609L6.83704 43.5478C5.9094 43.5221 5.16214 43.505 4.82716 43.505C4.81857 43.505 4.80998 43.505 4.80139 43.505C5.01612 44.3856 5.49712 44.7617 5.85787 44.9327V44.9241Z" fill="#065C73"/>
<path d="M6.64808 40.0684L6.61372 39.4871L4.49219 39.393C4.50078 39.6324 4.50937 39.8718 4.52654 40.1111L6.64808 40.0684Z" fill="#065C73"/>
<path d="M19.9528 39.4529C19.9528 39.0682 20.116 38.7348 20.3736 38.5125C19.8583 38.598 19.4546 39.0853 19.4546 39.6837C19.4546 40.3419 19.9356 40.872 20.5282 40.872C20.7773 40.872 21.0006 40.7779 21.181 40.6241C21.1295 40.6241 21.078 40.6412 21.0264 40.6412C20.4338 40.6412 19.9528 40.1111 19.9528 39.4529Z" fill="#065C73"/>
<path d="M6.69109 40.8292L6.65674 40.2479L4.52661 40.1539C4.5352 40.3933 4.55238 40.6326 4.56097 40.872L6.69109 40.8292Z" fill="#065C73"/>
<path d="M6.73399 41.5901L6.69963 41.0173L4.56091 40.9233C4.5695 41.1626 4.58668 41.402 4.60386 41.6328L6.7254 41.5901H6.73399Z" fill="#065C73"/>
<path d="M29.9334 31.2289C29.9334 31.2289 30.4144 31.246 30.4144 30.3484V25.6636C30.4144 25.6636 30.32 24.86 29.6758 24.8258C29.0316 24.7916 28.5764 24.8258 28.5764 24.8258C28.5764 24.8258 28.0266 24.8429 27.8978 25.467C27.8978 25.467 27.4168 27.6213 27.3137 29.2285C27.2193 30.8356 27.1505 31.4768 28.2156 31.4426C29.2807 31.4084 29.9249 31.2203 29.9249 31.2203L29.9334 31.2289Z" fill="#065C73"/>
<path d="M46.1499 36.7002L42.1216 36.7942L42.4394 15.0118L52.798 16.4309C52.5059 15.7726 52.2397 15.1229 52.0078 14.4988L41.0222 12.2847H40.9792L40.6786 39.5811L69.8991 37.3926L41.3228 40.2479C40.4639 42.1372 40.7473 45.779 40.7473 45.779L27.6745 47.0955C27.7003 45.1806 27.6401 43.7529 27.5199 42.7014L39.5448 41.0686L27.4168 41.9833C27.3653 41.6927 27.3138 41.4362 27.2536 41.2225L39.9399 40.0342V39.9744L39.6307 12.3531L29.3752 12.866C19.8411 12.9686 19.446 12.7207 16.938 14.3278C14.1121 16.1402 12.0851 19.3033 11.4065 21.0216H27.9064C27.9064 21.0216 27.9236 20.8079 27.9751 20.4403L18.3552 20.0898L28.0954 19.7393C28.0954 19.7393 28.1126 19.6538 28.1211 19.611L18.6301 19.2691L28.2757 18.9271C28.2843 18.8758 28.3015 18.8331 28.3101 18.7818L18.8963 18.4484L28.4991 18.115C28.5162 18.0637 28.5334 18.0124 28.5506 17.9611L19.2571 17.6362L28.7739 17.3028C28.7911 17.2515 28.8169 17.1917 28.8426 17.1404L19.6264 16.8241L29.1261 16.4907C29.1518 16.4309 29.1776 16.3796 29.212 16.3197L20.2878 16.0034L29.5641 15.6786C29.5985 15.6187 29.6328 15.5589 29.6672 15.499L21.1381 15.1827L30.1138 14.8493C30.1568 14.7895 30.2083 14.7296 30.2599 14.6698L22.6756 14.362L30.8783 14.0286C30.9384 13.9773 31.0071 13.9175 31.0672 13.8662L24.402 13.5499L32.1495 13.1823C32.1495 13.1823 32.2354 13.1481 32.2783 13.131C35.9459 13.5414 36.6416 14.097 37.3631 17.1575C38.2392 20.8934 38.2736 29.2028 38.2736 29.2028L38.0846 38.7348C38.0846 38.7348 30.1911 38.9656 27.4684 39.2135C24.7456 39.47 24.548 40.5471 24.548 40.5471L22.5296 40.8036C22.5296 40.7523 22.5296 40.7096 22.5296 40.7096C22.4608 39.2477 22.9848 37.7175 24.1959 36.8284C25.6389 35.7769 27.5972 35.529 29.3322 35.3751C29.5641 35.358 30.2255 35.1956 30.4231 35.2981C30.4231 35.2981 30.028 35.093 27.9322 34.922C25.8364 34.751 21.6449 35.2127 18.7074 37.2986C16.2508 39.0511 16.1134 41.0173 16.1392 41.6072L14.722 41.7867L14.4042 42.2569L24.0069 41.5046C23.2167 43.4452 23.0277 46.7792 23.0277 46.7792H23.002H22.9676H20.3823C20.3823 46.7792 7.79905 46.5313 5.11921 46.2748C2.43937 46.0184 1.80377 45.9671 1.80377 45.9671C1.82095 46.8818 3.08356 46.8818 3.08356 46.8818L3.64186 46.9075C3.78788 47.4802 3.95966 47.9846 4.15722 48.3864L0.386548 48.7113C-0.137394 48.7711 -0.120216 49.5405 0.403727 49.5747L27.2279 51.3016C27.2279 51.3016 27.288 51.3016 27.3223 51.3016L69.2635 44.8557C69.2635 44.8557 69.3064 44.8557 69.3236 44.8472L74.7005 44.018C75.2244 43.941 75.1729 43.1802 74.6489 43.1631L71.7286 43.0605C71.8059 42.5988 71.8575 42.0432 71.8575 41.4533C71.8575 40.5984 71.763 39.8376 71.6084 39.2904L78.1877 38.0509L47.1377 41.2652L47.0518 40.4958L79.5792 36.7429L46.1327 36.7087L46.1499 36.7002ZM21.7222 40.8976L16.4656 41.5559C16.5257 41.0515 16.8091 39.8119 18.0116 39.1537C19.5405 38.3159 21.6191 37.6662 21.8167 38.4441C21.9713 39.0596 21.8854 40.3676 21.7308 40.8976H21.7222ZM10.6163 47.8307C10.6764 47.6512 10.7366 47.4546 10.7967 47.2494L15.0054 47.4546L10.6163 47.8307ZM25.4069 49.0789C24.5824 49.0789 23.921 47.5486 23.921 45.6679C23.921 43.7871 24.591 42.2569 25.4069 42.2569C26.2229 42.2569 26.8929 43.7871 26.8929 45.6679C26.8929 47.5486 26.2229 49.0789 25.4069 49.0789ZM71.1188 39.829C71.4194 39.829 71.6599 40.6326 71.6599 41.6243C71.6599 42.6159 71.4194 43.4195 71.1188 43.4195C70.8182 43.4195 70.5777 42.6159 70.5777 41.6243C70.5777 40.6326 70.8182 39.829 71.1188 39.829ZM69.0831 39.8974C69.4095 39.8974 69.6672 40.7608 69.6672 41.8295C69.6672 42.8981 69.4095 43.7615 69.0831 43.7615C68.7567 43.7615 68.4991 42.8981 68.4991 41.8295C68.4991 40.7608 68.7567 39.8974 69.0831 39.8974ZM64.4278 41.3593C64.4278 41.4533 64.4278 41.5559 64.4278 41.6499C64.4278 42.0688 64.4535 42.4535 64.4879 42.7955L55.0483 42.4792C55.0483 42.4792 55.0054 42.4792 54.9882 42.4792L47.5414 43.3255C47.5414 43.1545 47.5242 42.9835 47.507 42.8126L64.4278 41.3507V41.3593ZM42.7486 46.8989C42.2246 46.8989 41.7952 45.6679 41.7952 44.1376C41.7952 42.6074 42.2246 41.3764 42.7486 41.3764C43.2725 41.3764 43.702 42.6074 43.702 44.1376C43.702 45.6679 43.2725 46.8989 42.7486 46.8989ZM46.0812 46.4116C45.5916 46.4116 45.1965 45.2661 45.1965 43.847C45.1965 42.4279 45.5916 41.2823 46.0812 41.2823C46.5708 41.2823 46.9659 42.4279 46.9659 43.847C46.9659 45.2661 46.5708 46.4116 46.0812 46.4116Z" fill="#065C73"/>
<path d="M33.4378 16.2684C31.7372 17.6533 31.5052 21.013 31.5052 21.013L32.0378 21.0558C32.1666 20.1154 32.5961 17.8158 33.9274 16.7301C34.2538 16.4651 34.5115 16.3881 34.7176 16.4394C34.4771 15.9607 34.0906 15.747 33.4378 16.277V16.2684Z" fill="#065C73"/>
<path d="M12.3771 36.1445C12.3943 36.0675 12.4029 35.9906 12.4201 35.9222L7.39539 35.7085L7.42115 36.2556L12.3685 36.153L12.3771 36.1445Z" fill="#065C73"/>
<path d="M45.7119 41.9149C45.523 42.3851 45.4027 43.0776 45.4027 43.8555C45.4027 44.6335 45.5144 45.2575 45.6862 45.7277C45.9868 45.5738 46.2187 44.7788 46.2187 43.8128C46.2187 42.8468 46.004 42.0945 45.7119 41.9149Z" fill="#065C73"/>
<path d="M68.8426 40.3676C68.7224 40.7181 68.6365 41.2481 68.6365 41.8294C68.6365 42.4108 68.7052 42.8895 68.8168 43.24C69.0144 43.1289 69.169 42.5219 69.169 41.7953C69.169 41.0686 69.023 40.5044 68.834 40.3676H68.8426Z" fill="#065C73"/>
<path d="M6.61374 39.3075L6.57938 38.7177L4.46643 38.6236C4.46643 38.8545 4.48361 39.1024 4.4922 39.3503L6.61374 39.3075Z" fill="#065C73"/>
<path d="M35.8428 25.3986L36.2293 25.4413C36.4441 25.467 36.6416 25.5268 36.8134 25.6123C36.6674 25.2447 36.2121 24.9455 35.6538 24.8857L35.2673 24.8429C34.5802 24.766 34.0133 25.0908 34.0133 25.5696V32.7249C34.0133 33.0327 34.2538 33.3063 34.6146 33.4601C34.5974 33.4088 34.5888 33.349 34.5888 33.2892V26.1338C34.5888 25.6551 35.1557 25.3387 35.8428 25.4071V25.3986Z" fill="#065C73"/>
<path d="M24.7885 43.0861C24.4707 43.7102 24.2732 44.6335 24.2732 45.6679C24.2732 46.7023 24.4536 47.5315 24.7456 48.1556C25.2524 47.9504 25.6389 46.8904 25.6389 45.608C25.6389 44.3257 25.2781 43.3255 24.7971 43.0776L24.7885 43.0861Z" fill="#065C73"/>
<path d="M70.8955 40.265C70.7838 40.5984 70.7065 41.0772 70.7065 41.6243C70.7065 42.1714 70.7753 42.6074 70.8783 42.9323C71.0587 42.8297 71.2047 42.2654 71.2047 41.5901C71.2047 40.9147 71.0759 40.3933 70.8955 40.2565V40.265Z" fill="#065C73"/>
<path d="M15.6496 39.1109L12.8925 38.9912C12.8839 39.0511 12.8753 39.1109 12.8667 39.1793L15.6496 39.1195V39.1109Z" fill="#065C73"/>
<path d="M15.5207 39.8718L12.7808 39.7521C12.7808 39.8119 12.7636 39.8803 12.755 39.9402L15.5121 39.8803C15.5121 39.8803 15.5121 39.8803 15.5121 39.8718H15.5207Z" fill="#065C73"/>
<path d="M15.3919 40.6326L12.6863 40.5129C12.6863 40.5728 12.6691 40.6412 12.6605 40.7095L15.3833 40.6497C15.3833 40.6497 15.3833 40.6412 15.3833 40.6326H15.3919Z" fill="#065C73"/>
<path d="M15.7785 38.3586L13.0042 38.2389C12.9956 38.2988 12.987 38.3586 12.9784 38.4185L15.7785 38.3586Z" fill="#065C73"/>
<path d="M14.5674 44.3941C14.8508 43.7187 14.679 43.7102 14.387 43.7102C14.3011 43.7102 13.4937 43.6931 12.3771 43.6674C12.3342 44.1804 12.2998 44.7019 12.274 45.2233C12.7035 45.2319 13.0471 45.2404 13.236 45.2404C13.8802 45.2404 14.3183 44.7702 14.5588 44.3855L14.5674 44.3941Z" fill="#065C73"/>
<path d="M12.566 35.1614L7.79901 34.9562H7.36096L7.38673 35.4862L12.5231 35.3751C12.5403 35.2981 12.5489 35.2298 12.566 35.1614Z" fill="#065C73"/>
<path d="M13.1329 37.4781C13.1244 37.5379 13.1158 37.5892 13.1072 37.6491L15.8386 37.5892L13.1329 37.4695V37.4781Z" fill="#065C73"/>
<path d="M15.2545 41.3935L12.5918 41.2738C12.5918 41.3422 12.5746 41.402 12.566 41.4704L15.2459 41.4191C15.2459 41.4191 15.2459 41.402 15.2459 41.3935H15.2545Z" fill="#065C73"/>
<path d="M13.2617 36.7173C13.2531 36.7685 13.2446 36.8284 13.236 36.8882L15.8814 36.8369L13.2703 36.7258L13.2617 36.7173Z" fill="#065C73"/>
<path d="M4.91305 34.9134C4.91305 34.9134 4.66396 35.0673 4.51794 35.5461L6.41616 35.5033L6.39039 34.9305L4.92164 34.9134H4.91305Z" fill="#065C73"/>
<path d="M4.39771 36.5035C4.39771 36.5035 4.39771 36.7172 4.41488 37.0678L6.49347 37.025L6.45912 36.418L4.39771 36.3326C4.39771 36.3838 4.39771 36.4437 4.39771 36.5035Z" fill="#065C73"/>
<path d="M6.53645 37.7859L6.5021 37.1874L4.41492 37.0934C4.41492 37.2986 4.4321 37.5465 4.44068 37.8286L6.53645 37.7859Z" fill="#065C73"/>
<path d="M13.5538 35.2041C13.5452 35.2554 13.5366 35.3067 13.5194 35.358L15.8643 35.3067L13.5538 35.2041Z" fill="#065C73"/>
<path d="M13.4078 35.9564C13.3992 36.0077 13.3906 36.059 13.3734 36.1188L15.9158 36.0675L13.4078 35.9564Z" fill="#065C73"/>
<path d="M6.57085 38.5467L6.53649 37.9568L4.43213 37.8628C4.43213 38.0851 4.44931 38.333 4.4579 38.5894L6.56226 38.5467H6.57085Z" fill="#065C73"/>
<path d="M4.39771 36.3069L6.45053 36.2642L6.41617 35.6572L4.50078 35.5717C4.44065 35.7598 4.40629 36.0077 4.39771 36.3069Z" fill="#065C73"/>
<path d="M63.5602 0C57.6766 0 52.901 4.75315 52.901 10.6091C52.901 16.4651 63.5602 31.9299 63.5602 31.9299C63.5602 31.9299 74.2194 16.4736 74.2194 10.6091C74.2194 4.7446 69.4524 0 63.5602 0ZM63.5602 15.1229C60.7945 15.1229 58.5527 12.8916 58.5527 10.1389C58.5527 7.38619 60.7945 5.15495 63.5602 5.15495C66.326 5.15495 68.5677 7.38619 68.5677 10.1389C68.5677 12.8916 66.326 15.1229 63.5602 15.1229ZM63.9897 2.32528C58.8791 2.32528 54.7305 6.45437 54.7305 11.5409C54.7305 13.2165 55.1771 14.7809 55.9588 16.1317C54.7563 14.5758 54.0434 12.6266 54.0434 10.5151C54.0434 5.42851 58.192 1.29942 63.3025 1.29942C66.7382 1.29942 69.7359 3.16307 71.3335 5.92434C69.6414 3.73584 66.9873 2.32528 63.9983 2.32528H63.9897Z" fill="#047B7B"/>
<path d="M10.9341 76.3838H5.16216C5.08485 76.8711 4.93025 77.3071 4.68975 77.6833C4.33759 78.2731 3.86518 78.7433 3.25535 79.1024C2.64552 79.4529 1.97556 79.6324 1.27124 79.6324L1.60622 79.0767C1.95838 78.4527 2.13016 77.7944 2.13016 77.1105V66.1936H7.00025C7.73892 66.1936 8.40029 66.3646 8.99295 66.7151C9.58561 67.0742 10.058 67.5443 10.4102 68.1342C10.7623 68.7155 10.9341 69.3738 10.9341 70.109V76.3838ZM7.8334 73.8277V70.1175C7.8334 69.7585 7.70457 69.4336 7.44689 69.1515C7.17203 68.878 6.84564 68.7326 6.46772 68.7326H5.23087V72.4685C5.23087 73.0669 5.53149 73.4943 6.12415 73.7594C6.2444 73.8106 6.399 73.8363 6.59656 73.8363H7.8334V73.8277Z" fill="#047B7B"/>
<path d="M21.894 73.8277H22.0743V76.3838H21.8424C21.7651 76.8455 21.6019 77.2729 21.3614 77.6833C21.0093 78.2731 20.5369 78.7433 19.927 79.1024C19.3172 79.4529 18.6472 79.6324 17.9429 79.6324L18.2779 79.0767C18.6301 78.4527 18.8018 77.7944 18.8018 77.1105V76.3838H13.0814V70.109C13.0814 69.3824 13.2618 68.7326 13.614 68.1428C13.9661 67.5443 14.4385 67.0742 15.0398 66.7237C15.6496 66.3646 16.311 66.1936 17.0153 66.1936H21.9026V73.8363L21.894 73.8277ZM18.7933 73.8277V68.7326H17.5392C17.1613 68.7326 16.8349 68.8694 16.5686 69.1344C16.3024 69.3994 16.1735 69.7158 16.1735 70.0919V73.8277H18.7933Z" fill="#047B7B"/>
<path d="M37.9815 76.3838H21.9454V73.8277H34.8808V70.7758C34.8808 70.2116 34.6833 69.7328 34.2796 69.3396C33.8759 68.9378 33.3863 68.7326 32.828 68.7326H26.2744C26.0854 68.7326 25.9137 68.6642 25.7848 68.5275C25.656 68.3907 25.5787 68.2282 25.5787 68.0402V67.2109C25.5787 67.0229 25.6474 66.8604 25.7848 66.7237L31.4279 61.1071L33.2231 62.9023L30.1653 65.9457C30.1653 65.9457 30.1224 66.0056 30.1224 66.0483C30.1224 66.1423 30.1653 66.1851 30.2598 66.1851H33.3262C34.1679 66.1851 34.9495 66.3988 35.671 66.8091C36.3667 67.228 36.925 67.7837 37.3459 68.4762C37.7668 69.1943 37.9729 69.9722 37.9729 70.81V76.3753L37.9815 76.3838Z" fill="#047B7B"/>
<path d="M46.5536 77.6576C46.2014 78.256 45.7204 78.7348 45.1106 79.0938C44.5007 79.4443 43.8308 79.6238 43.1265 79.6238L43.4614 79.0682C43.8136 78.4441 43.9854 77.7858 43.9854 77.1019V68.006C43.9854 67.5016 44.1572 67.0742 44.5007 66.7322C44.8615 66.3902 45.2738 66.2193 45.7634 66.2193H47.0861V75.6914C47.0861 76.418 46.9143 77.0763 46.5622 77.6576H46.5536Z" fill="#047B7B"/>
<path d="M58.0288 73.8277H58.2092V76.3838H57.9773C57.9 76.8455 57.7368 77.2729 57.4963 77.6833C57.1442 78.2731 56.6717 78.7433 56.0619 79.1024C55.4521 79.4529 54.7821 79.6324 54.0778 79.6324L54.4128 79.0767C54.7649 78.4527 54.9367 77.7944 54.9367 77.1105V76.3838H49.2163V70.109C49.2163 69.3824 49.3967 68.7326 49.7488 68.1428C50.101 67.5443 50.5734 67.0742 51.1747 66.7237C51.7845 66.3646 52.4459 66.1936 53.1502 66.1936H58.0374V73.8363L58.0288 73.8277ZM54.9367 73.8277V68.7326H53.6827C53.3048 68.7326 52.9784 68.8694 52.7121 69.1344C52.4459 69.3994 52.317 69.7158 52.317 70.0919V73.8277H54.9367Z" fill="#047B7B"/>
<path d="M62.2375 73.8277V67.9974C62.2375 67.493 62.4093 67.0742 62.7528 66.7322C63.0964 66.3902 63.5087 66.2193 64.0069 66.2193H65.3296V76.3753H58.1061V73.8192H62.2461L62.2375 73.8277ZM62.813 77.8286C62.5639 78.0765 62.435 78.3757 62.435 78.7262C62.435 79.0767 62.5553 79.3588 62.813 79.6324C63.0621 79.8803 63.3627 80.0085 63.7062 80.0085C64.0498 80.0085 64.3676 79.8803 64.6167 79.6238C64.8658 79.3759 64.9946 79.0767 64.9946 78.7262C64.9946 78.3757 64.8744 78.0765 64.6167 77.8286C64.3676 77.5807 64.067 77.4524 63.7062 77.4524C63.3455 77.4524 63.0621 77.5807 62.813 77.8286Z" fill="#047B7B"/>
<path d="M75.7742 68.7412H73.6011C73.249 68.7412 72.9311 68.8694 72.6391 69.1259C72.3643 69.3994 72.2182 69.7243 72.2182 70.109V73.8363H78.7203V76.3924H65.1923V73.8363H69.1261V70.109C69.1261 69.3824 69.3065 68.7326 69.6587 68.1428C70.0108 67.5443 70.4832 67.0742 71.0845 66.7237C71.6771 66.3646 72.3385 66.1936 73.06 66.1936H78.7289" fill="#047B7B"/>
</g>
<defs>
<clipPath id="clip0_237_9324">
<rect width="80" height="80" fill="white"/>
</clipPath>
</defs>
</svg>
