<svg width="32" height="32" viewBox="0 0 32 32" fill="none" xmlns="http://www.w3.org/2000/svg">
<g clip-path="url(#clip0_135_599)">
<path fill-rule="evenodd" clip-rule="evenodd" d="M13.3937 0.53125C11.1961 0.53125 9.41473 2.31263 9.41473 4.51019C9.41473 8.06087 13.3937 11.1986 13.3937 11.1986C13.3937 11.1986 17.3727 8.06087 17.3727 4.51019C17.3727 2.31263 15.5912 0.53125 13.3937 0.53125ZM13.3937 6.90513C12.0717 6.90513 11.0002 5.8335 11.0002 4.51144C11.0002 3.1895 12.0717 2.11781 13.3937 2.11781C14.7157 2.11781 15.7873 3.18944 15.7873 4.51144C15.7873 5.8335 14.7157 6.90513 13.3937 6.90513ZM15.8188 10.2264C16.4062 10.3198 16.8932 10.4462 17.2339 10.5944H27.2454C28.9165 10.5944 30.282 11.96 30.282 13.6311C30.282 15.3024 28.9165 16.6679 27.2454 16.6679H25.705C24.5859 16.6679 23.6682 17.5855 23.6682 18.7046C23.6682 19.8082 24.5636 20.7242 25.6737 20.7411C26.2995 20.7497 26.9313 20.7414 27.5575 20.7414C29.6747 20.7414 31.4054 22.4719 31.4054 24.5891C31.4054 26.7064 29.6749 28.4369 27.5575 28.4369H23.567V29.1882C23.567 29.4395 23.3621 29.6444 23.1107 29.6444H22.3319C22.3319 28.0849 21.067 26.8202 19.5076 26.8202C17.9482 26.8202 16.6834 28.085 16.6834 29.6444H16.3882V18.2744H17.4019V23.1529C17.4019 23.4291 17.6257 23.6529 17.9019 23.6529H23.567V27.4369H27.5575C29.1229 27.4369 30.4054 26.1543 30.4054 24.5891C30.4054 23.0239 29.1227 21.7414 27.5575 21.7414H25.705C24.0339 21.7414 22.6682 20.3757 22.6682 18.7046C22.6682 17.0389 24.0285 15.6679 25.705 15.6679H27.2453C28.3644 15.6679 29.2819 14.7504 29.2819 13.6311C29.2819 12.512 28.3644 11.5944 27.2453 11.5944H17.2338C16.4909 11.9179 15.0497 12.1372 13.3937 12.1372C10.9775 12.1372 9.01873 11.6703 9.01873 11.0944C9.01873 10.7323 9.79317 10.4134 10.9687 10.2264C11.1568 10.4434 11.3561 10.6614 11.5622 10.8744C11.4067 10.9399 11.3185 11.0148 11.3185 11.0944C11.3185 11.3527 12.2476 11.562 13.3937 11.562C14.5399 11.562 15.4689 11.3526 15.4689 11.0944C15.4689 11.0149 15.3808 10.9399 15.2253 10.8744C15.4313 10.6614 15.6305 10.4434 15.8188 10.2264ZM6.02211 27.8202C5.01454 27.8202 4.19786 28.6369 4.19786 29.6444C4.19786 30.6519 5.01454 31.4688 6.02211 31.4688C7.02967 31.4688 7.84636 30.652 7.84636 29.6445C7.84636 28.637 7.02973 27.8202 6.02211 27.8202ZM6.02211 30.2829C5.66911 30.2829 5.38367 29.9974 5.38367 29.6444C5.38367 29.2914 5.66904 29.0059 6.02211 29.0059C6.37517 29.0059 6.66054 29.2914 6.66054 29.6444C6.66054 29.9974 6.37517 30.2829 6.02211 30.2829ZM15.3882 26.8724H6.56448C7.86467 27.1255 8.84636 28.2705 8.84636 29.6445H15.3882V26.8724ZM3.19792 29.6445C3.19792 28.2706 4.17961 27.1255 5.47979 26.8724H0.594545V28.2763C0.594545 29.0299 1.20917 29.6445 1.96286 29.6445H3.19792ZM14.0199 16.0661H1.9628C1.20911 16.0661 0.594482 16.6807 0.594482 17.4342V25.8725H15.3882V17.4342C15.3882 16.6807 14.7736 16.0661 14.0199 16.0661ZM5.46561 19.9007L8.30873 18.2593C8.54705 18.1212 8.85217 18.2025 8.99036 18.4409C9.12829 18.6792 9.04698 18.9844 8.80873 19.1225L5.96561 20.764C5.72723 20.9021 5.42204 20.8207 5.28398 20.5824C5.14592 20.344 5.22723 20.0388 5.46561 19.9007ZM10.5152 22.0817L7.67204 23.7232C7.43373 23.8601 7.12929 23.7779 6.99236 23.5396C6.85542 23.3012 6.93767 22.9968 7.17598 22.8599L10.0191 21.2184C10.2575 21.0814 10.5619 21.1636 10.6988 21.402C10.8357 21.6404 10.7536 21.9447 10.5152 22.0817ZM11.1489 19.7442L5.33392 23.1014C5.09561 23.2395 4.79036 23.1582 4.65229 22.9198C4.51423 22.6815 4.59567 22.3763 4.83392 22.2382L10.6489 18.8809C10.8872 18.7429 11.1924 18.8243 11.3305 19.0626C11.4685 19.3009 11.3872 19.6061 11.1489 19.7442ZM23.4764 22.6529C23.4167 22.5006 23.3275 22.3599 23.2087 22.2297L19.9992 18.7195C19.7305 18.4256 19.3876 18.2745 18.9894 18.2745H18.4019V22.653H23.4764V22.6529ZM19.5076 27.8202C18.5002 27.8202 17.6834 28.6369 17.6834 29.6444C17.6834 30.6519 18.5001 31.4687 19.5076 31.4687C20.5152 31.4687 21.3319 30.6519 21.3319 29.6444C21.3319 28.6369 20.5152 27.8202 19.5076 27.8202ZM19.5076 30.2829C19.1547 30.2829 18.869 29.9974 18.869 29.6444C18.869 29.2914 19.1547 29.0059 19.5076 29.0059C19.8606 29.0059 20.1462 29.2914 20.1462 29.6444C20.1462 29.9974 19.8607 30.2829 19.5076 30.2829Z" fill="white"/>
</g>
<defs>
<clipPath id="clip0_135_599">
<rect width="32" height="32" fill="white"/>
</clipPath>
</defs>
</svg>
