<svg width="32" height="32" viewBox="0 0 32 32" fill="none" xmlns="http://www.w3.org/2000/svg">
<path d="M21.3334 7.99999C21.3334 10.9455 18.9456 13.3333 16.0001 13.3333C13.0546 13.3333 10.6667 10.9455 10.6667 7.99999C10.6667 5.05447 13.0546 2.66666 16.0001 2.66666C18.9456 2.66666 21.3334 5.05447 21.3334 7.99999Z" fill="white"/>
<path d="M20.9042 18.0037C20.2734 18.0114 19.6855 18.0344 19.1731 18.1033C18.316 18.2185 17.3777 18.4939 16.6025 19.2692C15.8272 20.0444 15.5518 20.9827 15.4365 21.8399C15.333 22.6102 15.3331 23.5513 15.3333 24.552V24.7813C15.3331 25.782 15.333 26.7232 15.4365 27.4935C15.5174 28.0949 15.6772 28.7363 16.0331 29.3333C16.0221 29.3333 16.011 29.3333 15.9999 29.3333C5.33325 29.3333 5.33325 26.6471 5.33325 23.3333C5.33325 20.0196 10.1089 17.3333 15.9999 17.3333C17.7682 17.3333 19.4359 17.5754 20.9042 18.0037Z" fill="white"/>
<path fill-rule="evenodd" clip-rule="evenodd" d="M21.9999 29.3333C19.8 29.3333 18.7001 29.3333 18.0167 28.6499C17.3333 27.9665 17.3333 26.8666 17.3333 24.6667C17.3333 22.4668 17.3333 21.3668 18.0167 20.6834C18.7001 20 19.8 20 21.9999 20C24.1998 20 25.2997 20 25.9832 20.6834C26.6666 21.3668 26.6666 22.4668 26.6666 24.6667C26.6666 26.8666 26.6666 27.9665 25.9832 28.6499C25.2997 29.3333 24.1998 29.3333 21.9999 29.3333ZM24.624 23.6611C24.9277 23.3573 24.9277 22.8649 24.624 22.5611C24.3202 22.2574 23.8278 22.2574 23.524 22.5611L20.9629 25.1223L20.4758 24.6352C20.1721 24.3315 19.6796 24.3315 19.3759 24.6352C19.0721 24.939 19.0721 25.4314 19.3759 25.7352L20.4129 26.7722C20.7167 27.0759 21.2091 27.0759 21.5129 26.7722L24.624 23.6611Z" fill="white"/>
</svg>
