<svg width="80" height="80" viewBox="0 0 80 80" fill="none" xmlns="http://www.w3.org/2000/svg">
<g filter="url(#filter0_d_193_2651)">
<rect x="24" y="16" width="32" height="32" rx="16" fill="#047B7B"/>
<path fill-rule="evenodd" clip-rule="evenodd" d="M47.0418 34.6023C47.8598 33.7992 49.186 33.7992 50.0039 34.6023C50.8219 35.4054 50.8219 36.7075 50.0039 37.5106L45.761 41.6765C45.5185 41.9146 45.3758 42.0547 45.2171 42.1762C45.03 42.3195 44.8275 42.4424 44.6133 42.5426C44.4316 42.6277 44.2401 42.6903 43.9148 42.7968L42.4248 43.2844L42.066 43.4019C41.775 43.4971 41.4541 43.4227 41.2372 43.2098C41.0203 42.9968 40.9446 42.6818 41.0416 42.3961L41.6579 40.5808C41.7663 40.2614 41.8301 40.0735 41.9167 39.895C42.0188 39.6847 42.1439 39.4859 42.2899 39.3022C42.4137 39.1463 42.5564 39.0062 42.7988 38.7682L47.0418 34.6023ZM42.4093 42.5951L43.6804 42.1791C44.0342 42.0633 44.1846 42.0134 44.3246 41.9479C44.4949 41.8683 44.6557 41.7706 44.8044 41.6568C44.9267 41.5631 45.0394 41.4533 45.3031 41.1944L48.6891 37.8699C48.3363 37.7477 47.8819 37.5213 47.4564 37.1036C47.031 36.6858 46.8003 36.2396 46.6759 35.8933L43.2899 39.2177C43.0261 39.4767 42.9143 39.5873 42.8189 39.7074C42.703 39.8534 42.6035 40.0113 42.5224 40.1784C42.4557 40.3159 42.4049 40.4636 42.287 40.811L41.8633 42.059L42.4093 42.5951ZM47.2202 35.3589C47.2355 35.4357 47.2613 35.5402 47.3045 35.6623C47.4016 35.9372 47.5851 36.2982 47.9309 36.6377C48.2766 36.9772 48.6444 37.1574 48.9244 37.2528C49.0487 37.2951 49.1551 37.3205 49.2334 37.3355L49.5295 37.0448C50.0854 36.499 50.0854 35.614 49.5295 35.0682C48.9735 34.5223 48.0722 34.5223 47.5163 35.0682L47.2202 35.3589Z" fill="white" stroke="white" stroke-width="0.5"/>
<path fill-rule="evenodd" clip-rule="evenodd" d="M37.9043 22C36.5999 22 35.4614 22.903 35.2008 24.1793C35.1406 24.4739 34.873 24.6901 34.5948 24.6901H34.5788L34.5628 24.6908C33.192 24.7506 32.1391 24.9184 31.26 25.4936C30.7062 25.8561 30.2298 26.3224 29.8585 26.8666C29.3967 27.5436 29.193 28.3206 29.0954 29.2604C29 30.1786 29 31.3295 29 32.7872V32.7872V32.8702V32.8702C29 34.3279 29 35.4788 29.0954 36.397C29.193 37.3367 29.3967 38.1138 29.8585 38.7908C30.2298 39.3349 30.7062 39.8013 31.26 40.1637C31.9471 40.6134 32.7349 40.8116 33.6903 40.9068C34.6257 41 35.7991 41 37.2892 41H41.6804L42.2099 39.5383C42.0363 39.5384 41.8566 39.5385 41.6705 39.5385H37.3295C35.7903 39.5385 34.69 39.5376 33.8359 39.4525C32.9934 39.3686 32.4715 39.2085 32.0637 38.9417C31.6695 38.6837 31.332 38.3528 31.0698 37.9685C30.8 37.5731 30.638 37.0675 30.5527 36.2463C30.466 35.4123 30.4651 34.337 30.4651 32.8287C30.4651 31.3203 30.466 30.2451 30.5527 29.411C30.638 28.5898 30.8 28.0842 31.0698 27.6889C31.332 27.3045 31.6695 26.9736 32.0637 26.7157C32.5899 26.3713 33.2955 26.2099 34.6127 26.1515C35.6135 26.1428 36.4453 25.4069 36.6364 24.471C36.7544 23.8932 37.2781 23.4615 37.9043 23.4615H41.0957C41.7219 23.4615 42.2456 23.8932 42.3636 24.471C42.5547 25.4069 43.3865 26.1428 44.3873 26.1515C45.7045 26.2099 46.4101 26.3713 46.9363 26.7157C47.3305 26.9736 47.668 27.3045 47.9302 27.6889C48.2 28.0842 48.362 28.5898 48.4473 29.411C48.534 30.2451 48.5349 31.3203 48.5349 32.8287C48.5349 33.359 48.5348 33.8357 48.5309 34.2673L49.9932 34.5329C50 34.028 50 33.4755 50 32.8702V32.7872C50 31.3295 50 30.1786 49.9046 29.2604C49.807 28.3206 49.6033 27.5436 49.1415 26.8666C48.7702 26.3224 48.2938 25.8561 47.74 25.4936C46.8609 24.9184 45.808 24.7506 44.4372 24.6908L44.4212 24.6901H44.4052C44.127 24.6901 43.8594 24.4739 43.7992 24.1793C43.5386 22.903 42.4001 22 41.0957 22H37.9043ZM37.3023 32.4744C37.3023 31.2636 38.2863 30.2821 39.5 30.2821C40.7137 30.2821 41.6977 31.2636 41.6977 32.4744C41.6977 33.6851 40.7137 34.6667 39.5 34.6667C38.2863 34.6667 37.3023 33.6851 37.3023 32.4744ZM39.5 28.8205C37.4771 28.8205 35.8372 30.4564 35.8372 32.4744C35.8372 34.4923 37.4771 36.1282 39.5 36.1282C41.5229 36.1282 43.1628 34.4923 43.1628 32.4744C43.1628 30.4564 41.5229 28.8205 39.5 28.8205ZM45.3605 28.8205C44.9559 28.8205 44.6279 29.1477 44.6279 29.5513C44.6279 29.9549 44.9559 30.2821 45.3605 30.2821H46.3372C46.7418 30.2821 47.0698 29.9549 47.0698 29.5513C47.0698 29.1477 46.7418 28.8205 46.3372 28.8205H45.3605Z" fill="white"/>
</g>
<defs>
<filter id="filter0_d_193_2651" x="0" y="0" width="80" height="80" filterUnits="userSpaceOnUse" color-interpolation-filters="sRGB">
<feFlood flood-opacity="0" result="BackgroundImageFix"/>
<feColorMatrix in="SourceAlpha" type="matrix" values="0 0 0 0 0 0 0 0 0 0 0 0 0 0 0 0 0 0 127 0" result="hardAlpha"/>
<feOffset dy="8"/>
<feGaussianBlur stdDeviation="12"/>
<feComposite in2="hardAlpha" operator="out"/>
<feColorMatrix type="matrix" values="0 0 0 0 0.0235294 0 0 0 0 0.360784 0 0 0 0 0.45098 0 0 0 0.1 0"/>
<feBlend mode="normal" in2="BackgroundImageFix" result="effect1_dropShadow_193_2651"/>
<feBlend mode="normal" in="SourceGraphic" in2="effect1_dropShadow_193_2651" result="shape"/>
</filter>
</defs>
</svg>
