<svg width="111" height="128" viewBox="0 0 111 128" fill="none" xmlns="http://www.w3.org/2000/svg">
<g clip-path="url(#clip0_14_3607)">
<path fill-rule="evenodd" clip-rule="evenodd" d="M15.425 128C16.085 128 25.345 125.8 43.185 121.4L69.775 119.06L102.985 118.61L91.025 54.26L83.135 36.76L15.425 118.27C13.735 124.76 13.735 128 15.425 128Z" fill="url(#paint0_linear_14_3607)"/>
<path fill-rule="evenodd" clip-rule="evenodd" d="M82.895 30.81C83.375 30.56 83.905 30.53 84.385 30.69C84.865 30.84 85.275 31.18 85.525 31.66C85.615 31.84 85.685 32.04 85.715 32.25L96.865 102.66C96.935 103.08 96.865 103.49 96.675 103.85C96.495 104.21 96.205 104.51 95.825 104.7L70.375 117.79C70.165 117.9 69.945 117.96 69.735 117.99C69.545 118.03 69.355 118.03 69.155 118.01L41.385 113.51L16.445 126.33C15.965 126.58 15.435 126.61 14.955 126.45C14.485 126.3 14.065 125.96 13.815 125.48C13.725 125.3 13.655 125.1 13.625 124.89L2.475 54.48C2.405 54.06 2.475 53.65 2.665 53.29C2.845 52.93 3.135 52.63 3.515 52.44L28.965 39.35C29.175 39.24 29.405 39.18 29.625 39.15C29.865 39.11 30.005 39.11 30.175 39.13L57.965 43.63L82.905 30.81H82.895Z" fill="#E8FFFE"/>
<path d="M15.565 127.84C15.235 127.84 14.895 127.79 14.565 127.68C13.735 127.41 13.065 126.84 12.665 126.07C12.505 125.76 12.395 125.43 12.345 125.09L1.19501 54.68C1.08501 54 1.19501 53.31 1.50501 52.7C1.81501 52.08 2.30501 51.59 2.91501 51.28L28.365 38.19C28.705 38.02 29.065 37.91 29.435 37.86C29.795 37.8 30.065 37.81 30.295 37.83H30.385L57.745 42.28L82.295 29.65C83.065 29.25 83.945 29.18 84.775 29.45C85.605 29.72 86.275 30.29 86.675 31.06C86.835 31.37 86.945 31.7 86.995 32.04L98.145 102.45C98.255 103.13 98.145 103.82 97.835 104.43C97.525 105.05 97.035 105.54 96.425 105.85L70.975 118.94C70.645 119.11 70.305 119.22 69.935 119.27C69.625 119.33 69.315 119.34 69.005 119.3H68.945L41.595 114.86L17.045 127.48C16.575 127.72 16.075 127.84 15.555 127.84H15.565ZM29.965 40.42C29.965 40.42 29.905 40.42 29.855 40.43H29.785C29.705 40.45 29.635 40.47 29.565 40.51L4.10501 53.59C3.98501 53.65 3.88501 53.75 3.82501 53.87C3.78501 53.96 3.73501 54.09 3.76501 54.27L14.915 124.68C14.925 124.75 14.945 124.81 14.985 124.87C15.095 125.08 15.265 125.16 15.365 125.19C15.465 125.22 15.655 125.26 15.865 125.15L41.185 112.13L69.335 116.7C69.395 116.7 69.455 116.7 69.505 116.7H69.585C69.655 116.68 69.735 116.66 69.795 116.62L95.245 103.53C95.365 103.47 95.465 103.37 95.525 103.25C95.585 103.13 95.605 102.99 95.585 102.85L84.435 32.44C84.425 32.37 84.405 32.3 84.365 32.24C84.255 32.03 84.085 31.95 83.985 31.92C83.895 31.89 83.695 31.85 83.485 31.96L58.165 44.98L30.005 40.41H29.955L29.965 40.42Z" fill="#008EAB"/>
<path fill-rule="evenodd" clip-rule="evenodd" d="M4.105 53.59L29.555 40.5C29.875 40.33 30.265 40.46 30.435 40.78C30.465 40.84 30.485 40.91 30.505 40.98L41.655 111.39C41.695 111.67 41.565 111.94 41.305 112.07L15.855 125.16C15.535 125.32 15.145 125.2 14.975 124.88C14.945 124.82 14.925 124.75 14.905 124.68L3.765 54.27C3.725 53.99 3.855 53.72 4.115 53.59H4.105Z" fill="#E8FFFE"/>
<path fill-rule="evenodd" clip-rule="evenodd" d="M10.805 96.34L36.255 83.25C36.575 83.08 36.965 83.21 37.135 83.53C37.165 83.59 37.185 83.66 37.205 83.73L41.665 111.4C41.705 111.68 41.575 111.95 41.315 112.08L15.865 125.17C15.545 125.34 15.155 125.21 14.985 124.89C14.955 124.83 14.935 124.76 14.915 124.69L10.455 97.03C10.415 96.75 10.545 96.48 10.805 96.35V96.34Z" fill="#008EAB"/>
<path fill-rule="evenodd" clip-rule="evenodd" d="M58.035 45.05L83.485 31.96C83.805 31.79 84.195 31.92 84.365 32.24C84.395 32.3 84.415 32.37 84.435 32.44L95.585 102.85C95.625 103.13 95.495 103.4 95.235 103.53L69.785 116.62C69.465 116.79 69.075 116.66 68.905 116.34C68.875 116.28 68.855 116.21 68.835 116.14L57.685 45.73C57.645 45.45 57.775 45.18 58.035 45.05Z" fill="#E8FFFE"/>
<path fill-rule="evenodd" clip-rule="evenodd" d="M64.545 89.23L74.635 94.19L92.235 85.65C92.555 85.49 92.945 85.63 93.105 85.95C93.135 86.01 93.155 86.07 93.165 86.14L95.585 102.86C95.625 103.14 95.485 103.4 95.235 103.53L69.775 116.62C69.455 116.79 69.065 116.66 68.895 116.34C68.865 116.28 68.845 116.21 68.825 116.14L64.525 89.23H64.545Z" fill="#008EAB"/>
<path fill-rule="evenodd" clip-rule="evenodd" d="M58.325 45L30.075 40.42C29.715 40.36 29.385 40.6 29.325 40.96C29.315 41.03 29.315 41.1 29.325 41.17L40.475 111.58C40.515 111.86 40.735 112.08 41.015 112.12L69.265 116.7C69.625 116.76 69.955 116.52 70.015 116.16C70.025 116.09 70.025 116.02 70.015 115.95L58.865 45.54C58.825 45.26 58.605 45.04 58.325 45Z" fill="#003D50"/>
<path fill-rule="evenodd" clip-rule="evenodd" d="M56.835 87.19L53.985 72.18L34.745 69.06C34.385 69 34.055 69.24 33.995 69.6C33.985 69.67 33.985 69.74 33.995 69.8L40.485 111.57C40.525 111.85 40.745 112.07 41.025 112.11L69.275 116.69C69.635 116.75 69.965 116.51 70.025 116.15C70.035 116.08 70.035 116.01 70.025 115.95L66.015 90.13L57.305 87.69C57.065 87.62 56.885 87.43 56.845 87.18L56.835 87.19Z" fill="#017089"/>
<path d="M10.495 98L9.995 94L32.865 82.88L30.335 68.38C30.225 67.75 30.425 67.11 30.885 66.66C31.335 66.21 31.985 66.01 32.615 66.13L39.145 67.33L54.725 69.14C55.595 69.24 56.295 69.91 56.425 70.78L58.835 86.19L65.195 87.28C65.395 87.32 65.585 87.38 65.765 87.47L74.455 91.96L92.495 83.5L93.405 87.5L75.245 95.91C74.695 96.17 74.055 96.16 73.515 95.88L64.235 91.08L56.795 89.81C55.965 89.67 55.325 89.01 55.195 88.19L52.795 72.86L38.625 71.21C38.625 71.21 38.535 71.2 38.495 71.19L34.665 70.49L36.975 83.69C37.125 84.56 36.685 85.41 35.885 85.79L10.995 97.51L10.495 98.01V98Z" fill="white"/>
<path d="M32.055 73.8L21.725 71.49C21.345 71.4 21.045 71.1 20.975 70.71L18.585 57.25C18.515 56.84 18.705 56.44 19.055 56.23L24.835 52.89L23.485 43.5L25.335 42.35L26.865 53.28C26.925 53.67 26.735 54.06 26.385 54.26L20.625 57.59L22.785 69.74L32.485 71.91L32.055 73.82V73.8Z" fill="white"/>
<path d="M68.745 118.48L66.255 101.41L38.295 96.42L31.025 99.73C30.695 99.88 30.315 99.84 30.035 99.62L20.985 92.74L22.165 91.19L30.755 97.72L37.775 94.53C37.955 94.45 38.155 94.42 38.355 94.46L67.305 99.63C67.715 99.7 68.035 100.04 68.105 100.45L70.695 118.21L68.765 118.49L68.745 118.48Z" fill="white"/>
<path d="M54.465 71.11L52.165 53.74C52.125 53.42 52.235 53.11 52.475 52.89C52.715 52.67 53.035 52.59 53.345 52.66L60.185 54.19C60.415 54.24 60.615 54.38 60.755 54.57L69.185 66.12L82.625 59.91L87.295 47.12L89.125 47.79L84.315 60.97C84.225 61.22 84.045 61.41 83.805 61.52L69.265 68.24C68.845 68.44 68.345 68.31 68.065 67.93L59.385 56.03L54.265 54.88L56.385 70.87L54.445 71.13L54.465 71.11Z" fill="white"/>
<path fill-rule="evenodd" clip-rule="evenodd" d="M97.555 96.95L47.185 71.4L54.655 68.58L59.565 71.4L82.565 37.94H87.905L97.565 96.95H97.555Z" fill="url(#paint1_linear_14_3607)"/>
<path d="M16.915 14.11L8.71499 8.65998C7.85499 8.08998 6.70499 8.31998 6.14499 9.17998C5.58499 10.04 5.82499 11.2 6.68499 11.77L14.885 17.22C15.745 17.79 16.895 17.56 17.455 16.7C18.015 15.84 17.775 14.68 16.915 14.11Z" fill="#008EAB"/>
<path d="M12.565 21.02L2.855 19.38C1.835 19.21 0.874997 19.89 0.714997 20.9C0.554997 21.91 1.245 22.87 2.265 23.05L11.975 24.69C12.995 24.86 13.955 24.18 14.115 23.17C14.275 22.16 13.585 21.2 12.565 21.02Z" fill="#008EAB"/>
<path d="M24.195 9.85999L19.815 1.02999C19.355 0.0999915 18.245 -0.270008 17.325 0.199992C16.415 0.659992 16.045 1.78999 16.495 2.70999L20.875 11.53C21.335 12.46 22.445 12.83 23.365 12.36C24.275 11.9 24.645 10.77 24.195 9.84999V9.85999Z" fill="#008EAB"/>
<path d="M95.865 17.91L105.025 14.28C105.985 13.9 107.065 14.37 107.435 15.32C107.805 16.28 107.325 17.36 106.365 17.74L97.205 21.37C96.245 21.75 95.165 21.28 94.795 20.33C94.425 19.37 94.905 18.29 95.865 17.91Z" fill="#008EAB"/>
<path d="M98.685 25.57L108.525 25.98C109.555 26.02 110.355 26.89 110.305 27.92C110.255 28.95 109.375 29.74 108.345 29.7L98.505 29.29C97.475 29.25 96.675 28.38 96.725 27.36C96.775 26.34 97.655 25.54 98.685 25.58V25.57Z" fill="#008EAB"/>
<path d="M89.625 12.24L95.745 4.52C96.385 3.71 97.555 3.58 98.355 4.22C99.155 4.87 99.285 6.04 98.635 6.85L92.515 14.57C91.875 15.38 90.705 15.51 89.905 14.87C89.105 14.22 88.975 13.05 89.625 12.24Z" fill="#008EAB"/>
<path fill-rule="evenodd" clip-rule="evenodd" d="M43.425 19.28C44.375 19.28 45.785 19.29 47.075 19.37C47.415 19.39 47.745 19.42 48.085 19.45L49.395 30.14C49.065 30.14 48.735 30.17 48.405 30.21C42.975 30.88 39.125 35.83 39.785 41.27C40.455 46.71 45.395 50.58 50.815 49.92C51.145 49.88 51.475 49.82 51.795 49.75L54.485 71.67L54.075 71.74C52.395 72.02 50.665 72.4 48.895 72.86C39.925 65.71 34.475 55.73 31.365 48.09C30.455 46.17 29.825 44.08 29.555 41.85C28.355 32.11 34.465 22.2 43.425 19.27V19.28Z" fill="#017089"/>
<path fill-rule="evenodd" clip-rule="evenodd" d="M42.395 19.5C42.725 19.46 43.055 19.43 43.385 19.4L44.715 30.26C44.385 30.26 44.055 30.29 43.725 30.33C38.295 31 34.445 35.95 35.105 41.39C35.775 46.83 40.715 50.7 46.135 50.04C46.465 50 46.795 49.94 47.115 49.87L49.825 71.96C49.535 72.3 49.245 72.64 48.955 72.99C37.945 64.98 30.585 56.86 26.885 48.63C25.865 46.6 25.165 44.36 24.875 41.98C23.515 30.91 31.355 20.84 42.395 19.49V19.5Z" fill="#008EAB"/>
<path fill-rule="evenodd" clip-rule="evenodd" d="M64.995 19.64C63.485 19.53 61.775 19.89 60.635 19.94L59.775 29.8C60.105 29.8 60.435 29.8 60.765 29.84C66.205 30.32 70.215 35.13 69.745 40.6C69.265 46.07 64.475 50.11 59.035 49.64C58.705 49.61 58.375 49.57 58.055 49.5L56.215 70.55C56.265 70.6 56.315 70.65 56.365 70.7C58.115 71.34 59.505 71.86 60.535 72.24C68.945 62.75 75.045 55.26 78.195 47.55C79.145 45.48 79.765 43.22 79.975 40.83C80.835 30.95 74.195 22.16 65.005 19.64H64.995Z" fill="#017089"/>
<path fill-rule="evenodd" clip-rule="evenodd" d="M65.985 19.62C65.655 19.59 65.325 19.57 64.995 19.56L64.035 30.47C64.365 30.47 64.695 30.47 65.025 30.51C70.465 30.99 74.475 35.8 74.005 41.27C73.525 46.74 68.735 50.78 63.295 50.31C62.965 50.28 62.635 50.24 62.315 50.17L60.375 72.36C60.675 72.69 60.975 73.02 61.285 73.35C71.985 64.95 79.045 56.57 82.455 48.22C83.405 46.15 84.025 43.89 84.235 41.49C85.205 30.37 77.035 20.58 65.985 19.61V19.62Z" fill="#008EAB"/>
</g>
<defs>
<linearGradient id="paint0_linear_14_3607" x1="71.175" y1="134.84" x2="60.945" y2="110.4" gradientUnits="userSpaceOnUse">
<stop stop-color="#000001" stop-opacity="0"/>
<stop offset="1" stop-color="#466674"/>
</linearGradient>
<linearGradient id="paint1_linear_14_3607" x1="88.615" y1="78.83" x2="69.085" y2="56.43" gradientUnits="userSpaceOnUse">
<stop stop-color="#000001" stop-opacity="0"/>
<stop offset="1" stop-color="#000001"/>
</linearGradient>
<clipPath id="clip0_14_3607">
<rect width="109.61" height="128" fill="white" transform="translate(0.695007)"/>
</clipPath>
</defs>
</svg>
