<svg width="32" height="32" viewBox="0 0 32 32" fill="none" xmlns="http://www.w3.org/2000/svg">
<path d="M9.46967 16.5303C9.17678 16.2374 9.17678 15.7626 9.46967 15.4697L11.4697 13.4697C11.7626 13.1768 12.2374 13.1768 12.5303 13.4697C12.8232 13.7626 12.8232 14.2374 12.5303 14.5303L11.8107 15.25L19 15.25C19.4142 15.25 19.75 15.5858 19.75 16C19.75 16.4142 19.4142 16.75 19 16.75L11.8107 16.75L12.5303 17.4697C12.8232 17.7626 12.8232 18.2374 12.5303 18.5303C12.2374 18.8232 11.7626 18.8232 11.4697 18.5303L9.46967 16.5303Z" fill="#FF3B30"/>
<path fill-rule="evenodd" clip-rule="evenodd" d="M17.9453 5.25H19.0551C20.4227 5.24998 21.525 5.24996 22.392 5.36652C23.2921 5.48754 24.05 5.74643 24.6519 6.34835C25.2538 6.95027 25.5127 7.70814 25.6337 8.60825C25.7503 9.47522 25.7502 10.5775 25.7502 11.9451V20.0549C25.7502 21.4225 25.7503 22.5248 25.6337 23.3918C25.5127 24.2919 25.2538 25.0497 24.6519 25.6517C24.05 26.2536 23.2921 26.5125 22.392 26.6335C21.525 26.75 20.4227 26.75 19.0551 26.75H17.9453C16.5778 26.75 15.4754 26.75 14.6085 26.6335C13.7084 26.5125 12.9505 26.2536 12.3486 25.6517C11.9496 25.2527 11.7007 24.7844 11.543 24.2498C10.5917 24.2486 9.79906 24.2381 9.15689 24.1518C8.39294 24.0491 7.7306 23.8268 7.20191 23.2981C6.67321 22.7694 6.45093 22.1071 6.34822 21.3431C6.24996 20.6123 6.24998 19.6865 6.25 18.5537V13.4463C6.24998 12.3135 6.24996 11.3877 6.34822 10.6569C6.45093 9.89294 6.67321 9.2306 7.20191 8.7019C7.7306 8.17321 8.39294 7.95093 9.15689 7.84822C9.79906 7.76188 10.5917 7.75142 11.543 7.75017C11.7007 7.21562 11.9496 6.74729 12.3486 6.34835C12.9505 5.74643 13.7084 5.48754 14.6085 5.36652C15.4754 5.24996 16.5778 5.24998 17.9453 5.25ZM11.252 21.0042C11.2556 21.6487 11.2662 22.2293 11.3028 22.7491C10.4684 22.7459 9.848 22.7312 9.35676 22.6652C8.75914 22.5848 8.46611 22.441 8.26257 22.2374C8.05903 22.0339 7.91519 21.7409 7.83484 21.1432C7.7516 20.5241 7.75 19.6997 7.75 18.5V13.5C7.75 12.3003 7.7516 11.476 7.83484 10.8568C7.91519 10.2591 8.05903 9.9661 8.26257 9.76256C8.46611 9.55902 8.75914 9.41519 9.35676 9.33484C9.848 9.2688 10.4684 9.25415 11.3028 9.25091C11.2662 9.77073 11.2556 10.3513 11.252 10.9958C11.2497 11.41 11.5836 11.7477 11.9978 11.75C12.412 11.7523 12.7496 11.4184 12.7519 11.0042C12.758 9.91068 12.7864 9.1356 12.8945 8.54735C12.9986 7.98054 13.1658 7.65246 13.4092 7.40901C13.686 7.13225 14.0746 6.9518 14.8083 6.85315C15.5637 6.75159 16.5648 6.75 18.0002 6.75H19.0002C20.4356 6.75 21.4367 6.75159 22.1921 6.85315C22.9259 6.9518 23.3144 7.13225 23.5912 7.40901C23.868 7.68577 24.0484 8.07435 24.1471 8.80812C24.2486 9.56347 24.2502 10.5646 24.2502 12V20C24.2502 21.4354 24.2486 22.4365 24.1471 23.1919C24.0484 23.9257 23.868 24.3142 23.5912 24.591C23.3144 24.8678 22.9259 25.0482 22.1921 25.1469C21.4367 25.2484 20.4356 25.25 19.0002 25.25H18.0002C16.5648 25.25 15.5637 25.2484 14.8083 25.1469C14.0746 25.0482 13.686 24.8678 13.4092 24.591C13.1658 24.3475 12.9986 24.0195 12.8945 23.4527C12.7864 22.8644 12.758 22.0893 12.7519 20.9958C12.7496 20.5816 12.412 20.2477 11.9978 20.25C11.5836 20.2523 11.2497 20.59 11.252 21.0042Z" fill="#FF3B30"/>
</svg>
