<svg width="32" height="32" viewBox="0 0 32 32" fill="none" xmlns="http://www.w3.org/2000/svg">
<path fill-rule="evenodd" clip-rule="evenodd" d="M16 8.29175C11.7428 8.29175 8.29169 11.7429 8.29169 16.0001C8.29169 20.2573 11.7428 23.7084 16 23.7084C20.2572 23.7084 23.7084 20.2573 23.7084 16.0001C23.7084 11.7429 20.2572 8.29175 16 8.29175ZM7.04169 16.0001C7.04169 11.0525 11.0525 7.04175 16 7.04175C20.9476 7.04175 24.9584 11.0525 24.9584 16.0001C24.9584 20.9476 20.9476 24.9584 16 24.9584C11.0525 24.9584 7.04169 20.9476 7.04169 16.0001ZM16 12.4584C15.4823 12.4584 15.0625 12.8781 15.0625 13.3959C15.0625 13.7411 14.7827 14.0209 14.4375 14.0209C14.0923 14.0209 13.8125 13.7411 13.8125 13.3959C13.8125 12.1878 14.7919 11.2084 16 11.2084C17.2081 11.2084 18.1875 12.1878 18.1875 13.3959C18.1875 14.1987 17.7547 14.8997 17.1127 15.2796C16.9488 15.3766 16.8134 15.4825 16.7253 15.5864C16.6396 15.6873 16.625 15.7531 16.625 15.7917V16.8334C16.625 17.1786 16.3452 17.4584 16 17.4584C15.6548 17.4584 15.375 17.1786 15.375 16.8334V15.7917C15.375 15.3702 15.5596 15.0281 15.7722 14.7776C15.9822 14.5301 16.2441 14.3411 16.4762 14.2037C16.7537 14.0396 16.9375 13.7389 16.9375 13.3959C16.9375 12.8781 16.5178 12.4584 16 12.4584ZM16 20.1667C16.4603 20.1667 16.8334 19.7937 16.8334 19.3334C16.8334 18.8732 16.4603 18.5001 16 18.5001C15.5398 18.5001 15.1667 18.8732 15.1667 19.3334C15.1667 19.7937 15.5398 20.1667 16 20.1667Z" fill="#003D50"/>
</svg>
