<svg width="25" height="24" viewBox="0 0 25 24" fill="none" xmlns="http://www.w3.org/2000/svg">
<path fill-rule="evenodd" clip-rule="evenodd" d="M2.83537 7.87495C2.29491 9.00229 2.48463 10.3208 2.86407 12.9579L3.14284 14.8952C3.63025 18.2827 3.87396 19.9764 5.04903 20.9882C6.22409 22 7.94737 22 11.3939 22H13.6061C17.0526 22 18.7759 22 19.951 20.9882C21.126 19.9764 21.3697 18.2827 21.8572 14.8952L22.1359 12.9579C22.5154 10.3208 22.7051 9.00229 22.1646 7.87495C21.6242 6.7476 20.4738 6.06234 18.1731 4.69181L16.7882 3.86687C14.699 2.62229 13.6543 2 12.5 2C11.3457 2 10.301 2.62229 8.21175 3.86687L6.82691 4.69181C4.52619 6.06234 3.37583 6.7476 2.83537 7.87495ZM8.7501 17.9998C8.7501 17.5856 9.08589 17.2498 9.5001 17.2498H15.5001C15.9143 17.2498 16.2501 17.5856 16.2501 17.9998C16.2501 18.414 15.9143 18.7498 15.5001 18.7498H9.5001C9.08589 18.7498 8.7501 18.414 8.7501 17.9998Z" fill="#047B7B"/>
</svg>
