<svg width="32" height="32" viewBox="0 0 32 32" fill="none" xmlns="http://www.w3.org/2000/svg">
<path fill-rule="evenodd" clip-rule="evenodd" d="M13.6721 8.65168C13.462 8.71824 13.2545 8.79389 13.0502 8.87851C12.115 9.26589 11.2652 9.83368 10.5494 10.5495C9.83362 11.2653 9.26583 12.115 8.87845 13.0502C8.57102 13.7924 8.382 14.5769 8.31707 15.3751H12.0508C12.0775 14.4618 12.1625 13.5618 12.3038 12.7089C12.4771 11.6631 12.7331 10.6994 13.0627 9.87541C13.2426 9.42555 13.4459 9.01376 13.6721 8.65168ZM16 7.04175C14.8236 7.04175 13.6587 7.27346 12.5718 7.72366C11.4849 8.17386 10.4974 8.83372 9.66552 9.66558C8.83366 10.4974 8.1738 11.485 7.7236 12.5719C7.2734 13.6588 7.04169 14.8237 7.04169 16.0001C7.04169 17.1765 7.2734 18.3414 7.7236 19.4283C8.1738 20.5152 8.83366 21.5027 9.66552 22.3346C10.4974 23.1664 11.4849 23.8263 12.5718 24.2765C13.6587 24.7267 14.8236 24.9584 16 24.9584C17.1764 24.9584 18.3414 24.7267 19.4282 24.2765C20.5151 23.8263 21.5027 23.1664 22.3345 22.3346C23.1664 21.5027 23.8262 20.5152 24.2764 19.4283C24.7266 18.3414 24.9584 17.1765 24.9584 16.0001C24.9584 14.8237 24.7266 13.6588 24.2764 12.5719C23.8262 11.485 23.1664 10.4974 22.3345 9.66558C21.5027 8.83373 20.5151 8.17386 19.4282 7.72366C18.3414 7.27346 17.1764 7.04175 16 7.04175ZM16 8.29175C15.7823 8.29175 15.501 8.39657 15.174 8.73525C14.8445 9.07642 14.5147 9.61113 14.2233 10.3396C13.9338 11.0633 13.6988 11.9369 13.537 12.9132C13.4072 13.6965 13.3277 14.5277 13.3014 15.3751L18.6987 15.3751C18.6724 14.5277 18.5928 13.6965 18.463 12.9132C18.3013 11.9369 18.0662 11.0633 17.7767 10.3396C17.4853 9.61113 17.1555 9.07642 16.826 8.73525C16.499 8.39657 16.2177 8.29175 16 8.29175ZM19.9492 15.3751C19.9226 14.4618 19.8375 13.5618 19.6962 12.7089C19.5229 11.6631 19.2669 10.6994 18.9373 9.87541C18.7574 9.42556 18.5541 9.01376 18.328 8.65168C18.5381 8.71824 18.7456 8.79389 18.9499 8.87851C19.8851 9.26589 20.7349 9.83368 21.4506 10.5495C22.1664 11.2653 22.7342 12.115 23.1216 13.0502C23.429 13.7924 23.618 14.5769 23.683 15.3751H19.9492ZM18.6987 16.6251L13.3014 16.6251C13.3277 17.4725 13.4072 18.3037 13.537 19.0869C13.6988 20.0632 13.9338 20.9368 14.2233 21.6605C14.5147 22.389 14.8445 22.9237 15.174 23.2649C15.501 23.6036 15.7823 23.7084 16 23.7084C16.2177 23.7084 16.499 23.6036 16.826 23.2649C17.1555 22.9237 17.4853 22.389 17.7767 21.6605C18.0662 20.9368 18.3013 20.0632 18.463 19.087C18.5928 18.3037 18.6724 17.4725 18.6987 16.6251ZM18.328 23.3485C18.5541 22.9864 18.7574 22.5746 18.9373 22.1248C19.2669 21.3008 19.5229 20.3371 19.6962 19.2913C19.8375 18.4383 19.9226 17.5383 19.9492 16.6251H23.683C23.618 17.4233 23.429 18.2077 23.1216 18.9499C22.7342 19.8852 22.1664 20.7349 21.4506 21.4507C20.7349 22.1665 19.8851 22.7343 18.9499 23.1217C18.7456 23.2063 18.5381 23.2819 18.328 23.3485ZM13.6721 23.3485C13.4459 22.9864 13.2426 22.5746 13.0627 22.1248C12.7331 21.3008 12.4771 20.3371 12.3038 19.2913C12.1625 18.4383 12.0775 17.5383 12.0508 16.6251H8.31707C8.382 17.4232 8.57102 18.2077 8.87845 18.9499C9.26583 19.8852 9.83362 20.7349 10.5494 21.4507C11.2652 22.1665 12.115 22.7343 13.0502 23.1217C13.2545 23.2063 13.462 23.2819 13.6721 23.3485Z" fill="#008000"/>
</svg>
