<svg width="32" height="32" viewBox="0 0 32 32" fill="none" xmlns="http://www.w3.org/2000/svg">
<path fill-rule="evenodd" clip-rule="evenodd" d="M8.70831 14.4528C8.70831 10.3703 11.9625 7.04175 16 7.04175C20.0375 7.04175 23.2916 10.3703 23.2916 14.4528C23.2916 16.4237 22.73 18.54 21.737 20.3683C20.7453 22.1943 19.2963 23.7811 17.4837 24.6283C16.5421 25.0684 15.4578 25.0684 14.5162 24.6283C12.7036 23.7811 11.2547 22.1943 10.2629 20.3683C9.27 18.54 8.70831 16.4237 8.70831 14.4528ZM16 8.29175C12.6737 8.29175 9.95831 11.0396 9.95831 14.4528C9.95831 16.2004 10.4605 18.1129 11.3614 19.7717C12.2635 21.4328 13.5383 22.7914 15.0455 23.4959C15.6517 23.7792 16.3483 23.7792 16.9544 23.4959C18.4616 22.7914 19.7364 21.4328 20.6386 19.7717C21.5395 18.1129 22.0416 16.2004 22.0416 14.4528C22.0416 11.0396 19.3263 8.29175 16 8.29175ZM16 12.4584C14.9644 12.4584 14.125 13.2979 14.125 14.3334C14.125 15.3689 14.9644 16.2084 16 16.2084C17.0355 16.2084 17.875 15.3689 17.875 14.3334C17.875 13.2979 17.0355 12.4584 16 12.4584ZM12.875 14.3334C12.875 12.6075 14.2741 11.2084 16 11.2084C17.7259 11.2084 19.125 12.6075 19.125 14.3334C19.125 16.0593 17.7259 17.4584 16 17.4584C14.2741 17.4584 12.875 16.0593 12.875 14.3334Z" fill="#34C759"/>
</svg>
