<svg width="104" height="104" viewBox="0 0 104 104" fill="none" xmlns="http://www.w3.org/2000/svg">
<rect width="104" height="104" rx="52" fill="url(#paint0_linear_161_2752)"/>
<path fill-rule="evenodd" clip-rule="evenodd" d="M30.7868 31.2871C40.6055 21.4684 55.5293 19.882 67.0013 26.5127C68.5953 27.4339 69.1403 29.4728 68.2193 31.0667C67.298 32.6606 65.259 33.2058 63.6653 32.2846C54.7407 27.1263 43.1318 28.3702 35.5008 36.0012C26.3886 45.1134 26.3886 59.8873 35.5008 68.9996C43.1318 76.6303 54.7407 77.8743 63.6653 72.7159C65.259 71.7949 67.298 72.3399 68.2193 73.9339C69.1403 75.5279 68.5953 77.5666 67.0013 78.4879C55.5293 85.1186 40.6055 83.5323 30.7868 73.7136C19.0711 61.9979 19.0711 43.0028 30.7868 31.2871ZM72.9763 40.1433C74.278 38.8415 76.3887 38.8415 77.6903 40.1433L83.9943 46.4473C84.5893 47.0423 85.1687 47.6213 85.6193 48.1519C86.114 48.7349 86.646 49.4746 86.9597 50.4403C87.3947 51.7793 87.3947 53.2216 86.9597 54.5603C86.646 55.5263 86.114 56.2659 85.6193 56.8486C85.1687 57.3793 84.5893 57.9586 83.9943 58.5533L77.6903 64.8573C76.3887 66.1589 74.278 66.1589 72.9763 64.8573C71.6747 63.5556 71.6747 61.4449 72.9763 60.1433L77.286 55.8336H52C50.159 55.8336 48.6667 54.3413 48.6667 52.5003C48.6667 50.6593 50.159 49.1669 52 49.1669H77.286L72.9763 44.8573C71.6747 43.5556 71.6747 41.445 72.9763 40.1433Z" fill="white"/>
<defs>
<linearGradient id="paint0_linear_161_2752" x1="118.921" y1="-50.716" x2="-40.4833" y2="-21.545" gradientUnits="userSpaceOnUse">
<stop stop-color="#065C73"/>
<stop offset="1" stop-color="#047B7B"/>
</linearGradient>
</defs>
</svg>
