<svg width="32" height="32" viewBox="0 0 32 32" fill="none" xmlns="http://www.w3.org/2000/svg">
<path d="M15.8149 3.18743C17.1327 2.30884 18.8449 2.29063 20.1811 3.14098L25.7214 6.66659H27.9998C28.7362 6.66659 29.3331 7.26355 29.3331 7.99992V19.9999C29.3331 20.7363 28.7362 21.3332 27.9998 21.3332H25.9735C26.0529 22.5963 25.4578 23.8803 24.2607 24.5985L17.4695 28.6733C16.6122 29.1876 15.5479 29.1756 14.7086 28.6632C13.7749 29.4889 12.3375 29.5799 11.2948 28.7605L4.44045 23.3749C3.41857 22.5721 3.16016 21.2004 3.6878 20.1129C3.04339 19.6076 2.66675 18.8339 2.66675 18.0145V8C2.66675 7.26363 3.26371 6.66667 4.00008 6.66667H10.596L15.8149 3.18743ZM5.5636 18.1936L6.48631 17.3863C8.12659 15.9509 10.614 16.0931 12.0801 17.7059L15.683 21.6691C16.8423 22.9444 17.0538 24.818 16.2106 26.3187L22.8887 22.3119C23.2639 22.0868 23.3997 21.6368 23.2598 21.2577L17.357 12.994C17.0254 12.5298 16.4353 12.328 15.8889 12.4919L12.5752 13.486C11.1657 13.9088 9.63792 13.5236 8.5974 12.4831L8.20704 12.0928C7.44969 11.3354 7.25384 10.2576 7.57255 9.33334H5.33341V18.0145L5.5636 18.1936ZM18.7495 5.39075C18.3041 5.1073 17.7334 5.11336 17.2941 5.40623L10.0927 10.2072L10.483 10.5975C10.8299 10.9444 11.3391 11.0727 11.809 10.9318L15.1226 9.9377C16.7618 9.44594 18.5323 10.0515 19.527 11.444L24.6859 18.6665H26.6665V9.33326H25.7214C25.2142 9.33326 24.7175 9.18864 24.2897 8.91636L18.7495 5.39075ZM8.24232 19.3931L6.08799 21.2781L12.9423 26.6637L13.8809 25.0212C14.1675 24.5196 14.0985 23.8904 13.7098 23.4628L10.1069 19.4996C9.61821 18.962 8.78908 18.9147 8.24232 19.3931Z" fill="white"/>
</svg>
