<svg width="129" height="128" viewBox="0 0 129 128" fill="none" xmlns="http://www.w3.org/2000/svg">
<g clip-path="url(#clip0_165_6069)">
<path d="M64.5001 128C68.6393 127.996 72.7208 127.03 76.423 125.179C80.1252 123.328 83.3467 120.642 85.8335 117.333H43.1668C45.6536 120.642 48.8751 123.328 52.5772 125.179C56.2794 127.03 60.361 127.996 64.5001 128ZM112.5 64.2668V48.0001C112.494 45.1042 112.245 42.214 111.753 39.3601L44.4468 106.667H106.527C109.818 106.662 113.034 105.683 115.77 103.853C118.506 102.023 120.638 99.424 121.899 96.3837C123.16 93.3433 123.492 89.9978 122.854 86.7689C122.216 83.54 120.636 80.5724 118.313 78.2401C116.469 76.4107 115.006 74.2339 114.008 71.8354C113.01 69.437 112.498 66.8645 112.5 64.2668ZM126.937 1.56275C125.937 0.562902 124.581 0.00122019 123.167 0.00122019C121.753 0.00122019 120.396 0.562902 119.396 1.56275L102.281 18.6667C97.8882 12.8112 92.1797 8.07083 85.6167 4.82824C79.0536 1.58565 71.8201 -0.0682504 64.5001 8.12807e-05C51.7758 0.0198286 39.5783 5.0833 30.5808 14.0808C21.5833 23.0782 16.5199 35.2758 16.5001 48.0001V64.2668C16.5027 66.8645 15.9903 69.437 14.9924 71.8354C13.9946 74.2339 12.5312 76.4107 10.6868 78.2401C7.58393 81.3792 5.84061 85.613 5.83344 90.0267C5.82562 92.8112 6.54243 95.5498 7.91344 97.9734C9.65888 101.181 12.4123 103.725 15.7481 105.211L2.06277 118.896C1.55339 119.388 1.14708 119.977 0.867567 120.627C0.588052 121.278 0.440925 121.978 0.434772 122.686C0.428618 123.394 0.56356 124.096 0.831725 124.752C1.09989 125.407 1.49591 126.003 1.99667 126.504C2.49743 127.004 3.09291 127.4 3.74835 127.668C4.4038 127.937 5.10609 128.072 5.81425 128.065C6.5224 128.059 7.22224 127.912 7.87293 127.633C8.52362 127.353 9.11212 126.947 9.60411 126.437L126.937 9.10408C127.937 8.10393 128.499 6.74762 128.499 5.33342C128.499 3.91921 127.937 2.5629 126.937 1.56275Z" fill="#065C73"/>
</g>
<defs>
<clipPath id="clip0_165_6069">
<rect width="128" height="128" fill="white" transform="translate(0.5)"/>
</clipPath>
</defs>
</svg>
