<svg width="28" height="30" viewBox="0 0 28 30" fill="none" xmlns="http://www.w3.org/2000/svg">
<path fill-rule="evenodd" clip-rule="evenodd" d="M14.0001 0.666656C8.29313 0.666656 3.66674 5.29305 3.66674 11V11.9388C3.66674 12.868 3.39169 13.7765 2.87624 14.5496L1.34477 16.8468C-0.432689 19.513 0.924254 23.137 4.01571 23.9802C5.02319 24.2549 6.03918 24.4874 7.06106 24.6774L7.06359 24.6843C8.08892 27.4201 10.8293 29.3333 14 29.3333C17.1706 29.3333 19.9111 27.4201 20.9364 24.6843L20.9389 24.6775C21.9608 24.4874 22.9769 24.255 23.9844 23.9802C27.0759 23.137 28.4328 19.513 26.6554 16.8468L25.1239 14.5496C24.6085 13.7765 24.3334 12.868 24.3334 11.9388V11C24.3334 5.29305 19.707 0.666656 14.0001 0.666656ZM18.502 25.0493C15.5113 25.4066 12.4886 25.4066 9.49801 25.0493C10.4459 26.4113 12.0947 27.3333 14 27.3333C15.9053 27.3333 17.554 26.4113 18.502 25.0493ZM5.66674 11C5.66674 6.39762 9.3977 2.66666 14.0001 2.66666C18.6024 2.66666 22.3334 6.39762 22.3334 11V11.9388C22.3334 13.2629 22.7253 14.5573 23.4598 15.659L24.9913 17.9562C26.0115 19.4866 25.2326 21.5667 23.4582 22.0506C17.2659 23.7395 10.7343 23.7395 4.54194 22.0506C2.7675 21.5667 1.98864 19.4866 3.00887 17.9562L4.54034 15.659C5.27481 14.5573 5.66674 13.2629 5.66674 11.9388V11Z" fill="#065C73"/>
</svg>
