<svg width="105" height="104" viewBox="0 0 105 104" fill="none" xmlns="http://www.w3.org/2000/svg">
<g clip-path="url(#clip0_216_1579)">
<path d="M52.5 8.7533C28.6233 8.7533 9.25333 28.1233 9.25333 52C9.25333 75.8766 28.6233 95.2466 52.5 95.2466C76.3767 95.2466 95.7467 75.8766 95.7467 52C95.7467 28.1233 76.3767 8.7533 52.5 8.7533ZM52.5 86.58C33.4333 86.58 17.92 71.0666 17.92 52C17.92 32.9333 33.4333 17.42 52.5 17.42C71.5667 17.42 87.08 32.9333 87.08 52C87.08 71.0666 71.5667 86.58 52.5 86.58ZM55.75 21.6666L36.25 58.5H49.8567V82.3333L68.75 45.5H55.75V21.6666Z" fill="#065C73"/>
</g>
<defs>
<clipPath id="clip0_216_1579">
<rect width="104" height="104" fill="white" transform="translate(0.5)"/>
</clipPath>
</defs>
</svg>
