<svg width="105" height="104" viewBox="0 0 105 104" fill="none" xmlns="http://www.w3.org/2000/svg">
<path d="M87.1667 0H17.8333C8.2604 0 0.5 7.7604 0.5 17.3333V86.6667C0.5 96.2396 8.2604 104 17.8333 104H87.1667C96.7396 104 104.5 96.2396 104.5 86.6667V17.3333C104.5 7.7604 96.7396 0 87.1667 0Z" fill="#34C759"/>
<path d="M52.5002 17.3334C33.3555 17.3334 17.8335 32.8554 17.8335 52C17.8335 71.1447 33.3555 86.6667 52.5002 86.6667C71.6448 86.6667 87.1668 71.1447 87.1668 52C87.1668 32.8554 71.6448 17.3334 52.5002 17.3334Z" fill="#003D50"/>
<path d="M52.5002 13C44.7869 13.0003 37.2468 15.2877 30.8335 19.5732C24.4202 23.8587 19.4217 29.9499 16.47 37.0761C13.5182 44.2023 12.7457 52.0434 14.2503 59.6085C15.7549 67.1737 19.469 74.1229 24.9229 79.5772C30.3769 85.0316 37.3259 88.7464 44.8911 90.2515C52.4562 91.7566 60.2978 90.9845 67.4242 88.033C74.551 85.0812 80.6423 80.0825 84.9278 73.6686C89.2133 67.2547 91.5005 59.714 91.5002 52.0002" stroke="#003D50" stroke-linejoin="round"/>
<path d="M91.5002 52.0002C91.5002 41.6567 87.3913 31.7367 80.0774 24.4228C72.7635 17.1089 62.8437 13 52.5002 13" stroke="#003D50" stroke-linejoin="round" stroke-dasharray="1 1"/>
<path opacity="0.15" d="M60.8461 33.6179L44.5036 49.9575L38.3792 43.8331L28.1641 54.0422L34.2914 60.1695L44.5036 70.3846L54.7158 60.1695L71.0583 43.8302L60.8461 33.6179Z" fill="black"/>
<path d="M63.735 33.6179L47.3925 49.9575L41.2681 43.8331L31.053 54.0422L37.1803 60.1695L47.3925 70.3846L57.6076 60.1695L73.9472 43.8302L63.735 33.6179Z" fill="white"/>
</svg>
