<svg width="22" height="22" viewBox="0 0 22 22" fill="none" xmlns="http://www.w3.org/2000/svg">
<path fill-rule="evenodd" clip-rule="evenodd" d="M9.94513 0.250001H12.0549C13.4225 0.24998 14.5248 0.249963 15.3918 0.366524C16.2919 0.48754 17.0497 0.746434 17.6517 1.34835C17.9501 1.64682 18.1642 1.98363 18.319 2.35712C19.2511 2.47388 20.0336 2.73034 20.6517 3.3484C21.2536 3.95032 21.5125 4.70819 21.6335 5.6083C21.75 6.47527 21.75 7.57759 21.75 8.94518V13.0549C21.75 14.4225 21.75 15.5248 21.6335 16.3918C21.5125 17.2919 21.2536 18.0498 20.6517 18.6517C20.0336 19.2698 19.2511 19.5262 18.319 19.643C18.1642 20.0164 17.9501 20.3532 17.6517 20.6517C17.0497 21.2536 16.2919 21.5125 15.3918 21.6335C14.5248 21.75 13.4225 21.75 12.0549 21.75H9.94513C8.57754 21.75 7.47522 21.75 6.60825 21.6335C5.70814 21.5125 4.95027 21.2536 4.34835 20.6517C4.04991 20.3532 3.8358 20.0164 3.68101 19.643C2.74894 19.5262 1.96643 19.2698 1.34835 18.6517C0.746434 18.0498 0.48754 17.2919 0.366524 16.3918C0.249963 15.5248 0.24998 14.4225 0.250001 13.0549V8.94518C0.24998 7.57759 0.249963 6.47527 0.366524 5.6083C0.48754 4.70819 0.746434 3.95032 1.34835 3.3484C1.96642 2.73034 2.74892 2.47388 3.68096 2.35712C3.83576 1.98363 4.04988 1.64682 4.34835 1.34835C4.95027 0.746434 5.70814 0.48754 6.60825 0.366524C7.47522 0.249963 8.57754 0.24998 9.94513 0.250001ZM3.32844 3.94047C2.89082 4.04593 2.618 4.20007 2.40901 4.40906C2.13225 4.68583 1.9518 5.0744 1.85315 5.80817C1.75159 6.56352 1.75 7.56464 1.75 9.00005V13.0001C1.75 14.4355 1.75159 15.4366 1.85315 16.1919C1.9518 16.9257 2.13225 17.3143 2.40901 17.591C2.61801 17.8 2.89083 17.9542 3.32845 18.0596C3.24997 17.2484 3.24998 16.2535 3.25 15.0549V6.94512C3.24998 5.74652 3.24997 4.75169 3.32844 3.94047ZM18.6716 18.0596C19.1092 17.9542 19.382 17.8 19.591 17.591C19.8678 17.3143 20.0482 16.9257 20.1469 16.1919C20.2484 15.4366 20.25 14.4355 20.25 13.0001V9.00005C20.25 7.56464 20.2484 6.56352 20.1469 5.80817C20.0482 5.0744 19.8678 4.68583 19.591 4.40906C19.382 4.20007 19.1092 4.04593 18.6716 3.94047C18.75 4.75169 18.75 5.74653 18.75 6.94513V15.0549C18.75 16.2535 18.75 17.2484 18.6716 18.0596ZM6.80812 1.85315C6.07435 1.9518 5.68577 2.13225 5.40901 2.40901C5.13225 2.68577 4.9518 3.07435 4.85315 3.80812C4.75159 4.56347 4.75 5.56458 4.75 7V15C4.75 16.4354 4.75159 17.4365 4.85315 18.1919C4.9518 18.9257 5.13225 19.3142 5.40901 19.591C5.68577 19.8678 6.07435 20.0482 6.80812 20.1469C7.56347 20.2484 8.56458 20.25 10 20.25H12C13.4354 20.25 14.4365 20.2484 15.1919 20.1469C15.9257 20.0482 16.3142 19.8678 16.591 19.591C16.8678 19.3142 17.0482 18.9257 17.1469 18.1919C17.2484 17.4365 17.25 16.4354 17.25 15V7C17.25 5.56459 17.2484 4.56347 17.1469 3.80812C17.0482 3.07435 16.8678 2.68577 16.591 2.40901C16.3142 2.13225 15.9257 1.9518 15.1919 1.85315C14.4365 1.75159 13.4354 1.75 12 1.75H10C8.56458 1.75 7.56347 1.75159 6.80812 1.85315ZM7.25 8C7.25 7.58579 7.58579 7.25 8 7.25H14C14.4142 7.25 14.75 7.58579 14.75 8C14.75 8.41422 14.4142 8.75 14 8.75H8C7.58579 8.75 7.25 8.41422 7.25 8ZM7.25 12C7.25 11.5858 7.58579 11.25 8 11.25H14C14.4142 11.25 14.75 11.5858 14.75 12C14.75 12.4142 14.4142 12.75 14 12.75H8C7.58579 12.75 7.25 12.4142 7.25 12ZM7.25 16C7.25 15.5858 7.58579 15.25 8 15.25H11C11.4142 15.25 11.75 15.5858 11.75 16C11.75 16.4142 11.4142 16.75 11 16.75H8C7.58579 16.75 7.25 16.4142 7.25 16Z" fill="#474747"/>
</svg>
