<svg width="16" height="16" viewBox="0 0 16 16" fill="none" xmlns="http://www.w3.org/2000/svg">
<path d="M10.4208 12.0447C9.54281 13.031 8.83644 13.662 8.79728 13.6968L8 14.4055L7.20275 13.6968C7.16359 13.662 6.45722 13.031 5.57922 12.0447C4.67675 12.238 4 13.0398 4 14C4 15.1045 4.89544 16 6 16H10C11.1046 16 12 15.1045 12 14C12 13.0398 11.3233 12.238 10.4208 12.0447Z" fill="#047B7B"/>
<path d="M8.00001 0C5.34911 0 3.20001 2.14909 3.20001 4.8C3.20001 8.53331 8.00001 12.8 8.00001 12.8C8.00001 12.8 12.8 8.53331 12.8 4.8C12.8 2.14909 10.6509 0 8.00001 0ZM8.00001 6.4C7.11639 6.4 6.40001 5.68359 6.40001 4.8C6.40001 3.91631 7.11639 3.2 8.00001 3.2C8.88364 3.2 9.60001 3.91631 9.60001 4.8C9.60001 5.68359 8.88367 6.4 8.00001 6.4Z" fill="#047B7B"/>
</svg>
