<svg width="24" height="24" viewBox="0 0 24 24" fill="none" xmlns="http://www.w3.org/2000/svg">
<rect width="24" height="24" rx="12" fill="#065C73"/>
<g clip-path="url(#clip0_63_1707)">
<path fill-rule="evenodd" clip-rule="evenodd" d="M12.7802 4.54029C13.1706 4.58091 13.4715 4.88466 13.5074 5.2756L13.6074 6.35966C13.6327 6.63279 13.8056 6.86685 14.0593 6.97091C14.3121 7.07466 14.6018 7.0281 14.8106 6.85216L15.6424 6.1506C15.9427 5.89748 16.3684 5.89123 16.6752 6.13623C17.0984 6.47373 17.4856 6.85685 17.8265 7.27716C18.0737 7.58185 18.0715 8.00904 17.8209 8.31091L17.1259 9.14841C16.9512 9.35873 16.9071 9.6481 17.0131 9.90029C17.119 10.1528 17.3546 10.324 17.6271 10.3472L18.7131 10.439C19.1046 10.4722 19.4096 10.77 19.4534 11.1606C19.5134 11.6981 19.5156 12.2425 19.4593 12.7803C19.4184 13.1709 19.1159 13.4706 18.7246 13.5069L17.6399 13.6075C17.3674 13.6328 17.1331 13.8059 17.0293 14.0594C16.9259 14.3125 16.9721 14.6015 17.1481 14.8103L17.849 15.6419C18.1021 15.9422 18.1087 16.3687 17.8634 16.6759C17.5259 17.0987 17.1427 17.485 16.7227 17.8259C16.4177 18.0734 15.9909 18.0709 15.6884 17.8203L14.8506 17.1253C14.6409 16.9512 14.3512 16.9069 14.0996 17.0125C13.8459 17.1187 13.6759 17.354 13.6527 17.6278L13.5602 18.7128C13.5268 19.1047 13.2293 19.41 12.8384 19.4534C12.3012 19.5134 11.7568 19.5153 11.2193 19.4597C10.8287 19.419 10.5299 19.1153 10.4934 18.7247L10.3921 17.6409C10.3665 17.3678 10.1943 17.1334 9.94025 17.029C9.85243 16.9931 9.75806 16.974 9.66306 16.974C9.489 16.974 9.32243 17.0356 9.18931 17.1478L8.35743 17.8493C8.05775 18.1022 7.63118 18.1084 7.32462 17.8637C6.9015 17.5262 6.51431 17.1431 6.17337 16.7228C5.92587 16.4175 5.92993 15.9912 6.18025 15.689L6.874 14.8519C7.04806 14.6415 7.09431 14.3522 6.98837 14.1C6.88181 13.8465 6.6465 13.6762 6.37275 13.6528L5.28806 13.5606C4.8965 13.5275 4.58993 13.2297 4.5465 12.839C4.4865 12.3019 4.48525 11.7575 4.54056 11.2197C4.58056 10.8297 4.88493 10.529 5.27525 10.4928L6.35993 10.3922C6.63337 10.3669 6.86775 10.1947 6.97181 9.94029C7.07525 9.68685 7.02775 9.3981 6.8515 9.18935L6.15056 8.35779C5.89743 8.05748 5.89087 7.63091 6.13618 7.32404C6.47368 6.90185 6.85712 6.51498 7.2765 6.17404C7.58118 5.92623 8.00868 5.92904 8.31087 6.17966L9.14868 6.87466C9.35868 7.04873 9.64806 7.0931 9.89962 6.98779C10.1531 6.88154 10.3234 6.64654 10.3465 6.37279L10.439 5.28748C10.4724 4.89623 10.7706 4.59029 11.1609 4.54685C11.6981 4.48716 12.2424 4.48498 12.7799 4.5406L12.7802 4.54029ZM12.3527 10.9972V9.98685H11.6487V10.9978L12.3527 10.9972ZM14.0134 10.2306C14.0134 10.0962 13.9031 9.98685 13.7693 9.98685H12.664V10.9978C12.664 11.1697 12.5243 11.3097 12.3524 11.3097H11.6471C11.4752 11.3097 11.3356 11.1697 11.3356 10.9978V9.98685H10.2302C10.0965 9.98685 9.98618 10.0962 9.98618 10.2306V13.769C9.98618 13.9037 10.0965 14.0131 10.2302 14.0131H13.769C13.9027 14.0131 14.0131 13.9037 14.0131 13.769V10.2306H14.0134ZM15.924 12.8306C15.5581 14.5672 14.1149 15.8359 12.3662 15.9928L12.7643 15.5503C12.8231 15.4862 12.8171 15.3875 12.7524 15.3297C12.6893 15.2719 12.5909 15.2772 12.5321 15.3412L11.884 16.0612C11.8268 16.1253 11.8312 16.224 11.8959 16.2819L12.6159 16.93C12.6452 16.9569 12.6834 16.9703 12.7202 16.9703C12.7627 16.9703 12.8056 16.9528 12.8365 16.9184C12.8937 16.8544 12.8893 16.7556 12.8246 16.6978L12.3881 16.3047C13.2656 16.2253 14.1074 15.8765 14.7821 15.3075C15.5184 14.6878 16.0327 13.8312 16.2296 12.8953C16.2471 12.8109 16.1927 12.7281 16.109 12.7103C16.0237 12.6925 15.9415 12.7465 15.9237 12.8309L15.924 12.8306ZM8.65962 12.5319L7.93962 11.8837C7.90868 11.8559 7.86775 11.8419 7.8265 11.8437C7.78525 11.8459 7.74712 11.8644 7.71931 11.8953L7.07118 12.6153C7.01243 12.6794 7.01837 12.7781 7.08306 12.8359C7.14618 12.8937 7.24462 12.8884 7.30337 12.8244L7.69587 12.3875C7.77525 13.265 8.12368 14.1065 8.69368 14.7822C9.31243 15.5178 10.1693 16.0315 11.1052 16.2287C11.1171 16.2312 11.1274 16.2322 11.1374 16.2322C11.2093 16.2322 11.2756 16.1819 11.2902 16.1081C11.3077 16.0237 11.2534 15.9409 11.1696 15.9231C9.43243 15.5572 8.16431 14.1134 8.00712 12.3656L8.44962 12.7644C8.51431 12.8219 8.61275 12.8169 8.6715 12.7528C8.72868 12.6884 8.72306 12.5897 8.65962 12.5319ZM12.1043 7.7181L11.3843 7.06998C11.3212 7.01216 11.2227 7.01716 11.164 7.08154C11.1068 7.1456 11.1124 7.24435 11.1759 7.30216L11.6124 7.69529C10.7349 7.77466 9.89431 8.12373 9.21837 8.69279C8.48212 9.31216 7.96931 10.1687 7.77212 11.1047C7.75462 11.189 7.80743 11.2722 7.89275 11.2897C7.90306 11.2922 7.91337 11.2931 7.92493 11.2931C7.99681 11.2931 8.0615 11.2428 8.07775 11.169C8.44368 9.43248 9.88681 8.16373 11.6343 8.00685L11.2362 8.44935C11.179 8.51341 11.1834 8.61216 11.2481 8.66998C11.3112 8.72779 11.4112 8.72248 11.4684 8.65841L12.1165 7.93841C12.1443 7.90779 12.159 7.86716 12.1562 7.8256C12.1546 7.78435 12.1356 7.7456 12.1046 7.71779L12.1043 7.7181ZM12.8949 7.77091C12.8112 7.7531 12.7274 7.80716 12.7096 7.89154C12.6921 7.97591 12.7465 8.05873 12.8302 8.07654C14.5674 8.44248 15.8356 9.88623 15.9927 11.634L15.5502 11.2359C15.4856 11.1781 15.3871 11.1831 15.3299 11.2475C15.2712 11.3115 15.2771 11.4103 15.3418 11.4681L16.0618 12.1162C16.0896 12.1422 16.1265 12.1565 16.1662 12.1565H16.1737C16.2149 12.1544 16.2546 12.1359 16.2824 12.105L16.9306 11.385C16.9877 11.3209 16.9821 11.2222 16.9187 11.1644C16.854 11.1065 16.7556 11.1119 16.6984 11.1759L16.3046 11.6128C16.2252 10.7356 15.8768 9.89373 15.3068 9.2181C14.6881 8.48248 13.8312 7.96873 12.8952 7.77154L12.8949 7.77091Z" fill="white"/>
</g>
<defs>
<clipPath id="clip0_63_1707">
<rect width="16" height="16" fill="white" transform="translate(4 4)"/>
</clipPath>
</defs>
</svg>
