<svg width="24" height="24" viewBox="0 0 24 24" fill="none" xmlns="http://www.w3.org/2000/svg">
<rect width="24" height="24" rx="12" fill="#065C73"/>
<g clip-path="url(#clip0_153_1669)">
<path fill-rule="evenodd" clip-rule="evenodd" d="M10.8597 5.23242C9.89822 5.23242 9.11887 6.01177 9.11887 6.97321C9.11887 8.52663 10.8597 9.89937 10.8597 9.89937C10.8597 9.89937 12.6005 8.52663 12.6005 6.97321C12.6005 6.01177 11.8211 5.23242 10.8597 5.23242ZM10.8597 8.02099C10.2813 8.02099 9.8125 7.55216 9.8125 6.97375C9.8125 6.39541 10.2813 5.92654 10.8597 5.92654C11.4381 5.92654 11.9069 6.39538 11.9069 6.97375C11.9069 7.55216 11.4381 8.02099 10.8597 8.02099ZM11.9206 9.47407C12.1776 9.51492 12.3907 9.57021 12.5397 9.63504H16.9198C17.6509 9.63504 18.2483 10.2325 18.2483 10.9636C18.2483 11.6948 17.6509 12.2922 16.9198 12.2922H16.2459C15.7562 12.2922 15.3548 12.6937 15.3548 13.1833C15.3548 13.6661 15.7465 14.0668 16.2322 14.0742C16.5059 14.078 16.7824 14.0744 17.0563 14.0744C17.9826 14.0744 18.7398 14.8315 18.7398 15.7577C18.7398 16.6841 17.9827 17.4411 17.0563 17.4411H15.3105V17.7698C15.3105 17.8798 15.2208 17.9694 15.1109 17.9694H14.7701C14.7701 17.2872 14.2168 16.7338 13.5345 16.7338C12.8522 16.7338 12.2989 17.2872 12.2989 17.9694H12.1697V12.9951H12.6132V15.1294C12.6132 15.2502 12.7112 15.3482 12.832 15.3482H15.3105V17.0036H17.0563C17.7412 17.0036 18.3023 16.4425 18.3023 15.7577C18.3023 15.073 17.7411 14.5119 17.0563 14.5119H16.2459C15.5147 14.5119 14.9173 13.9144 14.9173 13.1833C14.9173 12.4545 15.5124 11.8547 16.2459 11.8547H16.9197C17.4094 11.8547 17.8108 11.4533 17.8108 10.9636C17.8108 10.474 17.4094 10.0725 16.9197 10.0725H12.5397C12.2147 10.2141 11.5842 10.31 10.8597 10.31C9.80257 10.31 8.94562 10.1058 8.94562 9.85379C8.94562 9.69539 9.28444 9.55585 9.79872 9.47407C9.88102 9.56898 9.96822 9.66438 10.0584 9.75754C9.99034 9.78622 9.95179 9.81898 9.95179 9.85379C9.95179 9.9668 10.3583 10.0584 10.8597 10.0584C11.3611 10.0584 11.7676 9.96677 11.7676 9.85379C11.7676 9.81901 11.729 9.78622 11.661 9.75754C11.7511 9.66438 11.8383 9.56898 11.9206 9.47407ZM7.6346 17.1713C7.19379 17.1713 6.83649 17.5287 6.83649 17.9694C6.83649 18.4102 7.19379 18.7676 7.6346 18.7676C8.0754 18.7676 8.4327 18.4103 8.4327 17.9695C8.4327 17.5287 8.07543 17.1713 7.6346 17.1713ZM7.6346 18.2488C7.48016 18.2488 7.35528 18.1239 7.35528 17.9694C7.35528 17.815 7.48013 17.6901 7.6346 17.6901C7.78906 17.6901 7.91391 17.815 7.91391 17.9694C7.91391 18.1239 7.78906 18.2488 7.6346 18.2488ZM11.7323 16.7567H7.87188C8.44072 16.8674 8.87021 17.3683 8.87021 17.9695H11.7323V16.7567ZM6.39901 17.9695C6.39901 17.3684 6.8285 16.8674 7.39733 16.7567H5.26004V17.3709C5.26004 17.7006 5.52894 17.9695 5.85867 17.9695H6.39901ZM11.1336 12.0289H5.85865C5.52891 12.0289 5.26001 12.2978 5.26001 12.6275V16.3192H11.7322V12.6275C11.7323 12.2978 11.4634 12.0289 11.1336 12.0289ZM7.39113 13.7066L8.63499 12.9884C8.73926 12.928 8.87275 12.9636 8.93321 13.0679C8.99355 13.1722 8.95798 13.3057 8.85374 13.3661L7.60988 14.0842C7.50559 14.1447 7.37207 14.1091 7.31167 14.0048C7.25126 13.9005 7.28684 13.767 7.39113 13.7066ZM9.60031 14.6607L8.35644 15.3789C8.25218 15.4388 8.11899 15.4028 8.05908 15.2986C7.99917 15.1943 8.03515 15.0611 8.13942 15.0012L9.38328 14.283C9.48757 14.2231 9.62074 14.2591 9.68065 14.3634C9.74056 14.4677 9.70463 14.6008 9.60031 14.6607ZM9.87755 13.6381L7.33351 15.1069C7.22925 15.1673 7.0957 15.1317 7.0353 15.0274C6.9749 14.9232 7.01053 14.7896 7.11476 14.7292L9.6588 13.2604C9.76309 13.2 9.89661 13.2356 9.95701 13.3399C10.0174 13.4441 9.98184 13.5777 9.87755 13.6381ZM15.2708 14.9107C15.2447 14.844 15.2057 14.7824 15.1537 14.7255L13.7496 13.1898C13.632 13.0612 13.482 12.9951 13.3078 12.9951H13.0508V14.9107H15.2708V14.9107ZM13.5345 17.1713C13.0937 17.1713 12.7364 17.5287 12.7364 17.9694C12.7364 18.4102 13.0937 18.7676 13.5345 18.7676C13.9753 18.7676 14.3326 18.4102 14.3326 17.9694C14.3326 17.5287 13.9753 17.1713 13.5345 17.1713ZM13.5345 18.2488C13.3801 18.2488 13.2551 18.1239 13.2551 17.9694C13.2551 17.815 13.3801 17.6901 13.5345 17.6901C13.6889 17.6901 13.8139 17.815 13.8139 17.9694C13.8139 18.1239 13.689 18.2488 13.5345 18.2488Z" fill="white"/>
</g>
<defs>
<clipPath id="clip0_153_1669">
<rect width="14" height="14" fill="white" transform="translate(5 5)"/>
</clipPath>
</defs>
</svg>
