<svg width="103" height="104" viewBox="0 0 103 104" fill="none" xmlns="http://www.w3.org/2000/svg">
<path d="M51.5 103.054C77.608 103.054 98.7728 81.8898 98.7728 55.7818C98.7728 29.6738 77.608 8.50903 51.5 8.50903C25.392 8.50903 4.22729 29.6738 4.22729 55.7818C4.22729 81.8898 25.392 103.054 51.5 103.054Z" fill="#E7EFFF"/>
<path d="M51.5 103.054C77.608 103.054 98.7728 81.8898 98.7728 55.7818C98.7728 29.6738 77.608 8.50903 51.5 8.50903C25.392 8.50903 4.22729 29.6738 4.22729 55.7818C4.22729 81.8898 25.392 103.054 51.5 103.054Z" fill="#E7EFFF"/>
<path d="M23.1363 21.7454C23.1358 21.92 23.0869 22.0911 22.9952 22.2396C22.9034 22.3881 22.7723 22.5083 22.6163 22.5869C21.5258 23.1296 20.5534 23.8826 19.7551 24.8026C18.9568 25.7227 18.3483 26.7915 17.9647 27.9476L17.4636 29.6116C17.4014 29.8008 17.2811 29.9655 17.1198 30.0822C16.9586 30.199 16.7645 30.2618 16.5654 30.2618C16.3663 30.2618 16.1723 30.199 16.011 30.0822C15.8497 29.9655 15.7294 29.8008 15.6672 29.6116L15.1189 27.9476C14.7353 26.7915 14.1268 25.7227 13.3285 24.8026C12.5302 23.8826 11.5578 23.1296 10.4672 22.5869C10.3124 22.5075 10.1824 22.387 10.0917 22.2385C10.0009 22.0901 9.95288 21.9194 9.95288 21.7454C9.95288 21.5714 10.0009 21.4008 10.0917 21.2523C10.1824 21.1038 10.3124 20.9833 10.4672 20.904C11.5578 20.3613 12.5302 19.6082 13.3285 18.6882C14.1268 17.7682 14.7353 16.6994 15.1189 15.5432L15.6672 13.8792C15.7294 13.6901 15.8497 13.5254 16.011 13.4086C16.1723 13.2919 16.3663 13.229 16.5654 13.229C16.7645 13.229 16.9586 13.2919 17.1198 13.4086C17.2811 13.5254 17.4014 13.6901 17.4636 13.8792L18.012 15.5432C18.3956 16.6994 19.004 17.7682 19.8024 18.6882C20.6007 19.6082 21.5731 20.3613 22.6636 20.904C22.8107 20.9888 22.9322 21.1118 23.0154 21.2598C23.0986 21.4079 23.1404 21.5756 23.1363 21.7454ZM89.3182 46.3272C89.3176 46.5018 89.2688 46.6729 89.177 46.8214C89.0852 46.9699 88.9541 47.0901 88.7981 47.1687C87.7076 47.7114 86.7352 48.4644 85.9369 49.3845C85.1386 50.3045 84.5301 51.3733 84.1465 52.5294L83.6454 54.1934C83.5833 54.3826 83.4629 54.5473 83.3017 54.664C83.1404 54.7808 82.9464 54.8437 82.7472 54.8437C82.5481 54.8437 82.3541 54.7808 82.1928 54.664C82.0315 54.5473 81.9112 54.3826 81.8491 54.1934L81.3007 52.5294C80.9171 51.3733 80.3086 50.3045 79.5103 49.3845C78.712 48.4644 77.7396 47.7114 76.6491 47.1687C76.4942 47.0894 76.3642 46.9688 76.2735 46.8204C76.1827 46.6719 76.1347 46.5013 76.1347 46.3272C76.1347 46.1532 76.1827 45.9826 76.2735 45.8341C76.3642 45.6857 76.4942 45.5651 76.6491 45.4858C77.7396 44.9431 78.712 44.19 79.5103 43.27C80.3086 42.35 80.9171 41.2812 81.3007 40.1251L81.8491 38.4611C81.9112 38.2719 82.0315 38.1072 82.1928 37.9904C82.3541 37.8737 82.5481 37.8108 82.7472 37.8108C82.9464 37.8108 83.1404 37.8737 83.3017 37.9904C83.4629 38.1072 83.5833 38.2719 83.6454 38.4611L84.1938 40.1251C84.5774 41.2812 85.1859 42.35 85.9842 43.27C86.7825 44.19 87.7549 44.9431 88.8454 45.4858C88.9925 45.5707 89.1141 45.6936 89.1973 45.8417C89.2804 45.9897 89.3222 46.1575 89.3182 46.3272Z" fill="#FFA100"/>
<path d="M4.22723 6.61816C5.79371 6.61816 7.0636 5.34828 7.0636 3.7818C7.0636 2.21532 5.79371 0.945435 4.22723 0.945435C2.66075 0.945435 1.39087 2.21532 1.39087 3.7818C1.39087 5.34828 2.66075 6.61816 4.22723 6.61816Z" fill="#FF4D69"/>
<path d="M91.209 11.3455C92.7755 11.3455 94.0454 10.0756 94.0454 8.50909C94.0454 6.94261 92.7755 5.67273 91.209 5.67273C89.6426 5.67273 88.3727 6.94261 88.3727 8.50909C88.3727 10.0756 89.6426 11.3455 91.209 11.3455Z" fill="#00C99F"/>
<path d="M99.7182 99.2727C101.285 99.2727 102.555 98.0028 102.555 96.4363C102.555 94.8699 101.285 93.6 99.7182 93.6C98.1517 93.6 96.8818 94.8699 96.8818 96.4363C96.8818 98.0028 98.1517 99.2727 99.7182 99.2727Z" fill="#FFA100"/>
<path d="M3.2818 95.4908C4.84828 95.4908 6.11816 94.221 6.11816 92.6545C6.11816 91.088 4.84828 89.8181 3.2818 89.8181C1.71532 89.8181 0.445435 91.088 0.445435 92.6545C0.445435 94.221 1.71532 95.4908 3.2818 95.4908Z" fill="#00C99F"/>
<path d="M89.3181 82.2545C89.3201 82.9238 89.2886 83.5928 89.2236 84.2589C82.4702 93.2156 72.7519 99.4789 61.8054 101.929C58.1863 100.695 54.9773 98.4876 52.5312 95.5487C50.0851 92.6098 48.4964 89.0534 47.9397 85.2704C47.3831 81.4874 47.88 77.6241 49.3759 74.1052C50.8718 70.5862 53.3088 67.5476 56.419 65.3234C59.5293 63.0992 63.1925 61.7754 67.0061 61.4974C70.8198 61.2195 74.6362 61.9981 78.0361 63.7479C81.436 65.4976 84.2878 68.1506 86.2782 71.4155C88.2685 74.6804 89.3204 78.4308 89.3181 82.2545Z" fill="#7F96D1"/>
<path d="M84.5909 82.2545C84.5987 86.4373 82.9659 90.4564 80.0433 93.4487C78.117 94.9226 76.0744 96.238 73.9356 97.3818C70.7207 98.5328 67.2227 98.6299 63.9488 97.6591C60.6749 96.6883 57.7953 94.7 55.7275 91.9826C53.6596 89.2651 52.511 85.9596 52.4482 82.5454C52.3853 79.1312 53.4115 75.7857 55.3779 72.994C57.3444 70.2022 60.1489 68.1093 63.3848 67.0187C66.6207 65.9281 70.1199 65.8964 73.3751 66.9283C76.6302 67.9602 79.4721 70.002 81.4887 72.7577C83.5054 75.5134 84.5919 78.8398 84.5909 82.2545Z" fill="#A5BCED"/>
<path d="M59.0637 44.0487V98.3272C59.0645 99.3541 58.731 100.353 58.1135 101.174C57.496 101.994 56.6281 102.591 55.6411 102.875C55.2162 102.993 54.7774 103.053 54.3364 103.054H51.5C44.669 103.061 37.9181 101.584 31.7146 98.7236C25.5112 95.8635 20.0035 91.6893 15.5728 86.4901V44.0487C15.5722 42.8433 16.0322 41.6833 16.8586 40.8058L29.8397 27.0116C30.2818 26.5426 30.8152 26.169 31.407 25.9138C31.9988 25.6585 32.6366 25.527 33.2811 25.5272H41.3553C41.9998 25.527 42.6376 25.6585 43.2294 25.9138C43.8212 26.169 44.3546 26.5426 44.7968 27.0116L57.7778 40.8058C58.6042 41.6833 59.0642 42.8433 59.0637 44.0487Z" fill="#4E6AFF"/>
<path d="M37.3182 43.4909C39.929 43.4909 42.0455 41.3745 42.0455 38.7636C42.0455 36.1528 39.929 34.0364 37.3182 34.0364C34.7074 34.0364 32.5909 36.1528 32.5909 38.7636C32.5909 41.3745 34.7074 43.4909 37.3182 43.4909Z" fill="#323FD4"/>
<path d="M39.209 8.50907V38.6502C39.2295 39.1165 39.0825 39.5749 38.7947 39.9424C38.5069 40.3099 38.0972 40.5625 37.6396 40.6545C37.3657 40.7018 37.0849 40.6881 36.8169 40.6145C36.549 40.5409 36.3006 40.4091 36.0893 40.2286C35.8781 40.0481 35.7093 39.8232 35.5948 39.57C35.4804 39.3168 35.4232 39.0415 35.4272 38.7636V8.50907C35.4272 8.00757 35.6264 7.52661 35.981 7.172C36.3357 6.81738 36.8166 6.61816 37.3181 6.61816C37.8196 6.61816 38.3006 6.81738 38.6552 7.172C39.0098 7.52661 39.209 8.00757 39.209 8.50907Z" fill="#8FA2FF"/>
<path d="M68.991 81.3091H68.0455C67.1679 81.3091 66.3262 80.9604 65.7056 80.3399C65.085 79.7193 64.7364 78.8776 64.7364 78C64.7364 77.1224 65.085 76.2807 65.7056 75.6601C66.3262 75.0395 67.1679 74.6909 68.0455 74.6909H73.2455C73.4962 74.6909 73.7367 74.5913 73.914 74.414C74.0913 74.2367 74.191 73.9962 74.191 73.7454C74.191 73.4947 74.0913 73.2542 73.914 73.0769C73.7367 72.8996 73.4962 72.8 73.2455 72.8H69.4637V70.9091C69.4637 70.6583 69.3641 70.4178 69.1868 70.2405C69.0095 70.0632 68.769 69.9636 68.5182 69.9636C68.2675 69.9636 68.027 70.0632 67.8497 70.2405C67.6724 70.4178 67.5728 70.6583 67.5728 70.9091V72.8C66.1936 72.8627 64.8959 73.4706 63.965 74.4902C63.0342 75.5097 62.5464 76.8572 62.6091 78.2364C62.6718 79.6155 63.2798 80.9132 64.2993 81.8441C65.3188 82.7749 66.6664 83.2627 68.0455 83.2H68.991C69.8686 83.2 70.7103 83.5486 71.3308 84.1692C71.9514 84.7898 72.3 85.6315 72.3 86.5091C72.3 87.3867 71.9514 88.2284 71.3308 88.849C70.7103 89.4695 69.8686 89.8182 68.991 89.8182H63.791C63.5402 89.8182 63.2997 89.9178 63.1224 90.0951C62.9451 90.2724 62.8455 90.5129 62.8455 90.7636C62.8455 91.0144 62.9451 91.2549 63.1224 91.4322C63.2997 91.6095 63.5402 91.7091 63.791 91.7091H67.5728V93.6C67.5728 93.8507 67.6724 94.0912 67.8497 94.2685C68.027 94.4458 68.2675 94.5454 68.5182 94.5454C68.769 94.5454 69.0095 94.4458 69.1868 94.2685C69.3641 94.0912 69.4637 93.8507 69.4637 93.6V91.7091C70.8428 91.6464 72.1405 91.0384 73.0714 90.0189C74.0023 88.9994 74.49 87.6518 74.4273 86.2727C74.3646 84.8936 73.7567 83.5958 72.7371 82.665C71.7176 81.7341 70.3701 81.2464 68.991 81.3091Z" fill="white"/>
<path d="M48.6636 49.1636H25.9727C23.8841 49.1636 22.1909 50.8568 22.1909 52.9454V77.5272C22.1909 79.6159 23.8841 81.309 25.9727 81.309H48.6636C50.7523 81.309 52.4455 79.6159 52.4455 77.5272V52.9454C52.4455 50.8568 50.7523 49.1636 48.6636 49.1636Z" fill="#323FD4"/>
<path d="M37.7909 64.2909H36.8454C35.9678 64.2909 35.1261 63.9423 34.5055 63.3217C33.885 62.7011 33.5363 61.8594 33.5363 60.9818C33.5363 60.1042 33.885 59.2625 34.5055 58.6419C35.1261 58.0213 35.9678 57.6727 36.8454 57.6727H42.0454C42.2962 57.6727 42.5367 57.5731 42.714 57.3958C42.8913 57.2185 42.9909 56.978 42.9909 56.7273C42.9909 56.4765 42.8913 56.236 42.714 56.0587C42.5367 55.8814 42.2962 55.7818 42.0454 55.7818H38.2636V53.8909C38.2636 53.6401 38.164 53.3997 37.9867 53.2224C37.8094 53.045 37.5689 52.9454 37.3182 52.9454C37.0674 52.9454 36.8269 53.045 36.6496 53.2224C36.4723 53.3997 36.3727 53.6401 36.3727 53.8909V55.7818C34.9936 55.8445 33.6958 56.4525 32.765 57.472C31.8341 58.4915 31.3464 59.839 31.4091 61.2182C31.4717 62.5973 32.0797 63.895 33.0992 64.8259C34.1188 65.7568 35.4663 66.2445 36.8454 66.1818H37.7909C38.6685 66.1818 39.5102 66.5304 40.1308 67.151C40.7513 67.7716 41.1 68.6133 41.1 69.4909C41.1 70.3685 40.7513 71.2102 40.1308 71.8308C39.5102 72.4513 38.6685 72.8 37.7909 72.8H32.5909C32.3401 72.8 32.0996 72.8996 31.9223 73.0769C31.745 73.2542 31.6454 73.4947 31.6454 73.7454C31.6454 73.9962 31.745 74.2367 31.9223 74.414C32.0996 74.5913 32.3401 74.6909 32.5909 74.6909H36.3727V76.5818C36.3727 76.8325 36.4723 77.073 36.6496 77.2503C36.8269 77.4276 37.0674 77.5273 37.3182 77.5273C37.5689 77.5273 37.8094 77.4276 37.9867 77.2503C38.164 77.073 38.2636 76.8325 38.2636 76.5818V74.6909C39.6427 74.6282 40.9405 74.0202 41.8713 73.0007C42.8022 71.9812 43.2899 70.6337 43.2272 69.2545C43.1646 67.8754 42.5566 66.5777 41.5371 65.6468C40.5175 64.7159 39.17 64.2282 37.7909 64.2909Z" fill="white"/>
<path d="M32.5909 84.1454H23.1364C22.6142 84.1454 22.1909 84.5687 22.1909 85.0908C22.1909 85.613 22.6142 86.0363 23.1364 86.0363H32.5909C33.1131 86.0363 33.5364 85.613 33.5364 85.0908C33.5364 84.5687 33.1131 84.1454 32.5909 84.1454Z" fill="#8FA2FF"/>
<path d="M32.5909 88.8727H23.1364C22.6142 88.8727 22.1909 89.296 22.1909 89.8181C22.1909 90.3403 22.6142 90.7636 23.1364 90.7636H32.5909C33.1131 90.7636 33.5364 90.3403 33.5364 89.8181C33.5364 89.296 33.1131 88.8727 32.5909 88.8727Z" fill="#8FA2FF"/>
</svg>
