<svg width="32" height="32" viewBox="0 0 32 32" fill="none" xmlns="http://www.w3.org/2000/svg">
<path fill-rule="evenodd" clip-rule="evenodd" d="M13.7083 13.5001C13.7083 12.2344 14.7343 11.2084 16 11.2084C17.2657 11.2084 18.2917 12.2344 18.2917 13.5001C18.2917 14.7657 17.2657 15.7917 16 15.7917C14.7343 15.7917 13.7083 14.7657 13.7083 13.5001ZM16 12.4584C15.4247 12.4584 14.9583 12.9248 14.9583 13.5001C14.9583 14.0754 15.4247 14.5417 16 14.5417C16.5753 14.5417 17.0417 14.0754 17.0417 13.5001C17.0417 12.9248 16.5753 12.4584 16 12.4584Z" fill="#007AFF"/>
<path fill-rule="evenodd" clip-rule="evenodd" d="M16 16.2084C15.0035 16.2084 14.0705 16.409 13.3635 16.7626C12.6938 17.0974 12.0417 17.6756 12.0417 18.5001L12.0416 18.5521C12.0403 18.9774 12.0381 19.6936 12.7169 20.1849C13.0318 20.4129 13.4474 20.5583 13.9622 20.6509C14.4818 20.7444 15.1477 20.7917 16 20.7917C16.8523 20.7917 17.5182 20.7444 18.0378 20.6509C18.5526 20.5583 18.9682 20.4129 19.2831 20.1849C19.9619 19.6936 19.9597 18.9774 19.9584 18.5521L19.9583 18.5001C19.9583 17.6756 19.3062 17.0974 18.6365 16.7626C17.9295 16.409 16.9965 16.2084 16 16.2084ZM13.2917 18.5001C13.2917 18.4041 13.3857 18.149 13.9225 17.8806C14.4219 17.6309 15.1555 17.4584 16 17.4584C16.8445 17.4584 17.5781 17.6309 18.0775 17.8806C18.6143 18.149 18.7083 18.4041 18.7083 18.5001C18.7083 19.0038 18.6763 19.0811 18.5502 19.1723C18.4485 19.2459 18.2391 19.3446 17.8164 19.4207C17.3985 19.4958 16.8143 19.5417 16 19.5417C15.1857 19.5417 14.6015 19.4958 14.1836 19.4207C13.7609 19.3446 13.5515 19.2459 13.4498 19.1723C13.3237 19.0811 13.2917 19.0038 13.2917 18.5001Z" fill="#007AFF"/>
<path fill-rule="evenodd" clip-rule="evenodd" d="M13.2695 7.70934C14.4728 7.29723 15.2187 7.04175 16 7.04175C16.7813 7.04175 17.5272 7.29723 18.7305 7.70935L19.3367 7.91686C20.5711 8.33941 21.5238 8.66552 22.2058 8.94257C22.5493 9.08213 22.8447 9.21731 23.0825 9.35542C23.3114 9.48833 23.541 9.65411 23.697 9.87637C23.8512 10.096 23.9309 10.3661 23.981 10.6261C24.0331 10.8964 24.0645 11.2206 24.0847 11.5929C24.125 12.3321 24.125 13.3448 24.125 14.6583V15.9929C24.125 21.0771 20.285 23.5147 18.0014 24.5122L17.9788 24.5221C17.6956 24.6458 17.4295 24.7621 17.1237 24.8404C16.8008 24.9231 16.4577 24.9584 16 24.9584C15.5423 24.9584 15.1992 24.9231 14.8763 24.8404C14.5705 24.7621 14.3044 24.6458 14.0212 24.5221L13.9986 24.5122C11.715 23.5147 7.875 21.0771 7.875 15.9929V14.6583C7.875 13.3449 7.875 12.3321 7.91525 11.5929C7.93552 11.2206 7.96693 10.8964 8.01901 10.6261C8.06911 10.3661 8.14884 10.096 8.30303 9.87637C8.45902 9.65411 8.68862 9.48833 8.91748 9.35542C9.15531 9.21731 9.45065 9.08213 9.79419 8.94257C10.4762 8.66552 11.4288 8.33941 12.6633 7.91686L13.2695 7.70934ZM16 8.29175C15.4519 8.29175 14.9126 8.46811 13.5672 8.92866L13.0898 9.09206C11.8293 9.52353 10.9101 9.83845 10.2647 10.1007C9.9425 10.2315 9.70908 10.3412 9.54524 10.4364C9.46435 10.4833 9.40861 10.5221 9.37139 10.5524C9.33983 10.578 9.3278 10.5925 9.32608 10.5947C9.32446 10.5973 9.31411 10.6146 9.29952 10.6555C9.28287 10.7023 9.26441 10.7693 9.24643 10.8626C9.21003 11.0515 9.18245 11.3109 9.1634 11.6608C9.12523 12.3618 9.125 13.3404 9.125 14.6806V15.9929C9.125 20.3055 12.3499 22.428 14.499 23.3667C14.8086 23.502 14.9873 23.5785 15.1863 23.6295C15.3764 23.6781 15.6083 23.7084 16 23.7084C16.3917 23.7084 16.6236 23.6781 16.8137 23.6295C17.0127 23.5785 17.1914 23.502 17.501 23.3667C19.6501 22.428 22.875 20.3055 22.875 15.9929V14.6806C22.875 13.3404 22.8748 12.3618 22.8366 11.6608C22.8175 11.3109 22.79 11.0515 22.7536 10.8626C22.7356 10.7693 22.7171 10.7023 22.7005 10.6555C22.6859 10.6146 22.6755 10.5972 22.6739 10.5946C22.6722 10.5925 22.6601 10.578 22.6286 10.5524C22.5914 10.5221 22.5356 10.4833 22.4548 10.4364C22.2909 10.3412 22.0575 10.2315 21.7353 10.1007C21.0899 9.83845 20.1707 9.52353 18.9102 9.09206L18.4328 8.92866C17.0874 8.46811 16.5481 8.29175 16 8.29175Z" fill="#007AFF"/>
</svg>
