<svg width="32" height="32" viewBox="0 0 32 32" fill="none" xmlns="http://www.w3.org/2000/svg">
<path fill-rule="evenodd" clip-rule="evenodd" d="M16 7.04175C13.8139 7.04175 12.0417 8.81395 12.0417 11.0001C12.0417 13.1862 13.8139 14.9584 16 14.9584C18.1862 14.9584 19.9584 13.1862 19.9584 11.0001C19.9584 8.81395 18.1862 7.04175 16 7.04175ZM13.2917 11.0001C13.2917 9.50431 14.5043 8.29175 16 8.29175C17.4958 8.29175 18.7084 9.50431 18.7084 11.0001C18.7084 12.4959 17.4958 13.7084 16 13.7084C14.5043 13.7084 13.2917 12.4959 13.2917 11.0001Z" fill="#254E70"/>
<path fill-rule="evenodd" clip-rule="evenodd" d="M16 16.2084C14.0721 16.2084 12.2958 16.6467 10.9796 17.387C9.68293 18.1164 8.70836 19.2218 8.70836 20.5834L8.70831 20.6684C8.70737 21.6366 8.70619 22.8517 9.77204 23.7197C10.2966 24.1469 11.0304 24.4506 12.0219 24.6513C13.0161 24.8525 14.3119 24.9584 16 24.9584C17.6882 24.9584 18.984 24.8525 19.9782 24.6513C20.9696 24.4506 21.7035 24.1469 22.228 23.7197C23.2939 22.8517 23.2927 21.6366 23.2917 20.6684L23.2917 20.5834C23.2917 19.2218 22.3171 18.1164 21.0205 17.387C19.7043 16.6467 17.928 16.2084 16 16.2084ZM9.95836 20.5834C9.95836 19.874 10.4762 19.1044 11.5924 18.4765C12.689 17.8596 14.2461 17.4584 16 17.4584C17.754 17.4584 19.311 17.8596 20.4077 18.4765C21.5239 19.1044 22.0417 19.874 22.0417 20.5834C22.0417 21.6733 22.0081 22.2868 21.4387 22.7504C21.1299 23.0019 20.6138 23.2473 19.7302 23.4261C18.8494 23.6044 17.6452 23.7084 16 23.7084C14.3548 23.7084 13.1506 23.6044 12.2699 23.4261C11.3863 23.2473 10.8701 23.0019 10.5614 22.7504C9.99196 22.2868 9.95836 21.6733 9.95836 20.5834Z" fill="#254E70"/>
</svg>
