<svg width="16" height="16" viewBox="0 0 16 16" fill="none" xmlns="http://www.w3.org/2000/svg">
<g clip-path="url(#clip0_161_2775)">
<path d="M15.7314 7.28346L13.3066 4.85858V2.05744C13.3066 1.55096 12.8961 1.14049 12.3889 1.14049C11.8828 1.14049 11.4724 1.55096 11.4724 2.05744V3.02446L9.66689 1.21888C8.77423 0.326697 7.22218 0.32828 6.33155 1.22049L0.268454 7.28346C-0.0894643 7.64209 -0.0894643 8.22238 0.268454 8.58046C0.626534 8.93899 1.20795 8.93899 1.5659 8.58046L7.62842 2.51732C7.82592 2.32086 8.17402 2.32086 8.37048 2.51674L14.434 8.58046C14.6138 8.75974 14.8482 8.84891 15.0826 8.84891C15.3174 8.84891 15.5522 8.75964 15.7315 8.58046C16.0895 8.22241 16.0895 7.64212 15.7314 7.28346Z" fill="#047B7B"/>
<path d="M8.31851 4.25802C8.14236 4.08196 7.85715 4.08196 7.68151 4.25802L2.3484 9.58955C2.2642 9.67372 2.21646 9.78863 2.21646 9.90855V13.7972C2.21646 14.7097 2.95633 15.4495 3.86879 15.4495H6.50922V11.3603H9.49022V15.4495H12.1307C13.0431 15.4495 13.783 14.7097 13.783 13.7972V9.90855C13.783 9.78863 13.7357 9.67372 13.651 9.58955L8.31851 4.25802Z" fill="#047B7B"/>
</g>
<defs>
<clipPath id="clip0_161_2775">
<rect width="16" height="16" fill="white"/>
</clipPath>
</defs>
</svg>
