<svg width="20" height="20" viewBox="0 0 20 20" fill="none" xmlns="http://www.w3.org/2000/svg">
<path fill-rule="evenodd" clip-rule="evenodd" d="M10.0001 1.04175C6.43321 1.04175 3.54172 3.93324 3.54172 7.50008V8.08683C3.54172 8.6676 3.36981 9.23537 3.04766 9.7186L2.09049 11.1544C0.979577 12.8207 1.82767 15.0857 3.75983 15.6127C4.3895 15.7844 5.0245 15.9297 5.66317 16.0485L5.66475 16.0528C6.30558 17.7627 8.01834 18.9584 10 18.9584C11.9817 18.9584 13.6944 17.7627 14.3352 16.0528L14.3368 16.0485C14.9755 15.9297 15.6106 15.7844 16.2403 15.6127C18.1724 15.0857 19.0205 12.8207 17.9096 11.1544L16.9524 9.7186C16.6303 9.23538 16.4584 8.6676 16.4584 8.08683V7.50008C16.4584 3.93324 13.5669 1.04175 10.0001 1.04175ZM12.8137 16.2809C10.9446 16.5042 9.05539 16.5042 7.18626 16.2809C7.77872 17.1321 8.8092 17.7084 10 17.7084C11.1908 17.7084 12.2213 17.1322 12.8137 16.2809ZM4.79172 7.50008C4.79172 4.6236 7.12357 2.29175 10.0001 2.29175C12.8765 2.29175 15.2084 4.6236 15.2084 7.50008V8.08683C15.2084 8.91438 15.4533 9.72342 15.9124 10.412L16.8696 11.8477C17.5072 12.8042 17.0204 14.1043 15.9114 14.4067C12.0412 15.4623 7.95893 15.4623 4.08872 14.4067C2.9797 14.1043 2.49291 12.8042 3.13055 11.8477L4.08772 10.412C4.54676 9.72342 4.79172 8.91438 4.79172 8.08683V7.50008Z" fill="#845C47"/>
</svg>
