<svg width="24" height="24" viewBox="0 0 24 24" fill="none" xmlns="http://www.w3.org/2000/svg">
<rect width="24" height="24" rx="12" fill="#065C73"/>
<g clip-path="url(#clip0_93_3036)">
<path d="M14.7857 11.1429C15.4683 11.1429 16.1369 11.336 16.7143 11.7V6.42857C16.7143 6.19188 16.5224 6 16.2857 6H13.5V9.00001C13.5 9.35505 13.2122 9.64286 12.8571 9.64286H9.85714C9.5021 9.64286 9.21429 9.35503 9.21429 9.00001V6H6.42857C6.19188 6 6 6.19188 6 6.42857V16.2857C6 16.5224 6.19188 16.7143 6.42857 16.7143H11.7C10.9946 15.5927 10.9552 14.1762 11.5971 13.0171C12.2391 11.858 13.4607 11.1399 14.7857 11.1429ZM7.86579 14.2943C7.78211 14.378 7.64646 14.378 7.56279 14.2943L7.49999 14.2316V15.4285C7.49999 15.5469 7.40405 15.6428 7.28571 15.6428C7.16737 15.6428 7.07142 15.5469 7.07142 15.4285V14.2316L7.00863 14.2943C6.92456 14.3756 6.7909 14.3744 6.70825 14.2917C6.62559 14.2091 6.62443 14.0754 6.70563 13.9913L7.1342 13.5628C7.21788 13.4791 7.35352 13.4791 7.4372 13.5628L7.86577 13.9913C7.94945 14.075 7.94945 14.2107 7.86579 14.2943ZM9.58007 14.2943C9.49639 14.378 9.36074 14.378 9.27706 14.2943L9.21427 14.2316V15.4285C9.21427 15.5469 9.11833 15.6428 8.99999 15.6428C8.88164 15.6428 8.7857 15.5469 8.7857 15.4285V14.2316L8.72291 14.2943C8.63884 14.3756 8.50518 14.3744 8.42252 14.2917C8.33987 14.2091 8.33871 14.0754 8.4199 13.9913L8.84847 13.5628C8.93215 13.4791 9.0678 13.4791 9.15148 13.5628L9.58005 13.9913C9.66372 14.075 9.66372 14.2107 9.58007 14.2943Z" fill="white"/>
<path fill-rule="evenodd" clip-rule="evenodd" d="M13.0713 9V6H11.5713V9.21429H12.857C12.9753 9.21429 13.0713 9.11835 13.0713 9Z" fill="white"/>
<path fill-rule="evenodd" clip-rule="evenodd" d="M9.85735 9.21429H11.1431V6H9.64307V9C9.64307 9.11835 9.73901 9.21429 9.85735 9.21429Z" fill="white"/>
<path d="M14.7856 11.5714C13.0104 11.5714 11.5713 13.0105 11.5713 14.7857C11.5713 16.5609 13.0104 18 14.7856 18C16.5608 18 17.9999 16.5609 17.9999 14.7857C17.9979 13.0113 16.56 11.5734 14.7856 11.5714ZM16.454 13.4181L14.0969 16.4181C14.059 16.4663 14.0024 16.4959 13.9413 16.4996C13.937 16.4996 13.9327 16.4996 13.9284 16.4996C13.8716 16.4995 13.8171 16.477 13.7769 16.4368L13.1341 15.7939C13.0529 15.7098 13.0541 15.5762 13.1367 15.4935C13.2194 15.4109 13.353 15.4097 13.4371 15.4909L13.9085 15.9623L16.1157 13.1522C16.1625 13.0905 16.2389 13.0589 16.3156 13.0695C16.3923 13.0801 16.4573 13.1312 16.4857 13.2033C16.514 13.2753 16.5014 13.357 16.4525 13.417L16.454 13.4181Z" fill="white"/>
</g>
<defs>
<clipPath id="clip0_93_3036">
<rect width="12" height="12" fill="white" transform="translate(6 6)"/>
</clipPath>
</defs>
</svg>
