<svg width="97" height="96" viewBox="0 0 97 96" fill="none" xmlns="http://www.w3.org/2000/svg">
<path d="M45.4608 35.841L49.1388 41.727L55.8738 43.404C56.9898 43.683 57.4308 45.036 56.6898 45.915L52.2288 51.231L52.7148 58.155C52.7958 59.304 51.6438 60.138 50.5788 59.709L44.1438 57.108L37.7088 59.709C36.6408 60.141 35.4918 59.304 35.5728 58.155L36.0588 51.231L31.5978 45.915C30.8568 45.033 31.2978 43.68 32.4138 43.404L39.1488 41.727L42.8268 35.841C43.4298 34.863 44.8518 34.863 45.4608 35.841ZM73.0008 36.978C66.3138 34.845 57.5838 28.419 58.5798 20.553C59.6028 12.48 67.9398 10.341 73.0008 15.762C78.0618 10.341 86.4018 12.477 87.4218 20.553C88.4118 28.419 79.6878 34.839 73.0008 36.978Z" fill="white"/>
<path d="M59.546 43.5991C59.09 42.1951 57.962 41.1421 56.528 40.7851L50.852 39.3691L47.75 34.4101C46.184 31.9021 42.095 31.9021 40.529 34.4101L37.43 39.3721L31.754 40.7851C30.317 41.1421 29.189 42.1951 28.733 43.6021C28.277 45.0091 28.574 46.5241 29.522 47.6551L33.281 52.1371L32.873 57.972C32.771 59.442 33.422 60.8431 34.616 61.7101C35.81 62.5801 37.343 62.7721 38.717 62.2141L44.141 60.024L49.568 62.2171C50.087 62.4241 50.63 62.5291 51.167 62.5291C52.052 62.5291 52.925 62.25 53.669 61.713C54.86 60.843 55.511 59.442 55.406 57.972L54.995 52.14L58.763 47.6551C59.708 46.5181 60.002 45.0031 59.546 43.5991ZM50.159 49.5001C49.709 50.0371 49.484 50.7271 49.535 51.4261L49.895 56.5201L45.155 54.6061C44.504 54.3421 43.781 54.3421 43.13 54.6061L38.39 56.5231L38.747 51.4231C38.795 50.7271 38.57 50.0371 38.123 49.5001L34.835 45.5821L39.797 44.3461C40.475 44.1781 41.063 43.7521 41.432 43.1581L44.141 38.8231L46.85 43.1581C47.222 43.7521 47.807 44.1781 48.485 44.3461L53.444 45.5851L50.159 49.5001Z" fill="#065C73"/>
<path d="M78.7698 44.967C77.2788 44.967 76.0698 46.176 76.0698 47.667V64.674C76.0698 68.562 72.9078 71.724 69.0198 71.724H54.2898C53.5698 71.724 52.8768 72.015 52.3668 72.528L44.6808 80.31C44.4918 80.505 44.2578 80.535 44.1348 80.535C44.0118 80.535 43.7808 80.505 43.5798 80.301L35.8998 72.528C35.3928 72.015 34.7028 71.724 33.9798 71.724H19.2498C15.3618 71.724 12.1998 68.562 12.1998 64.674V30.264C12.1998 26.376 15.3618 23.214 19.2498 23.214H46.5198C48.0108 23.214 49.2198 22.005 49.2198 20.514C49.2198 19.023 48.0108 17.814 46.5198 17.814H19.2498C12.3858 17.814 6.7998 23.4 6.7998 30.264V64.674C6.7998 71.538 12.3858 77.124 19.2498 77.124H32.8518L39.7278 84.081C40.8918 85.272 42.4548 85.929 44.1318 85.929C45.8088 85.929 47.3718 85.272 48.5268 84.093L55.4118 77.124H69.0138C75.8778 77.124 81.4638 71.538 81.4638 64.674V47.667C81.4698 46.176 80.2608 44.967 78.7698 44.967Z" fill="#065C73"/>
<path d="M90.1006 20.214C89.5036 15.483 86.7286 11.877 82.6786 10.569C79.4116 9.51603 75.8896 10.149 72.9976 12.195C70.1026 10.149 66.5746 9.51603 63.3166 10.569C59.2666 11.877 56.4946 15.483 55.8946 20.214C54.6406 30.12 65.2126 37.332 72.1756 39.549C72.4426 39.633 72.7216 39.675 72.9946 39.675C73.2736 39.675 73.5496 39.633 73.8166 39.549C80.7796 37.326 91.3486 30.111 90.1006 20.214ZM73.0006 34.122C67.5496 32.103 60.5056 26.823 61.2556 20.892C61.5886 18.252 62.9476 16.362 64.9816 15.705C65.4706 15.546 65.9806 15.468 66.4936 15.468C68.0926 15.468 69.7366 16.221 71.0266 17.604C72.0556 18.699 73.9516 18.693 74.9746 17.604C76.6756 15.78 78.9856 15.051 81.0196 15.705C83.0536 16.362 84.4126 18.252 84.7456 20.889C85.4896 26.817 78.4486 32.1 73.0006 34.122Z" fill="#FF9500"/>
</svg>
