<svg width="37" height="24" viewBox="0 0 37 24" fill="none" xmlns="http://www.w3.org/2000/svg">
<g clip-path="url(#clip0_165_6005)">
<path d="M0.5 2C0.5 0.89543 1.39543 0 2.5 0H34.5C35.6046 0 36.5 0.895431 36.5 2V22C36.5 23.1046 35.6046 24 34.5 24H2.5C1.39543 24 0.5 23.1046 0.5 22V2Z" fill="#006C35"/>
<path fill-rule="evenodd" clip-rule="evenodd" d="M16.0175 5.66823C15.9988 5.6677 15.971 5.67807 15.932 5.70126C15.8442 5.76006 15.6703 5.94126 15.6649 6.14972C15.6597 6.26732 15.6374 6.26689 15.7144 6.34172C15.7701 6.42193 15.8256 6.41406 15.938 6.35526C16.0024 6.30774 16.0242 6.2774 16.046 6.19772C16.0727 6.06409 15.9053 6.26098 15.884 6.11228C15.8465 5.97418 15.9534 5.9174 16.0549 5.78372C16.0573 5.72084 16.0584 5.66948 16.0175 5.66823ZM17.6524 5.67726C17.6211 5.68143 17.5827 5.72166 17.5294 5.81823C17.4912 5.91942 17.3266 6.07249 17.4454 6.38823C17.5426 6.58839 17.5825 6.91378 17.5384 7.27623C17.4711 7.37924 17.4557 7.41471 17.3674 7.51772C17.2434 7.65116 17.109 7.61703 17.006 7.56721C16.9096 7.50231 16.8339 7.469 16.79 7.26274C16.7979 6.93394 16.817 6.39586 16.7569 6.28172C16.6683 6.10489 16.5223 6.1683 16.4599 6.22172C16.1601 6.4959 16.0119 6.95886 15.9214 7.32716C15.8383 7.59567 15.7496 7.51801 15.6874 7.40972C15.5359 7.26774 15.5253 6.15769 15.3424 6.34018C15.0495 7.1773 15.5105 8.09434 15.8299 8.00521C16.0603 8.10063 16.2066 7.66201 16.3009 7.18172C16.3655 7.04694 16.4147 7.03148 16.4479 7.10074C16.4394 7.73943 16.4937 7.8819 16.6579 8.07572C17.0242 8.3583 17.3272 8.11153 17.3509 8.08772L17.6359 7.8027C17.6994 7.73598 17.7833 7.7319 17.8729 7.7907C17.9601 7.8699 17.9489 8.00636 18.1355 8.10126C18.2924 8.16404 18.6277 8.11647 18.7055 7.98126C18.8101 7.80188 18.8354 7.74025 18.8839 7.67223C18.9587 7.57278 19.0865 7.61684 19.0865 7.64823C19.0745 7.70367 18.9995 7.75834 19.0505 7.85823C19.1393 7.92486 19.1599 7.88204 19.2124 7.86721C19.3983 7.77841 19.5379 7.37521 19.5379 7.37521C19.5462 7.22487 19.4606 7.23625 19.4059 7.26721C19.3346 7.31079 19.3303 7.32562 19.2589 7.36921C19.1681 7.3827 18.9921 7.44265 18.9049 7.30772C18.8159 7.14548 18.8155 6.91935 18.7475 6.75572C18.7475 6.74382 18.6286 6.49844 18.7384 6.48274C18.7939 6.49302 18.9131 6.52383 18.9319 6.42418C18.9901 6.32713 18.8064 6.0517 18.6815 5.91274C18.5729 5.79361 18.4231 5.77911 18.2779 5.90074C18.1763 5.99425 18.1914 6.0987 18.1715 6.19772C18.1455 6.31148 18.1505 6.45236 18.2659 6.60274C18.3674 6.80281 18.5517 7.05946 18.4909 7.42172C18.4909 7.42172 18.3839 7.59409 18.1955 7.57172C18.1169 7.55458 17.989 7.5206 17.9209 7.01823C17.8694 6.63793 17.9339 6.10518 17.7724 5.85567C17.736 5.76159 17.7048 5.6702 17.6524 5.67726ZM17.135 5.71758C17.0862 5.7218 17.0321 5.77868 16.988 5.88855C16.9501 5.97207 16.904 6.40906 16.9115 6.40906C16.8813 6.53914 17.0473 6.5942 17.123 6.42706C17.2364 6.12063 17.2369 5.99007 17.2445 5.86009C17.2268 5.76106 17.1838 5.7133 17.135 5.71758ZM19.046 5.75204C18.9958 5.7566 18.9559 5.78598 18.9409 5.86004C18.921 6.03428 18.9312 6.12898 18.9605 6.27404C18.9829 6.37076 19.1237 6.53271 19.193 6.62655C19.524 7.07151 19.8424 7.51854 20.15 7.98106C20.1977 8.31767 20.2332 8.65589 20.2565 8.99506C20.3063 9.7287 20.3215 10.6419 20.276 11.4146C20.4134 11.42 20.6337 11.1926 20.711 10.8596C20.7612 10.3989 20.6931 9.45894 20.6885 9.18706C20.6853 9.07422 20.6783 8.93953 20.6705 8.79855C21.0456 9.4114 21.3944 10.04 21.716 10.6826C21.8402 10.6235 21.8127 9.92425 21.74 9.82604C21.4674 9.23914 21.0906 8.65983 20.9706 8.43702C20.9272 8.35657 20.7795 8.13202 20.6045 7.87302C20.5724 7.50351 20.5373 7.1905 20.5145 7.09599C20.4583 6.70537 20.6751 7.14006 20.6451 6.91302C20.5747 6.52292 20.3594 6.25782 20.1051 5.9005C20.023 5.7843 20.0246 5.76058 19.8981 5.92902C19.8224 6.10066 19.8234 6.24351 19.8455 6.37748C19.8038 6.31645 19.7593 6.25739 19.7121 6.2005C19.4924 6.01206 19.4788 6.00178 19.2965 5.84799C19.2391 5.80719 19.1296 5.74441 19.0461 5.75199L19.046 5.75204ZM24.71 5.8106C24.6855 5.80676 24.6589 5.81876 24.6289 5.86306C24.5717 5.91327 24.5101 6.00418 24.512 6.12106C24.5259 6.32694 24.5626 6.5377 24.5765 6.74358C24.5814 6.77113 24.5866 6.79854 24.5915 6.82609C24.575 6.80471 24.5575 6.78417 24.539 6.76455C24.1377 6.34302 24.7233 6.69567 24.4625 6.37009C24.2419 6.12783 24.1773 6.05074 23.9885 5.90506C23.8938 5.84386 23.8366 5.72694 23.8055 5.92609C23.7931 6.101 23.7802 6.30361 23.792 6.45111C23.7913 6.53305 23.8762 6.68732 23.9495 6.77809C24.228 7.12092 24.5 7.46898 24.7655 7.82209C24.8233 8.56686 24.8387 9.24961 24.8975 9.99558C24.8891 10.3146 24.791 10.7384 24.698 10.7786C24.698 10.7786 24.5559 10.8602 24.4609 10.7696C24.3919 10.7418 24.116 10.3091 24.116 10.3091C23.9747 10.1796 23.8805 10.2166 23.78 10.3091C23.5027 10.5768 23.3773 11.0782 23.189 11.4236C23.1404 11.5006 23.0036 11.5662 22.8515 11.4176C22.4651 10.8898 22.6911 10.1385 22.643 10.3316C22.2989 10.7193 22.4513 11.3619 22.529 11.5001C22.6425 11.727 22.7342 11.8723 22.955 11.9846C23.1561 12.1326 23.3126 12.0402 23.399 11.9366C23.6013 11.7269 23.604 11.1907 23.699 11.0846C23.7656 10.8897 23.9326 10.9232 24.014 11.0096C24.0929 11.123 24.186 11.1969 24.302 11.2586C24.4907 11.4251 24.716 11.4553 24.938 11.3036C25.0897 11.2185 25.1881 11.1079 25.277 10.8896C25.3723 10.6347 25.3252 9.29876 25.304 8.55558C25.4465 8.75636 25.5872 8.96151 25.727 9.16906C25.7883 9.82143 25.8162 10.4639 25.796 11.08C25.7816 11.2025 26.2235 10.7143 26.2205 10.483C26.2185 10.2807 26.2209 10.0973 26.2205 9.9265C26.4348 10.2687 26.6424 10.6167 26.8385 10.9691C26.96 10.9046 26.9184 10.2165 26.8415 10.1215C26.6362 9.77698 26.3732 9.4046 26.1695 9.1165C26.1292 8.7529 26.0745 8.32393 26.0495 8.1925C26.0106 7.98754 25.9717 7.67972 25.913 7.4365C25.8969 7.34156 25.8482 7.0382 25.8635 7.00902C25.8875 6.94114 25.9779 7.01118 26.0225 6.9325C26.0892 6.85978 25.7912 6.0878 25.64 5.86748C25.5856 5.76874 25.4873 5.80292 25.3655 5.96348C25.2526 6.06918 25.2939 6.31023 25.337 6.53948C25.449 7.12383 25.5489 7.71894 25.628 8.3125C25.4626 8.0664 25.2956 7.8214 25.1269 7.57753C25.1222 7.55305 25.1045 7.46329 25.1045 7.46204C25.1045 7.45153 25.0802 6.98401 25.0595 6.8726C25.0559 6.82734 25.0451 6.81428 25.0925 6.82004C25.1427 6.86233 25.1496 6.86463 25.1809 6.8786C25.2317 6.88786 25.2761 6.80204 25.2455 6.7226C25.0885 6.43302 24.9314 6.14214 24.7745 5.85255C24.7556 5.83398 24.7344 5.81439 24.71 5.8106ZM10.0925 5.82558C10.0055 5.82308 9.90955 5.87698 9.94704 5.98158C9.9252 6.03855 10.1173 6.23118 10.151 6.33706C10.1813 6.41242 10.121 6.65516 10.184 6.67758C10.2419 6.70268 10.3217 6.50953 10.352 6.33102C10.3688 6.23329 10.3561 5.89868 10.1285 5.83004C10.1167 5.82737 10.1046 5.82591 10.0925 5.82558ZM26.7442 5.8275C26.7244 5.82942 26.7002 5.86148 26.6632 5.93996C26.5742 6.08578 26.5436 6.3469 26.5792 6.57745C26.7936 8.02719 26.9528 9.43105 26.9857 10.716C26.9673 10.8379 26.9619 10.9028 26.9047 11.0565C26.7782 11.2187 26.6387 11.4219 26.5072 11.52C26.3758 11.6179 26.0962 11.7113 26.0047 11.784C25.7146 11.9517 25.7132 12.1445 25.9477 12.1515C26.3519 12.1046 26.8302 12.0714 27.1597 11.574C27.2479 11.4346 27.3517 11.0568 27.3562 10.8255C27.387 9.46964 27.3388 8.14393 27.1357 7.16401C27.1227 7.06849 27.0805 6.84913 27.0967 6.82047C27.1229 6.75337 27.2551 6.82719 27.3022 6.75001C27.3713 6.67945 26.9602 6.15308 26.8162 5.92801C26.7874 5.87146 26.7697 5.82495 26.7442 5.8275ZM22.5052 5.84996C22.4885 5.85284 22.4639 5.87828 22.4183 5.93847C22.3053 6.30769 22.2656 6.60918 22.3087 6.83847C22.5988 8.3521 22.8959 9.7311 22.8487 11.172C22.9863 11.1729 23.1453 10.8573 23.2132 10.545C23.2504 10.1148 23.1884 9.85287 23.1772 9.59996C23.1661 9.3471 22.891 7.29529 22.8352 7.10396C22.768 6.74218 23.1028 7.05639 23.0663 6.84596C22.9505 6.58071 22.6616 6.19441 22.5713 5.96396C22.5373 5.90223 22.5331 5.84516 22.5053 5.84996H22.5052ZM12.1838 5.87847C12.1481 5.88466 12.1137 5.91399 12.1013 5.96247C12.0935 5.9942 12.115 6.047 12.0863 6.06298C12.0698 6.07964 12.0072 6.06846 12.0098 5.98047C12.0098 5.95244 11.9892 5.92321 11.9768 5.9055C11.9643 5.89734 11.9559 5.89494 11.9333 5.89494C11.9058 5.89609 11.9064 5.90334 11.8913 5.92647C11.8846 5.94999 11.8759 5.97303 11.8759 5.99991C11.8725 6.03121 11.8599 6.04182 11.8369 6.04642C11.8112 6.04642 11.8173 6.04921 11.7964 6.03591C11.784 6.02238 11.7694 6.01705 11.7694 5.99391C11.7694 5.96996 11.7632 5.93175 11.756 5.91591C11.745 5.90151 11.7277 5.89398 11.708 5.88894C11.6001 5.88932 11.5922 6.01326 11.5984 6.05991C11.5904 6.0687 11.5863 6.28839 11.7334 6.3494C11.9309 6.44358 12.3011 6.40374 12.2854 6.0854C12.2854 6.05727 12.2792 5.96271 12.2764 5.93689C12.2563 5.88999 12.2191 5.87223 12.1834 5.87842L12.1838 5.87847ZM14.8328 5.8815C14.77 5.88495 14.7086 5.9018 14.6528 5.93094C14.522 6.05626 14.4912 6.25714 14.5943 6.38247C14.6946 6.42985 14.7947 6.53079 14.7278 6.58647C14.4442 6.8894 13.706 7.39561 13.6688 7.48796C13.6685 7.48873 13.6675 7.49026 13.6674 7.49094C13.6672 7.49161 13.6674 7.49334 13.6674 7.49396C13.6674 7.49425 13.6673 7.49521 13.6674 7.49545C13.6677 7.49651 13.6682 7.49753 13.6688 7.49847C13.669 7.49866 13.6701 7.49977 13.6703 7.49991C13.6706 7.5001 13.6715 7.49982 13.6718 7.49991C13.6721 7.5001 13.673 7.50135 13.6733 7.50145C13.6737 7.50154 13.6744 7.50135 13.6748 7.50145L13.6763 7.50294C13.7138 7.52809 14.1757 7.52751 14.2269 7.50442C14.2272 7.50423 14.228 7.50313 14.2283 7.50298C14.2285 7.50284 14.2297 7.50303 14.2298 7.50298C14.2299 7.50284 14.2297 7.50154 14.2298 7.50145C14.3886 7.44294 15.1418 6.58196 15.1418 6.58196C15.1028 6.54855 15.0668 6.52388 15.0278 6.49047C14.986 6.45428 14.9903 6.41871 15.0278 6.38247C15.2144 6.2739 15.1553 6.03505 15.0578 5.92647C14.9771 5.89023 14.9011 5.87804 14.8328 5.8815ZM21.7568 5.88447C21.737 5.88644 21.7128 5.91697 21.6758 5.9955C21.5868 6.14127 21.5263 6.39524 21.5333 6.63294C21.7261 7.96806 21.7853 9.13638 21.9113 10.4715C21.9215 10.6006 21.9026 10.7882 21.8168 10.863C21.4993 11.1945 21.0416 11.6033 20.5433 11.7915C20.4897 11.8517 20.6766 12.1082 20.9183 12.108C21.3226 12.0611 21.6778 11.8342 22.0073 11.2365C22.0955 11.0971 22.2503 10.7988 22.2549 10.5675C22.2857 9.21164 22.1865 8.15742 21.9833 7.1775C21.9704 7.08202 21.9792 6.96913 21.9953 6.94047C22.0215 6.90922 22.1103 6.94119 22.1573 6.86396C22.2264 6.7934 21.9728 6.20852 21.8289 5.98345C21.8001 5.92695 21.7823 5.88193 21.7569 5.88447H21.7568ZM11.0303 5.92527C10.9745 5.9318 10.922 5.97721 10.8968 6.03778C10.8874 6.25191 10.8862 6.46594 10.9103 6.66322C11.0077 7.0094 11.0385 7.31382 11.0857 7.6683C11.0988 8.14302 10.8116 7.87364 10.8248 7.6383C10.8911 7.33254 10.8732 6.85129 10.8143 6.72927C10.7675 6.6073 10.7134 6.57721 10.5997 6.59727C10.5095 6.59175 10.2764 6.84572 10.2112 7.2663C10.2112 7.2663 10.157 7.4821 10.1332 7.6743C10.1014 7.89145 9.9575 8.04529 9.85723 7.6443C9.77059 7.35284 9.71736 6.63476 9.57225 6.80281C9.53069 7.36345 9.48134 8.35009 9.95774 8.45132C10.534 8.50671 10.2157 7.47721 10.4243 7.2903C10.4637 7.19794 10.5368 7.19626 10.5428 7.31281V8.18732C10.5375 8.47158 10.7245 8.55606 10.8697 8.61481C11.0208 8.60314 11.121 8.60727 11.1803 8.7543C11.2039 9.25839 11.2286 9.76374 11.2523 10.2678C11.2523 10.2678 11.6015 10.3682 11.6183 9.41727C11.635 8.85894 11.5071 8.39041 11.5823 8.28178C11.5849 8.17508 11.7217 8.1698 11.8163 8.22178C11.9669 8.32801 12.0337 8.45876 12.2677 8.4063C12.6239 8.30818 12.8385 8.13529 12.8437 7.86178C12.823 7.60186 12.7929 7.3417 12.6803 7.08178C12.696 7.0345 12.6121 6.91153 12.6277 6.8643C12.6918 6.96452 12.7886 6.95622 12.8108 6.8643C12.7501 6.66452 12.6557 6.4731 12.5033 6.3903C12.3772 6.27922 12.1928 6.30274 12.1253 6.5343C12.0939 6.80108 12.2219 7.11735 12.4163 7.37574C12.4575 7.47673 12.5152 7.64468 12.4897 7.79574C12.3863 7.85478 12.2838 7.8302 12.1972 7.73876C12.1972 7.73876 11.9137 7.52655 11.9137 7.47927C11.989 6.99759 11.93 6.94244 11.8883 6.80871C11.8591 6.62425 11.7717 6.56583 11.7008 6.43974C11.6298 6.36457 11.5336 6.36457 11.4877 6.43974C11.3625 6.65698 11.4212 7.12335 11.5117 7.33225C11.5772 7.52439 11.6775 7.64425 11.6303 7.64425C11.5914 7.75282 11.5103 7.72758 11.4517 7.60225C11.3682 7.34329 11.3512 6.95727 11.3512 6.78327C11.3262 6.56756 11.2982 6.10671 11.1563 5.98983C11.1183 5.93818 11.0736 5.92018 11.0303 5.92527ZM13.0537 5.9283C13.0251 5.9319 12.9935 5.94817 12.9563 5.95676C12.8338 5.99578 12.719 6.10167 12.7552 6.30778C12.9 7.18772 12.9945 7.85929 13.1392 8.73927C13.1615 8.84233 13.0751 8.97817 12.9637 8.96425C12.7744 8.83614 12.7274 8.5767 12.4043 8.58778C12.1703 8.59057 11.9036 8.84511 11.8703 9.0903C11.8313 9.28513 11.8174 9.49638 11.8703 9.6663C12.0347 9.86396 12.2316 9.84289 12.4043 9.7983C12.5462 9.73983 12.6631 9.59991 12.7133 9.63327C12.7134 9.63342 12.7146 9.63308 12.7147 9.63327C12.7149 9.63346 12.7146 9.63457 12.7147 9.63476C12.7457 9.6889 12.7118 10.1466 12.0457 10.5002C11.6364 10.6841 11.3106 10.728 11.1352 10.3937C11.0266 10.1849 11.1431 9.38938 10.8757 9.57322C10.0849 11.6116 12.7284 11.8962 13.0237 9.65722C13.0428 9.5941 13.1011 9.5307 13.1422 9.54625C13.1603 9.55393 13.1768 9.57841 13.1827 9.62425C13.1214 11.6515 11.1376 11.7905 10.8007 11.1528C10.7172 11.0024 10.6921 10.6678 10.6837 10.4673C10.6684 10.3459 10.638 10.276 10.6027 10.2482C10.5224 10.1879 10.4143 10.3454 10.3912 10.6188C10.3578 10.8387 10.3672 10.8991 10.3672 11.1108C10.473 12.712 13.0259 12.024 13.4407 10.7013C13.6461 10.0175 13.4365 9.50161 13.5052 9.4383C13.5058 9.43782 13.5076 9.43724 13.5082 9.43681L13.5112 9.43532C13.5119 9.43503 13.5134 9.43402 13.5142 9.43378C13.5172 9.43298 13.5202 9.4325 13.5232 9.43234C13.7767 9.70527 14.1323 9.467 14.2102 9.37234C14.2436 9.32492 14.3272 9.29458 14.3857 9.35578C14.5834 9.49786 14.9299 9.4309 15.0022 9.1803C15.044 8.93526 15.0793 8.68302 15.0877 8.42132C14.9589 8.4613 14.855 8.49126 14.8132 8.53532C14.8032 8.54622 14.7959 8.55826 14.7937 8.57132C14.7825 8.6438 14.7719 8.71642 14.7607 8.78881C14.7595 8.79481 14.7576 8.80033 14.7547 8.80532C14.7486 8.81463 14.7404 8.82235 14.7307 8.82783C14.6852 8.8527 14.6058 8.83849 14.6017 8.77234C14.5404 8.49385 14.2884 8.45761 14.1352 8.88932C14.0321 8.97284 13.8443 8.98916 13.8247 8.86383C13.8498 8.5742 13.733 8.53537 13.4992 8.67183C13.424 8.09818 13.3494 7.5505 13.2742 6.97686C13.3716 6.97402 13.4611 7.04473 13.5502 6.93337C13.4537 6.63342 13.2497 6.02314 13.1347 5.96588C13.1338 5.9654 13.1326 5.96473 13.1317 5.96439C13.1245 5.95603 13.1165 5.94847 13.1077 5.94183C13.1056 5.94039 13.1023 5.93857 13.1002 5.93737C13.0954 5.93488 13.0904 5.93287 13.0852 5.93137C13.075 5.92822 13.0643 5.92721 13.0537 5.92839L13.0537 5.9283ZM20.9421 5.93276C20.8409 5.92978 20.7289 5.99353 20.7726 6.12025C20.7471 6.18937 20.9899 6.4239 21.0291 6.55225C21.0995 6.74948 20.9753 6.93759 21.0486 6.96476C21.116 6.99519 21.2099 6.76119 21.2451 6.54476C21.2857 6.36985 21.1609 6.01129 20.9841 5.93727C20.9702 5.93437 20.9562 5.93283 20.9421 5.93276ZM14.7966 6.14876C14.8427 6.14406 14.8984 6.18639 14.9256 6.24625C14.9547 6.31009 14.9401 6.37114 14.8926 6.38276C14.8451 6.39442 14.7837 6.35214 14.7546 6.28825C14.7255 6.22441 14.7401 6.16191 14.7876 6.15025C14.7906 6.14953 14.7936 6.1491 14.7966 6.14881V6.14876ZM26.1966 6.44425C26.1044 6.44103 26.0039 6.51106 26.0436 6.64825C26.0205 6.72313 26.2404 6.97734 26.2761 7.11625C26.3082 7.21513 26.2273 7.53385 26.2941 7.56327C26.3556 7.5962 26.442 7.3431 26.4741 7.10876C26.4919 6.9805 26.3969 6.53041 26.2356 6.45025C26.2229 6.44673 26.2098 6.44472 26.1966 6.44425ZM19.8937 6.60025C19.9022 6.63788 19.9106 6.67575 19.9163 6.71425C19.9352 6.79738 19.9514 6.87994 19.9688 6.96178C19.8959 6.86151 19.8357 6.78049 19.8097 6.75178C19.645 6.55594 19.8134 6.62319 19.8937 6.60025ZM21.3457 7.31425C21.3101 7.32049 21.2757 7.3513 21.2632 7.39978C21.2554 7.43146 21.2785 7.48282 21.2497 7.49876C21.2332 7.51542 21.1691 7.50572 21.1717 7.41778C21.1717 7.38975 21.1511 7.35903 21.1387 7.34127C21.1262 7.33311 21.1178 7.33076 21.0952 7.33076C21.0677 7.33186 21.0683 7.33916 21.0532 7.36225C21.0468 7.38582 21.0383 7.40905 21.0383 7.43578C21.0348 7.46708 21.0238 7.47769 21.0007 7.48225C20.975 7.48225 20.9796 7.48508 20.9587 7.47178C20.9463 7.4582 20.9317 7.45287 20.9317 7.42978C20.9317 7.40578 20.9255 7.36758 20.9183 7.35178C20.9073 7.33738 20.89 7.33134 20.8703 7.32625C20.7624 7.32663 20.756 7.44908 20.7623 7.49578C20.7541 7.50457 20.7487 7.7257 20.8957 7.78676C21.0932 7.88089 21.4649 7.83961 21.4492 7.52127C21.4492 7.4931 21.4415 7.39854 21.4387 7.37276C21.4186 7.32582 21.3814 7.3081 21.3457 7.31425ZM14.716 7.38025C14.6916 7.3778 14.6597 7.38673 14.623 7.40876C14.4484 7.50322 14.3807 7.78335 14.4895 7.94732C14.591 8.09166 14.7516 8.03876 14.773 8.03876C14.9441 8.06017 15.046 7.71778 15.046 7.71778C15.046 7.71778 15.0511 7.6215 14.848 7.80327C14.7625 7.8193 14.7509 7.78839 14.7295 7.7403C14.7117 7.65121 14.7155 7.56092 14.7565 7.47178C14.7754 7.41836 14.7566 7.38438 14.716 7.38025ZM24.088 7.42378C23.991 7.41908 23.8879 7.48186 23.8615 7.6143C23.8619 7.69239 23.8967 7.73535 23.89 7.8063C23.8799 7.84681 23.8381 7.8735 23.7385 7.82578C23.754 7.81143 23.674 7.6983 23.674 7.6983C23.5963 7.65097 23.4925 7.70084 23.425 7.74476C23.3878 7.8123 23.3603 7.92812 23.4025 8.04625C23.514 8.25231 23.8966 8.60391 24.079 8.60727C24.0824 8.42151 24.1004 8.17446 24.1105 8.02076C24.1148 7.96278 24.1284 7.89884 24.184 7.8843C24.2395 7.86975 24.3359 7.94017 24.337 7.87978C24.3269 7.76161 24.3033 7.58718 24.2365 7.50476C24.2023 7.45412 24.1462 7.42662 24.088 7.42378ZM16.3302 8.0703C16.3276 8.07126 16.3251 8.07342 16.3227 8.07476C16.3216 8.07548 16.3194 8.07692 16.3182 8.07778C16.2989 8.09228 16.2761 8.12574 16.2252 8.16178C16.1393 8.25946 16.124 8.32748 16.1292 8.52327C16.1341 8.54401 16.2923 8.98369 16.4262 9.29276C16.5166 9.61402 16.6001 9.98185 16.5387 10.3293C16.3272 10.7886 15.9021 11.2005 15.4918 11.4242C15.2827 11.4912 15.1021 11.4684 15.0538 11.4228L15.0523 11.4213C14.9322 11.3405 14.9294 11.1968 14.9367 11.1722V11.1708L14.9383 11.1693C15.2845 10.9281 15.6801 10.7329 15.9898 10.0818C16.0812 9.83295 16.1091 9.68353 16.0182 9.29881C15.9828 9.15543 15.9391 9.03745 15.8412 8.93578L15.8427 8.93434C15.9017 8.90612 16.0546 9.01878 16.0782 8.94778C16.042 8.76409 15.9176 8.51746 15.7768 8.39127C15.6534 8.27924 15.5192 8.26628 15.4062 8.36881C15.279 8.43956 15.252 8.69377 15.3132 8.9163C15.3813 9.08382 15.5649 9.11314 15.6958 9.4503V9.45174C15.6984 9.4729 15.7406 9.7034 15.6747 9.79676C15.6213 9.96351 14.9344 10.5052 14.8857 10.5378C14.8852 10.5383 14.8817 10.5403 14.8812 10.5408L14.8798 10.5423C14.8796 10.5424 14.8786 10.5434 14.8782 10.5438L14.8767 10.5453H14.8737C14.8732 10.5448 14.8727 10.5443 14.8723 10.5438V10.5423C14.8719 10.5418 14.871 10.5398 14.8707 10.5393C14.8687 10.5258 14.8723 10.4913 14.8707 10.4358C14.8662 10.3343 14.9082 10.1047 14.9052 10.0653V10.0638L14.9038 10.0623V10.0608H14.9022C14.6752 10.2074 14.6002 10.6568 14.5587 10.7898C13.9839 11.187 13.3312 11.4825 12.9552 11.8848C12.7595 12.1906 14.3042 11.5337 14.4838 11.4543C14.4853 11.4554 14.4868 11.4573 14.4883 11.4588C14.5223 11.4963 14.5253 11.6273 14.6278 11.7453C14.7883 11.9628 15.1296 12.0968 15.4618 12.0138C16.0187 11.8125 16.3396 11.4329 16.6663 11.0118C16.713 10.9439 16.7861 10.8903 16.8538 10.9428C17.0783 11.4454 17.7255 11.803 18.5623 11.8398C18.7559 11.6043 18.6633 11.4886 18.5848 11.4393C18.5606 11.4232 18.1686 11.2705 18.1078 11.1183C18.0695 10.9767 18.1626 10.8512 18.3493 10.7568C18.8866 10.6919 19.4147 10.6197 19.9258 10.4554C19.931 10.2836 20.0321 10.0268 20.0998 9.91537C20.1468 9.83794 20.177 9.83031 20.1883 9.81937L20.1898 9.81783C20.1899 9.81764 20.1911 9.81654 20.1912 9.81634C20.1916 9.8161 20.1925 9.8151 20.1928 9.81486V9.81183C20.1931 9.80847 20.1928 9.80257 20.1913 9.79686L20.1043 9.74583L18.3898 9.73834C18.3686 9.73018 18.3528 9.72202 18.3433 9.71434C18.3425 9.71372 18.3409 9.71194 18.3403 9.71132L18.3388 9.70988L18.3373 9.70834C18.3371 9.70782 18.336 9.70585 18.3358 9.70532L18.3343 9.70388V9.70234L18.3328 9.70086V9.69937V9.69783V9.69486V9.69337V9.69188V9.69034V9.6889C18.3331 9.68857 18.334 9.68766 18.3343 9.68737C18.3347 9.6866 18.3352 9.68516 18.3358 9.68439C18.3442 9.67311 18.3645 9.66246 18.3898 9.65286C18.7992 9.59708 19.5265 9.47785 19.5748 8.77834C19.5672 8.41402 19.4189 8.17546 18.9719 8.10932C18.6433 8.13476 18.4091 8.45252 18.4468 8.80234C18.4311 8.89657 18.4787 9.08142 18.3823 9.10234C17.7522 9.15994 17.0644 9.55474 17.0413 9.83732H17.0398L17.0383 9.83881L17.0353 9.84034H17.0323C17.0313 9.84068 17.0288 9.84154 17.0278 9.84178H17.0233C17.0218 9.84183 17.0203 9.84183 17.0188 9.84178C17.0171 9.8415 17.0142 9.84068 17.0128 9.84034C16.9718 9.82897 16.919 9.76129 16.9273 9.66634C16.9033 9.17785 16.7443 8.62508 16.4953 8.19937C16.4064 8.11052 16.3677 8.07452 16.3423 8.07034C16.3415 8.07025 16.3401 8.07039 16.3393 8.07034H16.3303L16.3302 8.0703ZM17.9712 8.3283C17.9356 8.33444 17.9012 8.36382 17.8887 8.4123C17.8809 8.44398 17.904 8.49678 17.8752 8.51276C17.8587 8.52942 17.7946 8.51972 17.7972 8.43178C17.7972 8.40375 17.7767 8.37303 17.7642 8.35527C17.7517 8.34711 17.7448 8.34476 17.7222 8.34476C17.6947 8.34591 17.6939 8.35316 17.6787 8.3763C17.6723 8.39982 17.6638 8.4231 17.6638 8.44974C17.6603 8.48108 17.6493 8.49169 17.6262 8.4963C17.6005 8.4963 17.6066 8.49908 17.5858 8.48574C17.5734 8.47225 17.5572 8.46692 17.5572 8.44378C17.5572 8.41983 17.5524 8.38162 17.5452 8.36578C17.5343 8.35138 17.5155 8.34534 17.4958 8.3403C17.3879 8.34068 17.3815 8.46308 17.3878 8.50974C17.3796 8.51857 17.3742 8.7397 17.5212 8.80076C17.7187 8.89494 18.1892 8.8395 18.0747 8.53532C18.0747 8.50714 18.0671 8.41258 18.0642 8.38676C18.0441 8.33986 18.0069 8.3221 17.9712 8.3283ZM24.5938 8.59978C24.5883 8.59885 24.5826 8.59936 24.5773 8.60127C24.5773 8.60127 23.6625 9.25215 23.6399 9.27476C23.5491 9.3554 23.5945 9.63903 23.6399 9.60625C23.7054 9.63145 24.6264 9.0073 24.6088 8.93425C24.649 8.93665 24.6683 8.61318 24.5938 8.59978ZM18.8357 8.69626C18.8731 8.69228 18.922 8.70495 18.9692 8.73226C19.0375 8.77177 19.0796 8.83143 19.0742 8.87478C19.074 8.87593 19.0745 8.87814 19.0742 8.87924C19.0739 8.88039 19.0715 8.8826 19.0712 8.88375C19.0708 8.88486 19.0702 8.88716 19.0697 8.88826C19.0694 8.88898 19.0686 8.89057 19.0682 8.89124L19.0667 8.89426C19.0642 8.8981 19.0611 8.90163 19.0577 8.90478C19.0249 8.9354 18.9491 8.93103 18.8777 8.88975C18.81 8.85063 18.7683 8.79049 18.7727 8.74724C18.7729 8.74609 18.774 8.74388 18.7742 8.74278C18.7753 8.7374 18.7775 8.7325 18.7802 8.72775C18.7812 8.72607 18.7821 8.72329 18.7832 8.72175L18.7847 8.72026C18.787 8.71758 18.7896 8.71508 18.7922 8.71278C18.8031 8.70418 18.8185 8.69809 18.8357 8.69626ZM10.824 8.86124C10.35 8.86988 9.65582 9.4826 9.63753 9.82273C10.1377 9.58254 10.6291 9.35137 11.1375 9.10273C11.0555 8.98023 11.1325 8.86988 10.824 8.86129V8.86124ZM12.36 9.07426C12.4065 9.07474 12.4556 9.09774 12.4815 9.16278C12.505 9.22239 12.4826 9.28479 12.4546 9.31575C12.4544 9.31599 12.4547 9.317 12.4546 9.31724C12.4541 9.31796 12.4535 9.31964 12.4531 9.32026C12.4331 9.3459 12.3633 9.33524 12.3135 9.33524C12.2533 9.3326 12.2237 9.32276 12.1875 9.2738C12.1703 9.21932 12.2229 9.16585 12.2461 9.12524C12.2463 9.12486 12.2473 9.12414 12.2475 9.1238C12.2501 9.11996 12.2542 9.11545 12.2581 9.1118C12.276 9.09529 12.3072 9.07988 12.3406 9.0758C12.347 9.07498 12.3534 9.07417 12.36 9.07426ZM24.4157 9.2629C24.3314 9.27327 24.2513 9.353 24.2882 9.48039C24.2651 9.55527 24.4026 9.81697 24.4382 9.95588C24.4703 10.0548 24.397 10.3345 24.4637 10.3639C24.5252 10.3969 24.6869 10.1978 24.6812 9.94839C24.699 9.82014 24.6355 9.34758 24.4742 9.26737C24.4552 9.26207 24.4353 9.26054 24.4157 9.26286V9.2629ZM14.1768 9.7249C14.1023 9.73009 14.0359 9.76993 14.0659 9.8749C14.0614 9.95103 14.2764 10.0436 14.2894 10.2199C14.3201 10.2926 14.2434 10.5253 14.3074 10.5469C14.3661 10.5711 14.4476 10.3861 14.4783 10.2139C14.4954 10.1196 14.4046 9.7898 14.2503 9.7309C14.2262 9.72548 14.2015 9.72346 14.1768 9.7249ZM17.2414 10.1434C17.247 10.143 17.252 10.1434 17.2579 10.1434H17.2608C17.4519 10.1953 17.7335 10.2007 17.9779 10.2259C18.177 10.2386 18.2753 10.3944 18.0889 10.4599C17.905 10.5229 17.7282 10.5721 17.7274 10.8379C17.7515 10.9696 17.7465 11.0387 17.7259 11.0704C17.7243 11.0728 17.7217 11.076 17.7199 11.0779L17.7184 11.0794L17.7169 11.0809L17.7154 11.0824L17.7139 11.0839L17.7109 11.0854C17.708 11.0872 17.705 11.0887 17.7019 11.0899C17.6993 11.0907 17.6956 11.0909 17.6929 11.0914C17.6492 11.0978 17.5857 11.0561 17.5384 11.0314C17.425 10.95 17.1067 10.7527 17.0614 10.3294C17.0549 10.2338 17.1264 10.1515 17.2414 10.1434L17.2414 10.1434ZM9.75624 10.4689C9.74429 10.4693 9.72043 10.505 9.68875 10.5454C9.40675 10.9947 9.38165 11.6653 9.53726 11.8654C9.61992 11.96 9.75624 12.0015 9.85675 11.9719C10.0339 11.8951 10.1118 11.5362 10.0697 11.4049C10.0106 11.3124 9.96379 11.2977 9.90475 11.3764C9.78005 11.6295 9.72816 11.4564 9.71726 11.315C9.69811 11.0466 9.72413 10.7996 9.75326 10.604C9.76877 10.5037 9.76814 10.4686 9.75624 10.469V10.4689ZM19.3639 11.0588C19.3411 11.0574 19.3183 11.0621 19.2979 11.0723C19.2935 11.0723 19.096 11.2058 19.0324 11.2988C18.9936 11.3283 18.998 11.354 19.0099 11.4053C19.0402 11.4748 19.0934 11.453 19.1539 11.4203C19.2342 11.4094 19.273 11.4619 19.2664 11.5583C19.2294 11.6785 19.2829 11.7233 19.2829 11.7308C19.2829 11.7384 19.3602 11.8047 19.4509 11.7518C19.6424 11.6787 19.7617 11.6076 20.0299 11.5493C20.1003 11.5479 20.0962 11.3595 19.9849 11.3528C19.8396 11.3601 19.7056 11.3676 19.5604 11.4818C19.4711 11.5024 19.4557 11.4481 19.4359 11.3993C19.4132 11.2783 19.487 11.193 19.4719 11.1023C19.4759 11.1063 19.4268 11.0621 19.3639 11.0588ZM25.5156 11.2883C25.48 11.2894 25.4424 11.2944 25.3881 11.2988C25.3293 11.3113 25.3088 11.337 25.2981 11.4083C25.3023 11.5164 25.3684 11.511 25.4361 11.5538C25.4753 11.6037 25.5008 11.6488 25.4331 11.7308C25.369 11.7896 25.3233 11.822 25.2591 11.8808C25.2288 11.9325 25.2099 12.0119 25.3026 12.0368C25.4737 12.0849 25.8696 11.8277 25.8696 11.8223C25.9337 11.7742 25.9125 11.6828 25.907 11.6828C25.8697 11.6401 25.7853 11.6657 25.7286 11.6588C25.7016 11.6588 25.6129 11.6457 25.6551 11.5673C25.6903 11.5186 25.7032 11.4894 25.7271 11.4293C25.7538 11.3705 25.7303 11.3309 25.6341 11.2988C25.5851 11.2899 25.5512 11.2872 25.5156 11.2883ZM22.9457 16.4915C22.9453 16.4917 22.9446 16.4928 22.9442 16.493C22.6596 16.566 22.6685 16.8614 22.8512 16.991C19.8467 16.991 15.236 16.94 14.2472 16.94C13.694 16.94 11.9438 16.874 11.9101 16.874C12.2855 17.423 12.8292 17.5348 13.5407 17.546C14.8751 17.546 21.0585 17.5295 22.8181 17.5295C22.693 17.7517 22.8295 18.1091 22.9276 18.1745C22.9297 18.1759 22.9331 18.178 22.9351 18.179C22.9388 18.1809 22.9436 18.1826 22.9471 18.1835C22.9483 18.1838 22.9505 18.1834 22.9516 18.1835C23.0681 18.211 23.1194 18.1267 23.1586 18.065C23.3476 18.0817 24.4113 18.0971 24.5086 18.0635C24.5089 18.0634 24.5098 18.0622 24.5101 18.0621C24.5759 18.1589 24.6413 18.2505 24.7666 18.2345C24.9859 18.1875 25.1586 18.1636 25.1641 17.7185C25.1641 17.7185 25.1417 16.96 24.6436 17.0076C24.5257 17.0254 24.1951 17.0586 24.1951 17.0586C23.8125 17.013 23.5318 17.0084 23.1016 16.9926C23.1413 16.9422 23.2114 16.738 23.1256 16.6641C23.1032 16.6454 23.0699 16.6351 23.0236 16.6386H23.0221C23.0215 16.6385 23.0197 16.6387 23.0191 16.6386C23.0188 16.6385 23.0179 16.6371 23.0176 16.637C23.0164 16.6366 23.0143 16.6363 23.0131 16.6356C23.0103 16.6334 23.0078 16.6309 23.0056 16.6281C23.0051 16.6274 23.0031 16.6258 23.0026 16.625C22.9809 16.5934 22.969 16.5158 22.9546 16.4961L22.9531 16.4946L22.9516 16.493C22.9507 16.4925 22.9496 16.492 22.9486 16.4916H22.9471C22.9469 16.4916 22.9458 16.4915 22.9456 16.4916L22.9457 16.4915ZM23.1497 17.576C23.1502 17.5758 23.1506 17.5763 23.1512 17.576C23.5895 17.5974 24.0013 17.5802 24.4397 17.6015C24.5092 17.6606 24.4744 17.7959 24.4292 17.8205C24.4268 17.8217 24.4243 17.8227 24.4217 17.8235C24.42 17.8239 24.4174 17.8235 24.4157 17.8235C24.414 17.8235 24.4114 17.8239 24.4097 17.8235C24.2671 17.82 24.1847 17.8166 24.0422 17.813C24.0421 17.8059 24.0411 17.7989 24.0392 17.792C24.0054 17.6919 23.7608 17.6986 23.7032 17.777L23.7002 17.7815C23.6992 17.7831 23.698 17.7859 23.6972 17.7875C23.6963 17.7896 23.6949 17.7929 23.6942 17.795C23.6933 17.798 23.6931 17.8024 23.6927 17.8055C23.6923 17.8091 23.6909 17.8137 23.6912 17.8175C23.4988 17.8406 23.3256 17.8111 23.1332 17.8041C23.0767 17.7338 23.0833 17.6066 23.1497 17.5761V17.576Z" fill="white"/>
</g>
<defs>
<clipPath id="clip0_165_6005">
<rect width="36" height="24" fill="white" transform="translate(0.5)"/>
</clipPath>
</defs>
</svg>
