<svg width="33" height="33" viewBox="0 0 33 33" fill="none" xmlns="http://www.w3.org/2000/svg">
<g clip-path="url(#clip0_135_579)">
<path d="M32.2 27.8C32.2 28.8225 30.4425 29.6512 28.2756 29.6512C26.49 29.6512 24.9818 29.0862 24.5075 28.3156H19.9687C19.4937 29.0862 17.9862 29.6512 16.2006 29.6512C14.4131 29.6512 12.9056 29.0862 12.4325 28.3156H7.89183C7.4187 29.0862 5.9112 29.6512 4.1237 29.6512C1.95558 29.6512 0.199951 28.8225 0.199951 27.8C0.199951 26.7775 1.95558 25.9487 4.12245 25.9487C5.90995 25.9487 7.41745 26.5119 7.89058 27.2844H12.4293C12.6668 26.8981 13.1643 26.5631 13.8256 26.3256C14.1943 26.8075 14.5593 27.2912 14.915 27.78C15.2181 28.1944 15.6856 28.4319 16.1993 28.4319C16.7112 28.4319 17.1793 28.1944 17.4818 27.78C17.84 27.2912 18.2031 26.8075 18.5712 26.3256C19.2337 26.5631 19.73 26.8981 19.9675 27.2844H24.5062C24.9812 26.5119 26.4887 25.9487 28.2743 25.9487C30.4425 25.9487 32.2 26.7781 32.2 27.8ZM15.75 27.1712C11.4181 21.2362 3.4937 13.2356 10.04 6.68937C13.4275 3.30187 18.9706 3.30187 22.3581 6.68937C28.9062 13.2356 20.98 21.2362 16.6481 27.1712C16.54 27.32 16.3825 27.4 16.2 27.4C16.0156 27.4 15.8581 27.32 15.75 27.1712ZM16.2 18.1181C19.1018 18.1181 21.4687 15.7494 21.4687 12.8475C21.4687 9.94562 19.1018 7.57687 16.2 7.57687C13.2962 7.57687 10.9293 9.94562 10.9293 12.8475C10.9293 15.7494 13.2962 18.1181 16.2 18.1181ZM19.5237 10.6237C19.3218 10.4219 18.9937 10.4219 18.7937 10.6237L15.4418 13.9756L13.6062 12.14C13.4043 11.9381 13.0781 11.9381 12.8762 12.14C12.6743 12.3419 12.6743 12.6681 12.8762 12.87L15.0768 15.0706C15.2787 15.2725 15.605 15.2725 15.8068 15.0706L19.5237 11.3537C19.7237 11.1519 19.7237 10.8256 19.5237 10.6237Z" fill="#797B7B"/>
<path d="M5.44995 18.9C4.7607 18.9 4.19995 19.4607 4.19995 20.15C4.19995 20.8392 4.7607 21.4 5.44995 21.4C6.1392 21.4 6.69995 20.8392 6.69995 20.15C6.69995 19.4607 6.1392 18.9 5.44995 18.9Z" fill="#797B7B"/>
<path d="M29.1375 19.9C28.6205 19.9 28.2 20.3206 28.2 20.8375C28.2 21.3544 28.6205 21.775 29.1375 21.775C29.6544 21.775 30.075 21.3544 30.075 20.8375C30.075 20.3206 29.6544 19.9 29.1375 19.9Z" fill="#797B7B"/>
<path d="M25.575 4.55624C25.8338 4.55624 26.0437 4.34638 26.0437 4.08749C26.0437 3.82861 25.8338 3.61874 25.575 3.61874C25.3161 3.61874 25.1062 3.82861 25.1062 4.08749C25.1062 4.34638 25.3161 4.55624 25.575 4.55624Z" fill="#797B7B"/>
<path d="M28.6687 12.8375C28.9276 12.8375 29.1375 12.6276 29.1375 12.3687C29.1375 12.1099 28.9276 11.9 28.6687 11.9C28.4098 11.9 28.2 12.1099 28.2 12.3687C28.2 12.6276 28.4098 12.8375 28.6687 12.8375Z" fill="#797B7B"/>
<path d="M3.6687 14.8375C3.92758 14.8375 4.13745 14.6276 4.13745 14.3687C4.13745 14.1099 3.92758 13.9 3.6687 13.9C3.40982 13.9 3.19995 14.1099 3.19995 14.3687C3.19995 14.6276 3.40982 14.8375 3.6687 14.8375Z" fill="#797B7B"/>
<path d="M4.01245 6.43124C4.27133 6.43124 4.4812 6.22138 4.4812 5.96249C4.4812 5.70361 4.27133 5.49374 4.01245 5.49374C3.75357 5.49374 3.5437 5.70361 3.5437 5.96249C3.5437 6.22138 3.75357 6.43124 4.01245 6.43124Z" fill="#797B7B"/>
</g>
<defs>
<clipPath id="clip0_135_579">
<rect width="32" height="32" fill="white" transform="translate(0.199951 0.899994)"/>
</clipPath>
</defs>
</svg>
