<svg width="25" height="24" viewBox="0 0 25 24" fill="none" xmlns="http://www.w3.org/2000/svg">
<path d="M10.5802 7.89712C11.6568 5.96571 12.1952 5 13 5C13.8048 5 14.3432 5.96571 15.4198 7.89712L15.6984 8.3968C16.0043 8.94564 16.1573 9.22007 16.3958 9.40114C16.6343 9.5822 16.9314 9.64942 17.5255 9.78384L18.0664 9.90622C20.1571 10.3793 21.2025 10.6158 21.4512 11.4156C21.6999 12.2153 20.9872 13.0487 19.5619 14.7154L19.1932 15.1466C18.7881 15.6203 18.5856 15.8571 18.4945 16.1501C18.4034 16.443 18.434 16.759 18.4953 17.3909L18.551 17.9662C18.7665 20.19 18.8742 21.3019 18.2231 21.7962C17.572 22.2905 16.5932 21.8398 14.6357 20.9385L14.1292 20.7053C13.573 20.4492 13.2948 20.3211 13 20.3211C12.7052 20.3211 12.427 20.4492 11.8708 20.7053L11.3643 20.9385C9.40677 21.8398 8.428 22.2905 7.77688 21.7962C7.12575 21.3019 7.2335 20.19 7.44899 17.9662L7.50474 17.3909C7.56597 16.759 7.59659 16.443 7.50548 16.1501C7.41438 15.8571 7.21186 15.6203 6.80683 15.1466L6.43808 14.7154C5.01276 13.0487 4.3001 12.2153 4.54881 11.4156C4.79751 10.6158 5.84288 10.3793 7.93361 9.90622L8.4745 9.78384C9.06862 9.64942 9.36568 9.5822 9.6042 9.40114C9.84272 9.22007 9.9957 8.94565 10.3016 8.3968L10.5802 7.89712Z" stroke="#FF9500" stroke-width="1.5"/>
<path d="M5.36752 2.5004C5.39751 2.39461 5.58528 2.39398 5.61598 2.49956C5.75618 2.98167 6.01616 3.69428 6.40928 4.08476C6.80241 4.47524 7.51676 4.73039 7.99981 4.86734C8.1056 4.89733 8.10623 5.08509 8.00065 5.1158C7.51854 5.256 6.80592 5.51597 6.41545 5.9091C6.02497 6.30222 5.76981 7.01658 5.63287 7.49963C5.60288 7.60541 5.41511 7.60605 5.38441 7.50047C5.24421 7.01836 4.98424 6.30574 4.59111 5.91526C4.19798 5.52478 3.48363 5.26963 3.00058 5.13269C2.8948 5.1027 2.89416 4.91493 2.99974 4.88423C3.48185 4.74402 4.19447 4.48405 4.58495 4.09093C4.97543 3.6978 5.23058 2.98344 5.36752 2.5004Z" stroke="#FF9500" stroke-linejoin="round"/>
</svg>
