<svg width="20" height="20" viewBox="0 0 20 20" fill="none" xmlns="http://www.w3.org/2000/svg">
<path d="M8.40008 6.58095C9.29729 4.97144 9.74589 4.16669 10.4166 4.16669C11.0873 4.16669 11.5359 4.97144 12.4331 6.58095L12.6652 6.99735C12.9202 7.45472 13.0477 7.68341 13.2464 7.8343C13.4452 7.98519 13.6927 8.0412 14.1878 8.15322L14.6386 8.25521C16.3809 8.64941 17.252 8.84652 17.4592 9.513C17.6665 10.1795 17.0726 10.8739 15.8849 12.2629L15.5776 12.6222C15.24 13.0169 15.0713 13.2143 14.9954 13.4584C14.9194 13.7025 14.9449 13.9658 14.996 14.4925L15.0424 14.9719C15.222 16.825 15.3118 17.7516 14.7692 18.1635C14.2266 18.5754 13.4109 18.1999 11.7797 17.4488L11.3576 17.2544C10.8941 17.041 10.6623 16.9343 10.4166 16.9343C10.1709 16.9343 9.93912 17.041 9.47556 17.2544L9.05352 17.4488C7.42223 18.1999 6.60659 18.5754 6.06398 18.1635C5.52138 17.7516 5.61117 16.825 5.79074 14.9719L5.8372 14.4925C5.88823 13.9658 5.91374 13.7025 5.83782 13.4584C5.7619 13.2143 5.59314 13.0169 5.25561 12.6222L4.94832 12.2629C3.76055 10.8739 3.16667 10.1795 3.37393 9.513C3.58118 8.84652 4.45232 8.64941 6.19459 8.25521L6.64534 8.15322C7.14044 8.0412 7.38799 7.98519 7.58675 7.8343C7.78552 7.68341 7.913 7.45472 8.16796 6.99735L8.40008 6.58095Z" fill="#FFCC00"/>
<path d="M4.05619 2.08367C4.08118 1.99552 4.23765 1.99499 4.26324 2.08297C4.38007 2.48473 4.59672 3.07858 4.92432 3.40398C5.25193 3.72938 5.84722 3.94201 6.24976 4.05613C6.33791 4.08112 6.33844 4.23759 6.25046 4.26317C5.8487 4.38001 5.25486 4.59665 4.92946 4.92426C4.60406 5.25186 4.39143 5.84716 4.27731 6.2497C4.25232 6.33785 4.09585 6.33838 4.07026 6.2504C3.95343 5.84864 3.73678 5.25479 3.40918 4.9294C3.08157 4.604 2.48627 4.39137 2.08373 4.27725C1.99558 4.25226 1.99505 4.09579 2.08303 4.0702C2.4848 3.95336 3.07864 3.73672 3.40404 3.40912C3.72944 3.08151 3.94207 2.48621 4.05619 2.08367Z" fill="#FFCC00"/>
<path fill-rule="evenodd" clip-rule="evenodd" d="M15.8333 2.70831C16.1785 2.70831 16.4583 2.98814 16.4583 3.33331V3.54165H16.6667C17.0118 3.54165 17.2917 3.82147 17.2917 4.16665C17.2917 4.51182 17.0118 4.79165 16.6667 4.79165H16.4583V4.99998C16.4583 5.34516 16.1785 5.62498 15.8333 5.62498C15.4882 5.62498 15.2083 5.34516 15.2083 4.99998V4.79165H15C14.6548 4.79165 14.375 4.51182 14.375 4.16665C14.375 3.82147 14.6548 3.54165 15 3.54165H15.2083V3.33331C15.2083 2.98814 15.4882 2.70831 15.8333 2.70831Z" fill="#FFCC00"/>
</svg>
