<svg width="105" height="104" viewBox="0 0 105 104" fill="none" xmlns="http://www.w3.org/2000/svg">
<g clip-path="url(#clip0_216_1525)">
<path fill-rule="evenodd" clip-rule="evenodd" d="M52.5 0C38.7087 0 25.4823 5.47856 15.7304 15.2304C5.97856 24.9823 0.5 38.2087 0.5 52C0.5 65.7913 5.97856 79.0177 15.7304 88.7696C25.4823 98.5214 38.7087 104 52.5 104C66.2913 104 79.5177 98.5214 89.2696 88.7696C99.0214 79.0177 104.5 65.7913 104.5 52C104.5 38.2087 99.0214 24.9823 89.2696 15.2304C79.5177 5.47856 66.2913 0 52.5 0ZM52.487 27.6315C52.7048 27.628 52.921 27.6683 53.1229 27.75C53.3248 27.8317 53.5082 27.9532 53.6623 28.1072C53.8163 28.2613 53.9378 28.4447 54.0195 28.6466C54.1012 28.8485 54.1415 29.0647 54.138 29.2825V42.2825C54.138 42.7135 53.9668 43.1268 53.662 43.4315C53.3573 43.7363 52.944 43.9075 52.513 43.9075C52.082 43.9075 51.6687 43.7363 51.364 43.4315C51.0592 43.1268 50.888 42.7135 50.888 42.2825V29.2825C50.8846 29.0691 50.9232 28.8571 51.0017 28.6586C51.0802 28.4602 51.197 28.2791 51.3455 28.1258C51.494 27.9725 51.6712 27.8499 51.8671 27.7651C52.0629 27.6803 52.2736 27.6349 52.487 27.6315ZM46.0585 31.8792C46.4549 31.859 46.8451 31.9847 47.1552 32.2324C47.4654 32.4801 47.6742 32.8328 47.7422 33.2239C47.8102 33.6149 47.7326 34.0174 47.5243 34.3552C47.3159 34.6931 46.991 34.943 46.611 35.0578C42.1762 36.4595 38.3898 39.4027 35.9373 43.3546C33.4847 47.3065 32.5281 52.0058 33.2405 56.602C33.9445 61.1995 36.2722 65.3926 39.8018 68.4214C43.3315 71.4502 47.8295 73.1143 52.4805 73.112C57.1306 73.1208 61.6304 71.4648 65.1654 68.4437C68.7004 65.4225 71.0372 61.2357 71.753 56.641C72.4746 52.0467 71.5276 47.3458 69.0834 43.3893C66.6392 39.4327 62.8594 36.4818 58.428 35.0708C58.0173 34.9393 57.6756 34.6501 57.4781 34.2667C57.2806 33.8833 57.2436 33.4372 57.375 33.0265C57.5064 32.6158 57.7957 32.2741 58.179 32.0766C58.5624 31.8791 59.0085 31.8421 59.4193 31.9735C64.5852 33.6268 68.9904 37.0713 71.8407 41.6861C74.6909 46.3008 75.7986 51.7821 74.964 57.1415C74.1193 62.499 71.3896 67.379 67.2665 70.9027C63.1434 74.4264 57.8977 76.3624 52.474 76.362C47.0505 76.3531 41.8086 74.407 37.6933 70.8745C33.578 67.342 30.8601 62.4555 30.0295 57.096C29.2061 51.7349 30.3251 46.256 33.1849 41.6473C36.0447 37.0385 40.457 33.6031 45.6263 31.9605C45.7663 31.9162 45.9117 31.891 46.0585 31.8857V31.8792Z" fill="#919494"/>
</g>
<defs>
<clipPath id="clip0_216_1525">
<rect width="104" height="104" fill="white" transform="translate(0.5)"/>
</clipPath>
</defs>
</svg>
