<svg width="32" height="32" viewBox="0 0 32 32" fill="none" xmlns="http://www.w3.org/2000/svg">
<path fill-rule="evenodd" clip-rule="evenodd" d="M20.1667 8.29175C18.2107 8.29175 16.625 9.87741 16.625 11.8334C16.625 12.4011 16.7581 12.9359 16.9942 13.41C17.1267 13.676 17.1816 14.0019 17.0942 14.3285L16.8833 15.1167L17.6715 14.9059C17.9981 14.8185 18.3241 14.8734 18.5901 15.0059C19.0642 15.242 19.599 15.3751 20.1667 15.3751C22.1227 15.3751 23.7083 13.7894 23.7083 11.8334C23.7083 9.87741 22.1227 8.29175 20.1667 8.29175ZM15.375 11.8334C15.375 9.18705 17.5203 7.04175 20.1667 7.04175C22.813 7.04175 24.9583 9.18705 24.9583 11.8334C24.9583 14.4798 22.813 16.6251 20.1667 16.6251C19.4013 16.6251 18.6761 16.4452 18.0328 16.1248C18.0184 16.1176 18.0068 16.1148 17.9998 16.1139C17.9965 16.1135 17.9946 16.1135 17.9938 16.1136L17.0671 16.3615C16.1999 16.5936 15.4065 15.8002 15.6385 14.933L15.8865 14.0063C15.8865 14.0055 15.8866 14.0035 15.8862 14.0003C15.8853 13.9932 15.8825 13.9817 15.8753 13.9673C15.5549 13.324 15.375 12.5988 15.375 11.8334ZM9.09804 9.41019C10.1199 8.3344 11.81 8.53596 12.6547 9.73061L13.7055 11.2168C14.3811 12.1724 14.3241 13.5009 13.5178 14.3498L13.3137 14.5646C13.3131 14.5661 13.3125 14.5677 13.3119 14.5694C13.3011 14.5997 13.2739 14.6962 13.3007 14.8793C13.3563 15.259 13.6494 16.0304 14.8391 17.2829C16.0325 18.5394 16.7564 18.8355 17.0919 18.89C17.2366 18.9135 17.3123 18.8931 17.3364 18.8846L17.677 18.5261C18.4051 17.7595 19.5404 17.6084 20.4558 18.1353L22.0479 19.0517C23.4086 19.835 23.7254 21.751 22.6379 22.8959L21.4541 24.1422C21.0846 24.5312 20.5808 24.8632 19.9583 24.9246C18.4384 25.0747 14.9174 24.8793 11.2263 20.9932C7.78199 17.367 7.12768 14.2129 7.04496 12.6719C7.0041 11.9105 7.3435 11.2574 7.79004 10.7873L8.2432 11.2177L7.79004 10.7873L9.09804 9.41019ZM11.634 10.4522C11.2071 9.84837 10.4401 9.81234 10.0044 10.271L8.69636 11.6481C8.4202 11.9389 8.27531 12.2721 8.29317 12.6049C8.3607 13.863 8.90252 16.7316 12.1326 20.1323C15.5194 23.698 18.6397 23.7987 19.8355 23.6807C20.072 23.6573 20.3152 23.5261 20.5478 23.2813L21.7316 22.035C22.2422 21.4974 22.1084 20.5288 21.4243 20.1351L19.8322 19.2187C19.405 18.9728 18.9045 19.0488 18.5833 19.3869L18.2038 19.7865L17.7506 19.3561C18.2038 19.7865 18.2032 19.7871 18.2026 19.7877L18.2014 19.789L18.1989 19.7915L18.1937 19.7969L18.1817 19.8087C18.1731 19.817 18.1632 19.8261 18.152 19.836C18.1296 19.8556 18.1019 19.878 18.0686 19.9016C18.0018 19.949 17.9129 20.001 17.8005 20.0454C17.5705 20.1361 17.2667 20.1848 16.8915 20.1238C16.1603 20.0051 15.2018 19.4798 13.9328 18.1438C12.66 16.8038 12.1728 15.804 12.0639 15.0606C12.0085 14.6822 12.0528 14.3792 12.1343 14.1504C12.1743 14.0378 12.2216 13.9481 12.2652 13.88C12.2869 13.846 12.3076 13.8176 12.326 13.7944C12.3351 13.7828 12.3437 13.7726 12.3515 13.7636L12.3626 13.7511L12.3677 13.7456L12.3701 13.743L12.3713 13.7418C12.3718 13.7412 12.3724 13.7405 12.8256 14.171L12.3724 13.7405L12.6114 13.4889C12.9827 13.098 13.0367 12.436 12.6849 11.9385L11.634 10.4522Z" fill="#047B7B"/>
</svg>
