<svg width="32" height="32" viewBox="0 0 32 32" fill="none" xmlns="http://www.w3.org/2000/svg">
<path fill-rule="evenodd" clip-rule="evenodd" d="M15.1197 7.04175H16.8803C18.4118 7.04174 19.6248 7.04172 20.5742 7.16936C21.5512 7.30072 22.342 7.57748 22.9656 8.20112C23.5893 8.82475 23.866 9.61554 23.9974 10.5926C24.125 11.5419 24.125 12.7549 24.125 14.2864V17.7138C24.125 19.2452 24.125 20.4583 23.9974 21.4076C23.866 22.3846 23.5893 23.1754 22.9656 23.799C22.342 24.4227 21.5512 24.6994 20.5742 24.8308C19.6248 24.9584 18.4118 24.9584 16.8803 24.9584H15.1197C13.5882 24.9584 12.3752 24.9584 11.4258 24.8308C10.4488 24.6994 9.65801 24.4227 9.03437 23.799C8.41073 23.1754 8.13397 22.3846 8.00261 21.4076C7.87498 20.4583 7.87499 19.2452 7.875 17.7138V14.2864C7.87499 12.7549 7.87498 11.5419 8.00261 10.5926C8.13397 9.61554 8.41073 8.82475 9.03437 8.20112C9.65801 7.57748 10.4488 7.30072 11.4258 7.16936C12.3752 7.04172 13.5882 7.04174 15.1197 7.04175ZM11.5924 8.40821C10.754 8.52094 10.2709 8.73233 9.91825 9.085C9.56558 9.43768 9.35419 9.92071 9.24147 10.7591C9.12633 11.6155 9.125 12.7444 9.125 14.3334V17.6667C9.125 19.2558 9.12633 20.3847 9.24147 21.241C9.35419 22.0794 9.56558 22.5625 9.91825 22.9152C10.2709 23.2678 10.754 23.4792 11.5924 23.5919C12.4488 23.7071 13.5777 23.7084 15.1667 23.7084H16.8333C18.4224 23.7084 19.5512 23.7071 20.4076 23.5919C21.246 23.4792 21.7291 23.2678 22.0817 22.9152C22.4344 22.5625 22.6458 22.0794 22.7585 21.241C22.8737 20.3847 22.875 19.2558 22.875 17.6667V14.3334C22.875 12.7444 22.8737 11.6155 22.7585 10.7591C22.6458 9.92071 22.4344 9.43768 22.0817 9.085C21.7291 8.73233 21.246 8.52094 20.4076 8.40821C19.5512 8.29308 18.4224 8.29175 16.8333 8.29175H15.1667C13.5777 8.29175 12.4488 8.29308 11.5924 8.40821ZM12.0417 14.3334C12.0417 13.9882 12.3215 13.7084 12.6667 13.7084H19.3333C19.6785 13.7084 19.9583 13.9882 19.9583 14.3334C19.9583 14.6786 19.6785 14.9584 19.3333 14.9584H12.6667C12.3215 14.9584 12.0417 14.6786 12.0417 14.3334ZM12.0417 17.6667C12.0417 17.3216 12.3215 17.0417 12.6667 17.0417H16.8333C17.1785 17.0417 17.4583 17.3216 17.4583 17.6667C17.4583 18.0119 17.1785 18.2917 16.8333 18.2917H12.6667C12.3215 18.2917 12.0417 18.0119 12.0417 17.6667Z" fill="#FF9500"/>
</svg>
