<svg width="37" height="24" viewBox="0 0 37 24" fill="none" xmlns="http://www.w3.org/2000/svg">
<g clip-path="url(#clip0_165_6018)">
<path d="M2.37174 24H34.6283C35.6652 23.9438 36.5 23.1125 36.5 22.1062V1.89375C36.5 0.85625 35.6196 0.00625 34.537 0H2.46304C1.38043 0.00625 0.5 0.85625 0.5 1.89375V22.1C0.5 23.1125 1.33478 23.9438 2.37174 24Z" fill="#FEFEFE"/>
<path d="M15.9826 14.3938V24H20.9913V14.3938H36.5V9.59375H20.9913V0H15.9826V9.59375H0.5V14.3938H15.9826Z" fill="#C8102E"/>
<path d="M22.6609 7.76875V0H34.55C35.3718 0.0125 36.0761 0.50625 36.3631 1.2L22.6609 7.76875Z" fill="#012169"/>
<path d="M22.6609 16.2312V24H34.6283C35.4174 23.9562 36.0826 23.4687 36.3631 22.8L22.6609 16.2312Z" fill="#012169"/>
<path d="M14.3131 16.2312V24H2.37175C1.58261 23.9562 0.910876 23.4687 0.636963 22.7875L14.3131 16.2312Z" fill="#012169"/>
<path d="M14.3131 7.76875V0H2.45001C1.62827 0.0125 0.917398 0.5125 0.636963 1.2125L14.3131 7.76875Z" fill="#012169"/>
<path d="M0.5 7.99995H5.48913L0.5 5.6062V7.99995Z" fill="#012169"/>
<path d="M36.5001 8H31.4849L36.5001 5.59375V8Z" fill="#012169"/>
<path d="M36.5001 16H31.4849L36.5001 18.4062V16Z" fill="#012169"/>
<path d="M0.5 16H5.48913L0.5 18.3937V16Z" fill="#012169"/>
<path d="M36.5001 2.03125L24.0762 8H26.8544L36.5001 3.375V2.03125Z" fill="#C8102E"/>
<path d="M12.8978 16H10.1196L0.5 20.6125V21.9563L12.9239 16H12.8978Z" fill="#C8102E"/>
<path d="M7.36087 8.00635H10.1391L0.5 3.38135V4.71885L7.36087 8.00635Z" fill="#C8102E"/>
<path d="M29.6066 15.9937H26.8284L36.5001 20.6374V19.2999L29.6066 15.9937Z" fill="#C8102E"/>
</g>
<defs>
<clipPath id="clip0_165_6018">
<rect width="36" height="24" fill="white" transform="translate(0.5)"/>
</clipPath>
</defs>
</svg>
