<svg width="21" height="18" viewBox="0 0 21 18" fill="none" xmlns="http://www.w3.org/2000/svg">
<path d="M1.4918 18C0.94405 18 0.5 17.5551 0.5 17.0066V0.9934C0.5 0.44476 0.95531 0 1.4918 0H19.5082C20.056 0 20.5 0.44495 20.5 0.9934V17.0066C20.5 17.5552 20.0447 18 19.5082 18H1.4918ZM18.5 12V2H2.5V16L12.5 6L18.5 12ZM18.5 14.8284L12.5 8.8284L5.32843 16H18.5V14.8284ZM6.5 8C5.39543 8 4.5 7.1046 4.5 6C4.5 4.89543 5.39543 4 6.5 4C7.60457 4 8.5 4.89543 8.5 6C8.5 7.1046 7.60457 8 6.5 8Z" fill="#065C73"/>
</svg>
