<svg width="25" height="24" viewBox="0 0 25 24" fill="none" xmlns="http://www.w3.org/2000/svg">
<g clip-path="url(#clip0_197_1285)">
<path d="M22.9751 4.76489C22.5467 5.25712 22.0772 5.66275 21.5668 5.98176C21.3845 6.09116 21.0108 6.26434 20.4456 6.50132C20.1539 6.6016 19.8303 6.62439 19.4749 6.56968L19.8577 6.36459L20.2542 6.14583L20.8968 5.69463L22.3871 4.43674C22.1593 4.26357 21.9451 4.05848 21.7445 3.82147C21.6807 3.63007 21.6124 3.42498 21.5394 3.2062C21.5394 2.62285 21.7536 2.04404 22.1821 1.46976C22.4282 1.15075 22.7472 0.963893 23.1391 0.90918C23.759 0.909202 24.0689 1.31027 24.0689 2.11238V2.4542C24.0689 2.67298 23.9276 3.09228 23.645 3.71209C23.4901 4.04937 23.2667 4.4003 22.9751 4.76489ZM23.2212 2.91907C23.2212 2.43599 22.9796 2.15798 22.4965 2.08503L22.4145 2.11238L22.3325 2.16707L22.2367 2.35849C22.2367 2.51347 22.3074 2.6707 22.4487 2.8302C22.59 2.98973 22.8201 3.16976 23.1391 3.37027C23.1938 3.20622 23.2212 3.05582 23.2212 2.91907Z" fill="black"/>
<path d="M23.0528 8.41548C22.989 8.75275 22.9206 9.24953 22.8477 9.9058C22.7748 10.7444 22.7292 11.902 22.711 13.3787C22.711 15.0741 22.6928 16.2591 22.6563 16.9336C22.5834 18.3738 22.1914 19.8778 21.4805 21.4456C21.3437 21.7373 21.2207 21.8831 21.1113 21.8831C21.0566 21.8831 21.0019 21.8649 20.9472 21.8284C20.8196 21.7555 20.774 21.5869 20.8105 21.3225C20.9563 20.8212 21.0748 19.5633 21.166 17.5489C21.0384 15.9264 20.9928 14.1079 21.0293 12.0934C21.3301 11.0817 21.8542 9.82834 22.6016 8.33344C22.7839 8.22407 22.9343 8.25142 23.0528 8.41548Z" fill="black"/>
<path d="M13.8412 21.9876C13.5039 22.0605 12.9525 22.1654 12.1868 22.3021C12.0227 22.3021 11.9224 22.2428 11.886 22.1244C11.8678 21.9603 11.9954 21.8053 12.2688 21.6595C12.9798 21.2037 13.6908 20.7525 14.4018 20.3059C15.2404 19.7681 15.9194 19.2668 16.439 18.8019C16.9859 18.1821 17.5009 17.2751 17.984 16.081C18.3395 15.0692 18.695 14.062 19.0505 13.0593C19.1052 12.9044 19.2282 12.8269 19.4197 12.8269C19.5837 12.8269 19.6658 12.9044 19.6658 13.0593C19.7022 13.4148 19.5518 14.2261 19.2146 15.4931C18.6403 17.699 17.9521 19.481 17.15 20.8391C16.8492 21.3405 16.3524 21.6504 15.6597 21.7689C15.0489 21.8418 14.4428 21.9147 13.8412 21.9876Z" fill="black"/>
<path d="M13.1296 14.3383C13.2207 14.712 13.2663 15.0948 13.2663 15.4868C13.2663 16.2524 13.0703 17.1093 12.6784 18.0572C12.6419 18.1302 12.2499 18.9414 11.5025 20.491C11.4113 20.7006 11.1971 20.965 10.8599 21.284C9.98483 21.5575 8.64034 21.9084 6.82643 22.3368C6.69882 22.4188 6.60767 22.355 6.55298 22.1454C6.58944 22.0907 6.91303 21.8491 7.52374 21.4207C7.91569 21.1382 8.59933 20.7371 9.57465 20.2175C10.4497 19.7709 11.1105 19.3607 11.5572 18.987C11.858 18.6497 11.9264 18.1438 11.7623 17.4693C11.5526 16.6672 10.9055 16.0063 9.82076 15.4868C9.74783 15.3865 9.74783 15.2726 9.82076 15.145C9.87545 15.0356 9.93469 14.9216 9.9985 14.8031C10.199 14.1013 10.4679 13.2536 10.8052 12.26C11.3065 12.2965 11.7805 12.5289 12.2272 12.9573C12.6191 13.3493 12.9199 13.8096 13.1296 14.3383Z" fill="black"/>
<path d="M11.8655 8.18383C11.437 8.67607 10.9676 9.08169 10.4572 9.4007C10.2749 9.5101 9.90113 9.68329 9.336 9.92027C9.04431 10.0205 8.72072 10.0433 8.36523 9.98863L8.74807 9.78354L9.14458 9.56478L9.7872 9.11358L11.2775 7.85569C11.0496 7.68252 10.8354 7.47743 10.6349 7.24041C10.5711 7.04902 10.5027 6.84392 10.4298 6.62514C10.4298 6.04179 10.644 5.46298 11.0724 4.88871C11.3185 4.5697 11.6376 4.38284 12.0295 4.32812C12.6493 4.32815 12.9593 4.72921 12.9593 5.53132V5.87314C12.9593 6.09193 12.818 6.51122 12.5354 7.13103C12.3805 7.46831 12.1571 7.81924 11.8655 8.18383ZM12.1116 6.33801C12.1116 5.85493 11.87 5.57692 11.3869 5.50398L11.3049 5.53132L11.2228 5.58601L11.1271 5.77743C11.1271 5.93241 11.1978 6.08965 11.3391 6.24914C11.4803 6.40868 11.7105 6.5887 12.0295 6.78921C12.0842 6.62516 12.1116 6.47476 12.1116 6.33801Z" fill="black"/>
<path d="M7.33313 17.04C7.20551 17.9516 6.72241 19.1639 5.88382 20.677C5.65594 21.0872 5.26399 21.3652 4.70797 21.511C4.2431 21.6295 3.76455 21.7526 3.27234 21.8802C2.91684 21.9896 2.37905 22.1491 1.65895 22.3587C1.48577 22.3587 1.38094 22.304 1.34448 22.1947C1.34448 22.0579 1.46754 21.9167 1.71365 21.7708C2.46109 21.3242 3.20853 20.8866 3.95597 20.4582C4.77633 19.9296 5.47364 19.3963 6.0479 18.8585C6.22108 18.6306 6.27577 18.3207 6.21197 17.9288C6.10258 17.6553 5.97497 17.4685 5.82913 17.3682C5.63771 17.4047 5.45997 17.4229 5.2959 17.4229C4.62137 17.4229 4.11548 17.1905 3.77823 16.7256C3.65061 16.5068 3.58681 16.2744 3.58681 16.0283C3.58681 15.7639 3.66884 15.4358 3.83292 15.0438C3.98787 14.7522 4.12916 14.4422 4.25677 14.1141C4.38438 13.786 4.50743 13.435 4.62593 13.0613C4.82646 12.6511 5.09536 12.3822 5.43262 12.2546C6.05245 12.1361 6.54922 12.3868 6.92295 13.0066C7.33313 13.6994 7.53822 14.5197 7.53822 15.4677C7.53822 15.969 7.46985 16.4931 7.33313 17.04Z" fill="black"/>
</g>
<defs>
<clipPath id="clip0_197_1285">
<rect width="24.0636" height="24" fill="white" transform="translate(0.436523)"/>
</clipPath>
</defs>
</svg>
