<svg width="25" height="24" viewBox="0 0 25 24" fill="none" xmlns="http://www.w3.org/2000/svg">
<path fill-rule="evenodd" clip-rule="evenodd" d="M12.5 1.25C9.87666 1.25 7.75001 3.37665 7.75001 6C7.75001 8.62335 9.87666 10.75 12.5 10.75C15.1234 10.75 17.25 8.62335 17.25 6C17.25 3.37665 15.1234 1.25 12.5 1.25ZM9.25001 6C9.25001 4.20507 10.7051 2.75 12.5 2.75C14.2949 2.75 15.75 4.20507 15.75 6C15.75 7.79493 14.2949 9.25 12.5 9.25C10.7051 9.25 9.25001 7.79493 9.25001 6Z" fill="#474747"/>
<path fill-rule="evenodd" clip-rule="evenodd" d="M12.5 12.25C10.1865 12.25 8.05494 12.7759 6.47546 13.6643C4.9195 14.5396 3.75001 15.8661 3.75001 17.5L3.74995 17.602C3.74882 18.7638 3.7474 20.222 5.02642 21.2635C5.65589 21.7761 6.53649 22.1406 7.72622 22.3815C8.91927 22.6229 10.4742 22.75 12.5 22.75C14.5258 22.75 16.0808 22.6229 17.2738 22.3815C18.4635 22.1406 19.3441 21.7761 19.9736 21.2635C21.2526 20.222 21.2512 18.7638 21.2501 17.602L21.25 17.5C21.25 15.8661 20.0805 14.5396 18.5246 13.6643C16.9451 12.7759 14.8136 12.25 12.5 12.25ZM5.25001 17.5C5.25001 16.6487 5.87139 15.7251 7.21085 14.9717C8.52681 14.2315 10.3953 13.75 12.5 13.75C14.6047 13.75 16.4732 14.2315 17.7892 14.9717C19.1286 15.7251 19.75 16.6487 19.75 17.5C19.75 18.8078 19.7097 19.544 19.0264 20.1004C18.6559 20.4022 18.0365 20.6967 16.9762 20.9113C15.9193 21.1252 14.4742 21.25 12.5 21.25C10.5258 21.25 9.08075 21.1252 8.0238 20.9113C6.96354 20.6967 6.34413 20.4022 5.9736 20.1004C5.29033 19.544 5.25001 18.8078 5.25001 17.5Z" fill="#474747"/>
</svg>
