<svg width="104" height="104" viewBox="0 0 104 104" fill="none" xmlns="http://www.w3.org/2000/svg">
<path d="M60.3633 52C62.4904 53.6639 64.2091 55.7919 65.3882 58.2214C66.5673 60.6509 67.1756 63.3178 67.1667 66.0183V69.3333C67.1667 69.908 66.9384 70.4591 66.5321 70.8654C66.1258 71.2717 65.5746 71.5 65 71.5H39C38.4254 71.5 37.8743 71.2717 37.4679 70.8654C37.0616 70.4591 36.8333 69.908 36.8333 69.3333V66.0183C36.8244 63.3178 37.4327 60.6509 38.6118 58.2214C39.7909 55.7919 41.5096 53.6639 43.6367 52C40.2097 49.3127 37.8952 45.4551 37.1367 41.1667C36.9376 40.1166 36.8361 39.0504 36.8333 37.9817V34.6667C36.8333 34.092 37.0616 33.5409 37.4679 33.1346C37.8743 32.7283 38.4254 32.5 39 32.5H65C65.5746 32.5 66.1258 32.7283 66.5321 33.1346C66.9384 33.5409 67.1667 34.092 67.1667 34.6667V37.9817C67.1702 40.5776 66.6083 43.1432 65.52 45.5C64.3468 48.0486 62.5783 50.2778 60.3633 52Z" fill="#79A1E8"/>
<path d="M52 88.8333C42.2311 88.8333 32.8624 84.9526 25.9549 78.0451C19.0473 71.1375 15.1666 61.7688 15.1666 52C15.1666 42.2311 19.0473 32.8624 25.9549 25.9549C32.8624 19.0473 42.2311 15.1666 52 15.1666C52.5746 15.1666 53.1257 15.3949 53.532 15.8012C53.9384 16.2076 54.1666 16.7587 54.1666 17.3333C54.1666 17.9079 53.9384 18.459 53.532 18.8654C53.1257 19.2717 52.5746 19.5 52 19.5C45.5721 19.5 39.2885 21.4061 33.9439 24.9772C28.5993 28.5483 24.4337 33.6241 21.9739 39.5627C19.514 45.5013 18.8704 52.036 20.1244 58.3404C21.3785 64.6448 24.4738 70.4357 29.019 74.9809C33.5642 79.5261 39.3551 82.6215 45.6595 83.8755C51.9639 85.1295 58.4986 84.4859 64.4372 82.026C70.3758 79.5662 75.4516 75.4006 79.0227 70.056C82.5939 64.7114 84.5 58.4278 84.5 52C84.5 51.4253 84.7282 50.8742 85.1346 50.4679C85.5409 50.0616 86.092 49.8333 86.6666 49.8333C87.2413 49.8333 87.7924 50.0616 88.1987 50.4679C88.605 50.8742 88.8333 51.4253 88.8333 52C88.8333 61.7688 84.9526 71.1375 78.0451 78.0451C71.1375 84.9526 61.7688 88.8333 52 88.8333Z" fill="#F7931E"/>
<path d="M52 19.5C51.4254 19.5 50.8743 19.2717 50.468 18.8654C50.0616 18.4591 49.8334 17.908 49.8334 17.3333C49.8368 17.0502 49.8957 16.7705 50.0067 16.51C50.1164 16.2474 50.2703 16.0056 50.4617 15.795C50.7119 15.5341 51.0233 15.34 51.3677 15.2302C51.712 15.1205 52.0784 15.0986 52.4334 15.1667C52.5691 15.1904 52.7006 15.2342 52.8234 15.2967C52.9614 15.3441 53.0926 15.4097 53.2134 15.4917L53.5384 15.7517C53.7298 15.9623 53.8836 16.2041 53.9934 16.4667C54.108 16.726 54.1672 17.0064 54.1672 17.29C54.1672 17.5735 54.108 17.854 53.9934 18.1133C53.8836 18.3759 53.7298 18.6177 53.5384 18.8283L53.2134 19.0883C53.0926 19.1703 52.9614 19.2359 52.8234 19.2833C52.7059 19.3761 52.5742 19.4493 52.4334 19.5H52ZM82.03 39.5633C81.8406 39.0449 81.8562 38.4737 82.0737 37.9663C82.2911 37.459 82.694 37.0537 83.2 36.8333C83.4632 36.7232 83.7454 36.6661 84.0307 36.6654C84.3159 36.6646 84.5985 36.7202 84.8622 36.8289C85.1259 36.9376 85.3655 37.0973 85.5674 37.2988C85.7692 37.5004 85.9293 37.7398 86.0384 38.0033C86.1485 38.2664 86.2056 38.5487 86.2063 38.834C86.2071 39.1192 86.1515 39.4018 86.0428 39.6655C85.9341 39.9292 85.7744 40.1688 85.5729 40.3707C85.3713 40.5725 85.1319 40.7326 84.8684 40.8417C84.5986 40.9444 84.312 40.9958 84.0234 40.9933C83.5855 40.9843 83.1607 40.8429 82.8048 40.5876C82.449 40.3323 82.1788 39.9752 82.03 39.5633ZM74.9884 29.0117C74.5848 28.6057 74.3583 28.0566 74.3583 27.4842C74.3583 26.9118 74.5848 26.3626 74.9884 25.9567C75.398 25.5719 75.9411 25.3613 76.503 25.3694C77.0649 25.3775 77.6017 25.6036 78 26C78.4036 26.4059 78.6301 26.9551 78.6301 27.5275C78.6301 28.0999 78.4036 28.649 78 29.055C77.7994 29.2597 77.5601 29.4226 77.296 29.5342C77.0319 29.6457 76.7484 29.7038 76.4617 29.705C75.8991 29.6742 75.3707 29.4255 74.9884 29.0117ZM64.4367 21.97C64.1732 21.8609 63.9338 21.7008 63.7322 21.499C63.5307 21.2972 63.371 21.0575 63.2623 20.7938C63.1536 20.5301 63.098 20.2475 63.0988 19.9623C63.0995 19.6771 63.1566 19.3948 63.2667 19.1317C63.3758 18.8681 63.5359 18.6287 63.7377 18.4272C63.9395 18.2256 64.1792 18.0659 64.4429 17.9572C64.7066 17.8485 64.9892 17.7929 65.2744 17.7937C65.5596 17.7945 65.8419 17.8515 66.105 17.9617C66.3686 18.0708 66.608 18.2308 66.8095 18.4327C67.0111 18.6345 67.1708 18.8741 67.2795 19.1378C67.3882 19.4016 67.4437 19.6841 67.443 19.9694C67.4422 20.2546 67.3851 20.5369 67.275 20.8C67.1125 21.1957 66.8365 21.5344 66.4817 21.7734C66.127 22.0125 65.7095 22.1412 65.2817 22.1433C64.9918 22.1379 64.7053 22.0792 64.4367 21.97ZM86.6667 54.1667C86.3816 54.1683 86.0989 54.1137 85.8349 54.0058C85.5709 53.898 85.3308 53.7391 85.1284 53.5383C84.9253 53.3369 84.7641 53.0973 84.6541 52.8332C84.5441 52.5692 84.4875 52.286 84.4875 52C84.4875 51.714 84.5441 51.4308 84.6541 51.1667C84.7641 50.9027 84.9253 50.6631 85.1284 50.4617L85.4534 50.2017C85.5742 50.1197 85.7053 50.0541 85.8434 50.0067L86.2334 49.8333C86.5123 49.7779 86.7994 49.7779 87.0784 49.8333C87.2219 49.8534 87.361 49.8974 87.49 49.9633C87.6231 50.0066 87.7478 50.0726 87.8584 50.1583L88.205 50.4183C88.4081 50.6197 88.5693 50.8594 88.6793 51.1234C88.7893 51.3874 88.8459 51.6706 88.8459 51.9567C88.8459 52.2427 88.7893 52.5259 88.6793 52.7899C88.5693 53.0539 88.4081 53.2936 88.205 53.495C88.0062 53.7036 87.7677 53.8705 87.5036 53.9858C87.2394 54.1012 86.9549 54.1627 86.6667 54.1667Z" fill="#F7931E"/>
<path d="M47.9483 26.2816C47.3799 26.2792 46.8352 26.0536 46.4317 25.6533C46.0281 25.2473 45.8016 24.6982 45.8016 24.1258C45.8016 23.5534 46.0281 23.0042 46.4317 22.5983L51.3933 17.615L46.4317 12.6533C46.2049 12.4591 46.0206 12.22 45.8906 11.9512C45.7605 11.6824 45.6875 11.3896 45.6759 11.0912C45.6644 10.7928 45.7147 10.4953 45.8236 10.2173C45.9325 9.93922 46.0978 9.6867 46.3089 9.47554C46.5201 9.26439 46.7726 9.09917 47.0506 8.99024C47.3287 8.88131 47.6262 8.83103 47.9246 8.84256C48.223 8.85408 48.5158 8.92716 48.7846 9.05721C49.0534 9.18727 49.2924 9.37148 49.4867 9.59829L55.9867 16.0983C56.3902 16.5042 56.6167 17.0534 56.6167 17.6258C56.6167 18.1982 56.3902 18.7473 55.9867 19.1533L49.4867 25.6533C49.2842 25.8541 49.0441 26.013 48.7801 26.1208C48.5161 26.2286 48.2335 26.2833 47.9483 26.2816Z" fill="#F7931E"/>
<path d="M62.3567 67.99L53.69 57.1566C53.487 56.9036 53.2297 56.6993 52.9372 56.559C52.6447 56.4187 52.3244 56.3458 52 56.3458C51.6756 56.3458 51.3553 56.4187 51.0628 56.559C50.7703 56.6993 50.513 56.9036 50.31 57.1566L41.6433 67.99C41.3918 68.307 41.2342 68.6882 41.1882 69.0903C41.1423 69.4924 41.2099 69.8993 41.3833 70.265C41.5589 70.6337 41.8352 70.9452 42.1802 71.1637C42.5252 71.3822 42.9249 71.4988 43.3333 71.5H60.6667C61.075 71.4988 61.4748 71.3822 61.8198 71.1637C62.1648 70.9452 62.4411 70.6337 62.6167 70.265C62.7901 69.8993 62.8577 69.4924 62.8117 69.0903C62.7658 68.6882 62.6081 68.307 62.3567 67.99ZM66.885 41.1666C66.6221 42.6647 66.1631 44.1217 65.52 45.5H38.48C37.8368 44.1217 37.3779 42.6647 37.115 41.1666H66.885Z" fill="#F9D015"/>
<path d="M69.3333 36.8333H34.6667C34.092 36.8333 33.5409 36.6051 33.1346 36.1987C32.7283 35.7924 32.5 35.2413 32.5 34.6667C32.5 34.092 32.7283 33.5409 33.1346 33.1346C33.5409 32.7283 34.092 32.5 34.6667 32.5H69.3333C69.908 32.5 70.4591 32.7283 70.8654 33.1346C71.2717 33.5409 71.5 34.092 71.5 34.6667C71.5 35.2413 71.2717 35.7924 70.8654 36.1987C70.4591 36.6051 69.908 36.8333 69.3333 36.8333ZM69.3333 71.5H34.6667C34.092 71.5 33.5409 71.2717 33.1346 70.8654C32.7283 70.4591 32.5 69.908 32.5 69.3333C32.5 68.7587 32.7283 68.2076 33.1346 67.8013C33.5409 67.3949 34.092 67.1667 34.6667 67.1667H69.3333C69.908 67.1667 70.4591 67.3949 70.8654 67.8013C71.2717 68.2076 71.5 68.7587 71.5 69.3333C71.5 69.908 71.2717 70.4591 70.8654 70.8654C70.4591 71.2717 69.908 71.5 69.3333 71.5Z" fill="#4B31AA"/>
</svg>
