<svg width="32" height="32" viewBox="0 0 32 32" fill="none" xmlns="http://www.w3.org/2000/svg">
<path d="M0 12.8C0 8.31958 0 6.07937 0.871948 4.36808C1.63893 2.86278 2.86278 1.63893 4.36808 0.871948C6.07937 0 8.31958 0 12.8 0H19.2C23.6804 0 25.9206 0 27.6319 0.871948C29.1372 1.63893 30.3611 2.86278 31.1281 4.36808C32 6.07937 32 8.31958 32 12.8V19.2C32 23.6804 32 25.9206 31.1281 27.6319C30.3611 29.1372 29.1372 30.3611 27.6319 31.1281C25.9206 32 23.6804 32 19.2 32H12.8C8.31958 32 6.07937 32 4.36808 31.1281C2.86278 30.3611 1.63893 29.1372 0.871948 27.6319C0 25.9206 0 23.6804 0 19.2V12.8Z" fill="#16C35B"/>
<g clip-path="url(#clip0_165_6120)">
<path d="M23.1939 8.80609C21.3844 6.99652 18.9785 6 16.4194 6C13.8604 6 11.4544 6.99652 9.64484 8.80609C7.83527 10.6157 6.83879 13.0215 6.83879 15.5806C6.83879 17.2016 7.24914 18.7946 8.02805 20.2057L6 26L11.7943 23.972C13.2054 24.7508 14.7983 25.1612 16.4194 25.1612C18.9784 25.1612 21.3844 24.1646 23.1939 22.3551C25.0034 20.5456 26 18.1397 26 15.5806C26 13.0215 25.0034 10.6156 23.1939 8.80609ZM21.1557 19.1396L20.0496 20.2457C19.1334 21.162 16.5336 20.0478 14.2429 17.7571C11.9522 15.4664 10.838 12.8667 11.7543 11.9504L12.8603 10.8444C13.0894 10.6153 13.4608 10.6153 13.6898 10.8444L15.0724 12.2269C15.3014 12.456 15.3014 12.8274 15.0724 13.0564L14.2429 13.886C15.0475 15.5847 16.4153 16.9525 18.114 17.7571L18.9436 16.9276C19.1726 16.6985 19.544 16.6985 19.7731 16.9276L21.1556 18.3101C21.3847 18.5392 21.3847 18.9106 21.1557 19.1396Z" fill="white"/>
</g>
<defs>
<clipPath id="clip0_165_6120">
<rect width="20" height="20" fill="white" transform="translate(6 6)"/>
</clipPath>
</defs>
</svg>
