<svg width="16" height="16" viewBox="0 0 16 16" fill="none" xmlns="http://www.w3.org/2000/svg">
<path d="M8.00001 9.41301C7.93641 9.41091 7.87302 9.42136 7.81347 9.44377C7.75391 9.46618 7.69936 9.5001 7.65292 9.54361C7.60649 9.58712 7.56908 9.63935 7.54284 9.69732C7.5166 9.75529 7.50205 9.81786 7.50001 9.88146V10.1788C7.50824 10.3058 7.5645 10.4249 7.65736 10.5119C7.75023 10.599 7.87273 10.6474 8.00001 10.6474C8.12728 10.6474 8.24978 10.599 8.34265 10.5119C8.43551 10.4249 8.49177 10.3058 8.50001 10.1788V9.88146C8.49796 9.81786 8.48341 9.75529 8.45717 9.69732C8.43093 9.63935 8.39353 9.58712 8.34709 9.54361C8.30066 9.5001 8.2461 9.46618 8.18655 9.44377C8.12699 9.42136 8.0636 9.41091 8.00001 9.41301ZM9.20001 9.59511V10.1951C9.20087 10.3239 9.17631 10.4515 9.12774 10.5708C9.07917 10.69 9.00755 10.7985 8.91697 10.89C8.82639 10.9815 8.71864 11.0542 8.5999 11.104C8.48116 11.1538 8.35376 11.1797 8.22501 11.1801H7.77501C7.64625 11.1797 7.51885 11.1538 7.40011 11.104C7.28137 11.0542 7.17362 10.9815 7.08304 10.89C6.99247 10.7985 6.92084 10.69 6.87227 10.5708C6.8237 10.4515 6.79914 10.3239 6.80001 10.1951V9.75011L0.100006 7.84011V11.7651C0.0968288 12.4579 0.368939 13.1237 0.856504 13.6159C1.34407 14.1082 2.00717 14.3867 2.70001 14.3901H13.3C13.6428 14.3883 13.9819 14.319 14.2979 14.186C14.6138 14.0531 14.9005 13.8592 15.1415 13.6154C15.3825 13.3716 15.5731 13.0827 15.7024 12.7652C15.8317 12.4478 15.8971 12.1079 15.895 11.7651L15.9 7.62511L9.20001 9.59511ZM14.39 3.59011C14.0844 3.46181 13.7564 3.39553 13.425 3.39511H10.095L9.76001 2.55011C9.65289 2.27367 9.46479 2.03603 9.22034 1.8683C8.97588 1.70057 8.68647 1.61058 8.39001 1.61011H7.61001C7.3129 1.61048 7.0228 1.70037 6.77753 1.86805C6.53226 2.03572 6.3432 2.2734 6.23501 2.55011L5.90001 3.39511H2.57001C2.24367 3.39707 1.92092 3.46329 1.62017 3.59C1.31943 3.7167 1.04659 3.90139 0.817226 4.13354C0.587864 4.36569 0.406474 4.64074 0.283413 4.94299C0.160352 5.24524 0.0980301 5.56877 0.100006 5.89511V6.79511L7.92501 8.98011C7.97438 8.99346 8.02663 8.99172 8.07501 8.97511L15.9 6.58511V5.89511C15.8998 5.40567 15.7568 4.92693 15.4886 4.51752C15.2204 4.10811 14.8386 3.78581 14.39 3.59011ZM6.96501 3.39511L7.15001 2.92511C7.18569 2.83214 7.24879 2.75223 7.33095 2.69597C7.41311 2.63971 7.51043 2.60976 7.61001 2.61011H8.39001C8.48894 2.60986 8.58558 2.63991 8.66692 2.69623C8.74827 2.75254 8.81041 2.83242 8.84501 2.92511L9.03001 3.39511H6.96501Z" fill="#047B7B"/>
</svg>
